<svg xmlns="http://www.w3.org/2000/svg" viewBox="0 0 56.69 56.69"><defs><clipPath id="clip-path"><path class="cls-1" d="M0 0h56.69v56.69H0z"/></clipPath><clipPath id="clip-path-2"><path class="cls-1" d="M48.67 30v8.5a1 1 0 0 0 .24 0V30Z"/></clipPath><clipPath id="clip-path-3"><path class="cls-1" d="M48.67 18.86h.24v11.26h-.24z"/></clipPath><clipPath id="clip-path-4"><path class="cls-1" d="M33 14.09a1.27 1.27 0 0 0-1.21 1.31v.13a11.84 11.84 0 0 1 1.19.05v-.18h2.32v-1.31Z"/></clipPath><clipPath id="clip-path-5"><path class="cls-1" d="M35.2 14.09v1.31h13.47V19h.24v-4.89a1 1 0 0 0-.24 0Z"/></clipPath><clipPath id="clip-path-6"><path class="cls-1" d="M48.79 18.86h1.09v11.26h-1.09z"/></clipPath><clipPath id="clip-path-8"><path class="cls-1" d="M48.79 19h1.09v-3.6a1.29 1.29 0 0 0-1.09-1.31Z"/></clipPath><clipPath id="clip-path-9"><path class="cls-1" d="M48.79 30v8.5a1.29 1.29 0 0 0 1.09-1.31V30Z"/></clipPath><style>.cls-1,.cls-5,.cls-7,.cls-8,.cls-9{fill:none}.cls-2{clip-path:url(#clip-path)}.cls-4{clip-path:url(#clip-path-2)}.cls-5,.cls-7,.cls-8,.cls-9{stroke:#003768;stroke-miterlimit:10}.cls-5{stroke-width:.08px}.cls-6{fill:#003768}.cls-7,.cls-8,.cls-9{stroke-width:.08px}.cls-10{clip-path:url(#clip-path-3)}.cls-11{clip-path:url(#clip-path-4)}.cls-12{clip-path:url(#clip-path-5)}.cls-13{clip-path:url(#clip-path-6)}.cls-14{clip-path:url(#clip-path-8)}.cls-15{clip-path:url(#clip-path-9)}.cls-16{fill:#fff}</style></defs><g id="Layer_2" data-name="Layer 2"><g id="Layer_1-2" data-name="Layer 1"><path d="M0 28.35A28.35 28.35 0 1 0 28.35 0 28.34 28.34 0 0 0 0 28.35" style="fill:#e6e9f1" class="cls-2"/><g class="cls-4"><path class="cls-5" d="M48.69 39.08a.06.06 0 1 0-.11 0Z"/><path class="cls-6" d="M48.69 37.83a.06.06 0 0 0 0-.09.06.06 0 0 0-.08 0 .08.08 0 0 0 0 .05"/><path class="cls-5" d="M48.69 37.83a.06.06 0 0 0 0-.09.06.06 0 0 0-.08 0 .08.08 0 0 0 0 .05ZM48.23 38.33a.08.08 0 0 0 0-.05.06.06 0 0 0-.08 0 .08.08 0 0 0 0 .05Zm.23-.25a.08.08 0 0 0 0-.05.06.06 0 0 0-.08 0 .06.06 0 0 0 0 .09Z"/><path class="cls-6" d="M48.69 36.58v-.05h-.08v.05"/><path class="cls-7" d="M48.69 36.58v-.05h-.08v.05ZM48.23 37.08a.08.08 0 0 0 0-.05.06.06 0 0 0-.08 0 .08.08 0 0 0 0 .05Zm.23-.25v-.05a.06.06 0 0 0-.08 0s0 0 0 .05Z"/><path class="cls-6" d="M48.69 35.33v-.05h-.08a.08.08 0 0 0 0 .05"/><path class="cls-7" d="M48.69 35.33v-.05h-.08a.08.08 0 0 0 0 .05ZM48.23 35.82v-.05h-.08v.05Zm.23-.25v-.05h-.08a.09.09 0 0 0 0 .05Z"/><path class="cls-6" d="M48.69 34.07v-.08h-.08"/><path class="cls-8" d="M48.69 34.07v-.08h-.08l.08.08ZM48.23 34.57a.06.06 0 0 0 .05 0 .06.06 0 0 0-.09 0 .06.06 0 0 0 0 .05Zm.23-.25a.05.05 0 0 0-.08 0h.08Z"/><path class="cls-6" d="M48.7 32.82a.06.06 0 0 0-.09 0h.05"/><path class="cls-8" d="M48.7 32.82a.06.06 0 0 0-.09 0Z"/><path class="cls-9" d="M48.24 33.32a.09.09 0 0 0 0-.05h-.08a.05.05 0 0 0 0 .08s.06-.03.08-.03Zm.23-.25a.06.06 0 0 0-.09 0h.09Z"/><path class="cls-6" d="M48.7 31.57a.06.06 0 0 0-.09 0"/><path class="cls-9" d="M48.7 31.57a.06.06 0 0 0-.09 0ZM48.24 32.07a.06.06 0 0 0-.08 0 .05.05 0 0 0 .08 0Zm.23-.25a.08.08 0 0 0 0-.05.06.06 0 0 0-.08 0s0 0 0 .05Z"/><path class="cls-6" d="M48.7 30.32a.08.08 0 0 0 0-.05.06.06 0 0 0-.08 0 .08.08 0 0 0 0 .05"/><path class="cls-9" d="M48.7 30.32a.08.08 0 0 0 0-.05.06.06 0 0 0-.08 0 .08.08 0 0 0 0 .05ZM48.24 30.82v-.05a.06.06 0 0 0-.08 0 .06.06 0 0 0 0 .09.05.05 0 0 0 .08-.04Zm.23-.25a.06.06 0 0 0 0-.09.06.06 0 0 0-.08 0 .08.08 0 0 0 0 .05Z"/></g><g class="cls-10"><path class="cls-6" d="M48.68 29.19a.06.06 0 0 0 0-.09.06.06 0 0 0-.08 0 .07.07 0 0 0 0 .05"/><path class="cls-5" d="M48.68 29.19a.06.06 0 0 0 0-.09.06.06 0 0 0-.08 0 .07.07 0 0 0 0 .05ZM48.22 29.69h.05a.07.07 0 0 0 0-.05s0 0-.08 0a.07.07 0 0 0 0 .05Zm.23-.25a.43.43 0 0 0 0-.05.06.06 0 0 0-.1.05Z"/><path class="cls-6" d="M48.69 27.94a.07.07 0 0 0 0-.05.07.07 0 0 0-.09 0s0 0 0 .05"/><path class="cls-5" d="M48.69 27.94a.07.07 0 0 0 0-.05.07.07 0 0 0-.09 0s0 0 0 .05Z"/><path class="cls-7" d="M48.23 28.44a.07.07 0 0 0 0-.05.05.05 0 0 0-.08 0s0 0 0 .05Zm.23-.25a.07.07 0 0 0 0-.05.06.06 0 0 0-.09 0 .43.43 0 0 0 0 .05Z"/><path class="cls-6" d="M48.69 26.69a.09.09 0 0 0 0-.05.05.05 0 0 0-.08 0s0 0 0 .05"/><path class="cls-7" d="M48.69 26.69a.09.09 0 0 0 0-.05.05.05 0 0 0-.08 0s0 0 0 .05ZM48.23 27.19a.06.06 0 0 0 0-.09.06.06 0 0 0-.08 0 .06.06 0 0 0 0 .09Zm.23-.25a.06.06 0 0 0 0-.09.05.05 0 0 0-.08 0 .06.06 0 0 0 0 .09.05.05 0 0 0 .08 0Z"/><path class="cls-6" d="M48.69 25.43v-.05h-.08v.05"/><path class="cls-7" d="M48.69 25.43v-.05h-.08v.05Z"/><path class="cls-8" d="M48.23 25.93a.06.06 0 1 0-.1 0s0 0 0 .05Zm.23-.25v-.05a.06.06 0 0 0-.12 0s0 0 0 .05Z"/><path class="cls-6" d="M48.69 24.18v-.08a.05.05 0 0 0-.08 0s0 0 0 .05"/><path class="cls-8" d="M48.69 24.18v-.08a.05.05 0 0 0-.08 0s0 0 0 .05ZM48.23 24.68v-.05h-.08v.08l.08-.03Zm.23-.25v-.08h-.08l.08.08Z"/><path class="cls-6" d="M48.69 22.93v-.08h-.08"/><path class="cls-9" d="M48.69 22.93v-.08h-.08l.08.08ZM48.23 23.43h.05a.09.09 0 0 0 0-.05.08.08 0 0 0-.09 0 .09.09 0 0 0 0 .05s.03 0 .04 0Zm.23-.25a.05.05 0 0 0-.08 0 .09.09 0 0 0 0 .05l.08-.05Z"/><path class="cls-6" d="M48.7 21.68a.06.06 0 1 0-.11 0h.05"/><path class="cls-9" d="M48.7 21.68a.06.06 0 1 0-.11 0ZM48.24 22.18a.07.07 0 0 0 0-.05.06.06 0 0 0-.08 0 .06.06 0 0 0 0 .09.05.05 0 0 0 .08-.04Zm.23-.25a.09.09 0 0 0 0-.05.06.06 0 0 0-.1.05Z"/><path class="cls-6" d="M48.7 20.43a.06.06 0 0 0-.1-.05.43.43 0 0 0 0 .05"/><path class="cls-9" d="M48.7 20.43a.06.06 0 0 0-.1-.05.43.43 0 0 0 0 .05ZM48.24 20.93a.08.08 0 0 0 0-.05.06.06 0 0 0-.08 0 .06.06 0 0 0 0 .09.05.05 0 0 0 .08-.04Zm.23-.25a.06.06 0 0 0 0-.09.06.06 0 0 0-.08 0 .08.08 0 0 0 0 .05Z"/><path class="cls-6" d="M48.7 19.18a.06.06 0 0 0 0-.09.06.06 0 0 0-.08 0 .06.06 0 0 0 0 .09"/><path class="cls-9" d="M48.7 19.18a.06.06 0 0 0 0-.09.06.06 0 0 0-.08 0 .06.06 0 0 0 0 .09ZM48.24 19.68a.08.08 0 0 0 0-.05.06.06 0 0 0-.08 0 .06.06 0 0 0 0 .09.05.05 0 0 0 .08-.04Zm.23-.25a.06.06 0 0 0 0-.09.06.06 0 0 0-.08 0 .08.08 0 0 0 0 .05Z"/></g><g class="cls-11"><path class="cls-6" d="M35.1 15.54v-.08h-.08v.08"/><path class="cls-5" d="M35.1 15.54v-.08h-.08v.08h.08Z"/><path class="cls-6" d="M34.87 15.79v-.08h-.08a.05.05 0 0 0 0 .08"/><path class="cls-5" d="M34.87 15.79v-.08h-.08a.05.05 0 0 0 0 .08s.06 0 .08 0ZM34.64 16v-.08h-.08a.05.05 0 0 0 0 .08s.06 0 .08 0Z"/><path class="cls-6" d="M35.1 14.29a.05.05 0 0 0-.08 0s0 0 0 .05"/><path class="cls-7" d="M35.1 14.29a.05.05 0 0 0-.08 0s0 0 0 .05.06-.05.08-.05Z"/><path class="cls-6" d="M34.87 14.54v-.05a.05.05 0 0 0-.08 0 .05.05 0 0 0 0 .08"/><path class="cls-7" d="M34.87 14.54v-.05a.05.05 0 0 0-.08 0 .05.05 0 0 0 0 .08s.06-.03.08-.03Z"/><path class="cls-6" d="M34.64 14.79a.05.05 0 0 0 0-.08h-.08"/><path class="cls-7" d="M34.64 14.79a.05.05 0 0 0 0-.08h-.08Z"/><path class="cls-6" d="M34.41 15a.05.05 0 0 0 0-.08s-.06 0-.08 0a.05.05 0 0 0 0 .08"/><path class="cls-7" d="M34.41 15a.05.05 0 0 0 0-.08s-.06 0-.08 0a.05.05 0 0 0 0 .08h.08Z"/><path class="cls-6" d="M34.18 15.29v-.05a.05.05 0 0 0-.08 0"/><path class="cls-8" d="M34.18 15.29v-.05a.05.05 0 0 0-.08 0l.08.05Z"/><path class="cls-6" d="M34 15.54h-.08c-.03 0 0 0 0 0"/><path class="cls-8" d="M34 15.54h-.08c-.03 0 0 0 0 0Z"/><path class="cls-6" d="M33.72 15.79a.06.06 0 0 0 .05 0h-.08"/><path class="cls-8" d="M33.72 15.79a.06.06 0 0 0 .05 0h-.08Z"/><path class="cls-9" d="M34.41 13.79a.06.06 0 0 0 0-.05.06.06 0 0 0-.08 0 .07.07 0 0 0 0 .05ZM33.49 16a.06.06 0 0 0-.09 0h.09Z"/><path class="cls-6" d="M34.19 14a.09.09 0 0 0 0-.05.06.06 0 0 0-.09 0"/><path class="cls-9" d="M34.19 14a.09.09 0 0 0 0-.05.06.06 0 0 0-.09 0Z"/><path class="cls-6" d="M34 14.29h-.08a.06.06 0 0 0 0 .05"/><path class="cls-9" d="M34 14.29h-.08a.06.06 0 0 0 0 .05.05.05 0 0 0 .08-.05Z"/><path class="cls-6" d="M33.73 14.54h-.08a.05.05 0 0 0 0 .08"/><path class="cls-9" d="M33.73 14.54h-.08a.05.05 0 0 0 0 .08s.06-.08.08-.08Z"/><path class="cls-6" d="M33.5 14.79h-.08v.08"/><path class="cls-9" d="M33.5 14.79h-.08v.08s.06-.08.08-.08Z"/><path class="cls-6" d="M33.27 15a.05.05 0 0 0 0-.08h-.08a.05.05 0 0 0 0 .08"/><path class="cls-9" d="M33.27 15a.05.05 0 0 0 0-.08h-.08a.05.05 0 0 0 0 .08Z"/><path class="cls-6" d="M33 15.29v-.05a.05.05 0 0 0-.08 0v.08"/><path class="cls-9" d="M33 15.29v-.05a.05.05 0 0 0-.08 0v.08l.08-.03Z"/><path class="cls-6" d="M32.81 15.54a.05.05 0 0 0 0-.08h-.08v.08"/><path class="cls-9" d="M32.81 15.54a.05.05 0 0 0 0-.08h-.08v.08h.08Z"/><path class="cls-6" d="M32.58 15.79a.05.05 0 0 0 0-.08h-.08a.05.05 0 0 0 0 .08"/><path class="cls-9" d="M32.58 15.79a.05.05 0 0 0 0-.08h-.08a.05.05 0 0 0 0 .08h.08ZM33.27 13.79v-.05a.06.06 0 0 0-.08 0s0 0 0 .05ZM32.35 16a.05.05 0 0 0 0-.08h-.08v.05Z"/><path class="cls-6" d="M33 14v-.05a.05.05 0 0 0-.08 0"/><path class="cls-9" d="M33 14v-.05a.05.05 0 0 0-.08 0Z"/><path class="cls-6" d="M32.81 14.29v-.05a.05.05 0 0 0-.08 0"/><path class="cls-9" d="M32.81 14.29v-.05a.05.05 0 0 0-.08 0l.08.05Z"/><path class="cls-6" d="M32.58 14.54v-.05a.05.05 0 0 0-.08 0 .05.05 0 0 0 0 .08"/><path class="cls-9" d="M32.58 14.54v-.05a.05.05 0 0 0-.08 0 .05.05 0 0 0 0 .08l.08-.03Z"/><path class="cls-6" d="M32.35 14.79a.06.06 0 0 0-.09 0"/><path class="cls-9" d="M32.35 14.79a.06.06 0 0 0-.09 0Z"/><path class="cls-6" d="M32.12 15h-.08c-.02 0 0 0 0 0"/><path class="cls-9" d="M32.12 15h-.08c-.02 0 0 0 0 0Z"/><path class="cls-6" d="M31.9 15.29a.06.06 0 0 0-.09 0"/><path class="cls-9" d="M31.9 15.29a.06.06 0 0 0-.09 0h.09ZM32.13 13.79a.09.09 0 0 0 0-.05.06.06 0 0 0-.08 0 .06.06 0 0 0 0 .05.05.05 0 0 0 .08 0Zm-.69 2a.05.05 0 0 0-.08 0 .06.06 0 0 0 0 .05s.06-.05.08-.05Zm.23-.25a.06.06 0 0 0-.09 0 .07.07 0 0 0 .06.06Z"/><path class="cls-6" d="M31.9 14a.09.09 0 0 0 0-.05.05.05 0 0 0-.08 0"/><path class="cls-9" d="M31.9 14a.09.09 0 0 0 0-.05.05.05 0 0 0-.08 0ZM31.44 14.54a.05.05 0 0 0 0-.08h-.08a.05.05 0 0 0 0 .08s.06 0 .08 0Zm.23-.25v-.05a.05.05 0 0 0-.08 0 .06.06 0 0 0 0 .1Z"/></g><g class="cls-12"><path class="cls-6" d="M48.68 18.05a.06.06 0 0 0 0-.09.06.06 0 0 0-.08 0 .09.09 0 0 0 0 .05"/><path class="cls-5" d="M48.68 18.05a.06.06 0 0 0 0-.09.06.06 0 0 0-.08 0 .09.09 0 0 0 0 .05Z"/><path class="cls-6" d="M48.45 18.3a.06.06 0 0 0 0-.05s-.07 0-.09 0a.09.09 0 0 0 0 .05"/><path class="cls-5" d="M48.45 18.3a.06.06 0 0 0 0-.05s-.07 0-.09 0a.09.09 0 0 0 0 .05Z"/><path class="cls-6" d="M48.22 18.55h.05a.07.07 0 0 0 0-.05s0 0-.08 0a.09.09 0 0 0 0 .05"/><path class="cls-5" d="M48.22 18.55h.05a.07.07 0 0 0 0-.05s0 0-.08 0a.09.09 0 0 0 0 .05Z"/><path class="cls-6" d="M48 18.8a.07.07 0 0 0 0-.05.05.05 0 0 0-.08 0s0 0 0 .05"/><path class="cls-7" d="M48 18.8a.07.07 0 0 0 0-.05.05.05 0 0 0-.08 0s0 0 0 .05.08 0 .08 0Z"/><path class="cls-6" d="M48.69 16.79a.09.09 0 0 0 0-.05.06.06 0 0 0-.09 0 .06.06 0 0 0 0 .05"/><path class="cls-7" d="M48.69 16.79a.09.09 0 0 0 0-.05.06.06 0 0 0-.09 0 .06.06 0 0 0 0 .05Z"/><path class="cls-6" d="M48.46 17a.09.09 0 0 0 0-.05.06.06 0 0 0-.09 0 .43.43 0 0 0 0 .05h.05"/><path class="cls-7" d="M48.46 17a.09.09 0 0 0 0-.05.06.06 0 0 0-.09 0 .43.43 0 0 0 0 .05Z"/><path class="cls-6" d="M48.23 17.29a.09.09 0 0 0 0-.05.06.06 0 0 0-.1 0 .08.08 0 0 0 0 .05"/><path class="cls-7" d="M48.23 17.29a.09.09 0 0 0 0-.05.06.06 0 0 0-.1 0 .08.08 0 0 0 0 .05Z"/><path class="cls-6" d="M48 17.54a.09.09 0 0 0 0-.05.06.06 0 0 0-.08 0 .08.08 0 0 0 0 .05"/><path class="cls-8" d="M48 17.54a.09.09 0 0 0 0-.05.06.06 0 0 0-.08 0 .08.08 0 0 0 0 .05Z"/><path class="cls-6" d="M47.77 17.8v-.05a.05.05 0 0 0-.08 0s0 0 0 .05"/><path class="cls-8" d="M47.77 17.8v-.05a.05.05 0 0 0-.08 0s0 0 0 .05a.05.05 0 0 0 .08 0Z"/><path class="cls-6" d="M47.54 18.05V18a.06.06 0 0 0-.08 0s0 0 0 .05"/><path class="cls-8" d="M47.54 18.05V18a.06.06 0 0 0-.08 0s0 0 0 .05Z"/><path class="cls-6" d="M47.31 18.3v-.05a.05.05 0 0 0-.08 0 .06.06 0 0 0 0 .09"/><path class="cls-9" d="M47.31 18.3v-.05a.05.05 0 0 0-.08 0 .06.06 0 0 0 0 .09Z"/><path class="cls-6" d="M47.08 18.55a.06.06 0 0 0 0-.09.06.06 0 0 0-.08 0 .06.06 0 0 0 0 .09"/><path class="cls-9" d="M47.08 18.55a.06.06 0 0 0 0-.09.06.06 0 0 0-.08 0 .06.06 0 0 0 0 .09Z"/><path class="cls-6" d="M46.85 18.8a.06.06 0 0 0 0-.09.06.06 0 0 0-.08 0 .06.06 0 0 0 0 .09"/><path class="cls-9" d="M46.85 18.8a.06.06 0 0 0 0-.09.06.06 0 0 0-.08 0 .06.06 0 0 0 0 .09Z"/><path class="cls-6" d="M48.69 15.54h-.08a.05.05 0 0 0 0 .08"/><path class="cls-9" d="M48.69 15.54h-.08a.05.05 0 0 0 0 .08s.06-.08.08-.08Z"/><path class="cls-6" d="M48.46 15.79v-.08h-.08v.08"/><path class="cls-9" d="M48.46 15.79v-.08h-.08v.08h.08Z"/><path class="cls-6" d="M48.23 16v-.08h-.08V16"/><path class="cls-9" d="M48.23 16v-.08h-.08V16h.08Z"/><path class="cls-6" d="M48 16.29v-.05h-.08v.05"/><path class="cls-9" d="M48 16.29v-.05h-.08v.05Z"/><path class="cls-6" d="M47.77 16.54v-.05h-.08v.05"/><path class="cls-9" d="M47.77 16.54v-.05h-.08v.05Z"/><path class="cls-6" d="M47.54 16.79v-.05h-.08v.05"/><path class="cls-9" d="M47.54 16.79v-.05h-.08v.05Z"/><path class="cls-6" d="M47.31 17v-.05h-.08V17"/><path class="cls-9" d="M47.31 17v-.05h-.08V17Z"/><path class="cls-6" d="M47.08 17.29v-.05a.06.06 0 0 0-.08 0 .08.08 0 0 0 0 .05"/><path class="cls-9" d="M47.08 17.29v-.05a.06.06 0 0 0-.08 0 .08.08 0 0 0 0 .05Z"/><path class="cls-6" d="M46.85 17.54a.06.06 0 0 0 0-.05.06.06 0 0 0-.09 0 .07.07 0 0 0 0 .05"/><path class="cls-9" d="M46.85 17.54a.06.06 0 0 0 0-.05.06.06 0 0 0-.09 0 .07.07 0 0 0 0 .05Z"/><path class="cls-6" d="M46.62 17.8h.05a.09.09 0 0 0 0-.05s-.07 0-.09 0a.09.09 0 0 0 0 .05"/><path class="cls-9" d="M46.62 17.8h.05a.09.09 0 0 0 0-.05s-.07 0-.09 0a.09.09 0 0 0 0 .05Z"/><path class="cls-6" d="M46.4 18.05a.09.09 0 0 0 0-.05s0 0-.08 0a.09.09 0 0 0 0 .05"/><path class="cls-9" d="M46.4 18.05a.09.09 0 0 0 0-.05s0 0-.08 0a.09.09 0 0 0 0 .05Z"/><path class="cls-6" d="M46.17 18.3a.09.09 0 0 0 0-.05.06.06 0 0 0-.08 0s0 0 0 .05"/><path class="cls-9" d="M46.17 18.3a.09.09 0 0 0 0-.05.06.06 0 0 0-.08 0s0 0 0 .05a.05.05 0 0 0 .08 0Z"/><path class="cls-6" d="M45.94 18.55a.07.07 0 0 0 0-.05.06.06 0 0 0-.08 0s0 0 0 .05"/><path class="cls-9" d="M45.94 18.55a.07.07 0 0 0 0-.05.06.06 0 0 0-.08 0s0 0 0 .05Z"/><path class="cls-6" d="M45.71 18.8a.07.07 0 0 0 0-.05.05.05 0 0 0-.09 0 .06.06 0 0 0 0 .09"/><path class="cls-9" d="M45.71 18.8a.07.07 0 0 0 0-.05.05.05 0 0 0-.09 0 .06.06 0 0 0 0 .09.05.05 0 0 0 .09-.04Z"/><path class="cls-6" d="M48.69 14.29a.05.05 0 0 0-.08 0s0 0 0 .05"/><path class="cls-9" d="M48.69 14.29a.05.05 0 0 0-.08 0s0 0 0 .05.06-.05.08-.05Z"/><path class="cls-6" d="M48.46 14.54v-.05a.05.05 0 0 0-.08 0v.08"/><path class="cls-9" d="M48.46 14.54v-.05a.05.05 0 0 0-.08 0v.08s.06-.03.08-.03Z"/><path class="cls-6" d="M48.23 14.79v-.08h-.08"/><path class="cls-9" d="M48.23 14.79v-.08h-.08Z"/><path class="cls-6" d="M48 15a.06.06 0 0 0 0-.1h-.08a.05.05 0 0 0 .08.1"/><path class="cls-9" d="M48 15a.06.06 0 0 0 0-.1h-.08a.05.05 0 0 0 .08.1Z"/><path class="cls-6" d="M47.77 15.29v-.05a.05.05 0 0 0-.08 0"/><path class="cls-9" d="M47.77 15.29v-.05a.05.05 0 0 0-.08 0l.08.05Z"/><path class="cls-6" d="M47.54 15.54h-.08"/><path class="cls-9" d="M47.54 15.54h-.08.08Z"/><path class="cls-6" d="M47.31 15.79h-.08"/><path class="cls-9" d="M47.31 15.79h-.08.08Z"/><path class="cls-6" d="M47.08 16a.06.06 0 0 0 .05 0 .05.05 0 0 0-.08 0"/><path class="cls-9" d="M47.08 16a.06.06 0 0 0 .05 0 .05.05 0 0 0-.08 0h.03Z"/><path class="cls-6" d="M46.86 16.29h-.08"/><path class="cls-9" d="M46.86 16.29h-.08.08Z"/><path class="cls-6" d="M46.63 16.54a.09.09 0 0 0 0-.05.06.06 0 0 0-.09 0 .06.06 0 0 0 0 .05"/><path class="cls-9" d="M46.63 16.54a.09.09 0 0 0 0-.05.06.06 0 0 0-.09 0 .06.06 0 0 0 0 .05Z"/><path class="cls-6" d="M46.4 16.79a.06.06 0 0 0 0-.09h-.08v.05"/><path class="cls-9" d="M46.4 16.79a.06.06 0 0 0 0-.09h-.08v.05Z"/><path class="cls-6" d="M46.17 17a.07.07 0 0 0 0-.05h-.08V17"/><path class="cls-9" d="M46.17 17a.07.07 0 0 0 0-.05h-.08V17Z"/><path class="cls-6" d="M45.94 17.29a.06.06 0 0 0 0-.09.06.06 0 0 0-.1 0 .08.08 0 0 0 0 .05"/><path class="cls-9" d="M45.94 17.29a.06.06 0 0 0 0-.09.06.06 0 0 0-.1 0 .08.08 0 0 0 0 .05Z"/><path class="cls-6" d="M45.71 17.54a.08.08 0 0 0 0-.05.06.06 0 0 0-.08 0 .08.08 0 0 0 0 .05"/><path class="cls-9" d="M45.71 17.54a.08.08 0 0 0 0-.05.06.06 0 0 0-.08 0 .08.08 0 0 0 0 .05Z"/><path class="cls-6" d="M45.48 17.8a.06.06 0 0 0 0-.09h-.08v.05"/><path class="cls-9" d="M45.48 17.8a.06.06 0 0 0 0-.09h-.08v.05Z"/><path class="cls-6" d="M45.25 18.05a.06.06 0 0 0 0-.09.06.06 0 0 0-.08 0s0 0 0 .05"/><path class="cls-9" d="M45.25 18.05a.06.06 0 0 0 0-.09.06.06 0 0 0-.08 0s0 0 0 .05Z"/><path class="cls-6" d="M45 18.3a.06.06 0 0 0 0-.09.05.05 0 0 0-.08 0s0 0 0 .05"/><path class="cls-9" d="M45 18.3a.06.06 0 0 0 0-.09.05.05 0 0 0-.08 0s0 0 0 .05Z"/><path class="cls-6" d="M44.79 18.55a.06.06 0 0 0 0-.09s-.06 0-.08 0a.06.06 0 0 0 0 .09"/><path class="cls-9" d="M44.79 18.55a.06.06 0 0 0 0-.09s-.06 0-.08 0a.06.06 0 0 0 0 .09Z"/><path class="cls-6" d="M44.56 18.8v-.05a.06.06 0 0 0-.08 0 .07.07 0 0 0 0 .05"/><path class="cls-9" d="M44.56 18.8v-.05a.06.06 0 0 0-.08 0 .07.07 0 0 0 0 .05ZM48 13.79v-.05a.06.06 0 0 0-.08 0 .07.07 0 0 0 0 .05Z"/><path class="cls-6" d="M47.77 14a.06.06 0 0 0 0-.05.05.05 0 0 0-.08 0"/><path class="cls-9" d="M47.77 14a.06.06 0 0 0 0-.05.05.05 0 0 0-.08 0Z"/><path class="cls-6" d="M47.55 14.29h-.08a.06.06 0 0 0 0 .05"/><path class="cls-9" d="M47.55 14.29h-.08a.06.06 0 0 0 0 .05Z"/><path class="cls-6" d="M47.31 14.54a.06.06 0 0 0-.09 0"/><path class="cls-9" d="M47.31 14.54a.06.06 0 0 0-.09 0h.09Z"/><path class="cls-6" d="M47.09 14.79h-.08"/><path class="cls-9" d="M47.09 14.79h-.08.08Z"/><path class="cls-6" d="M46.86 15h-.08v.08"/><path class="cls-9" d="M46.86 15h-.08v.08Z"/><path class="cls-6" d="M46.63 15.29v-.05a.05.05 0 0 0-.08 0v.08"/><path class="cls-9" d="M46.63 15.29v-.05a.05.05 0 0 0-.08 0v.08s.06-.03.08-.03Z"/><path class="cls-6" d="M46.4 15.54v-.08h-.08a.05.05 0 0 0 0 .08"/><path class="cls-9" d="M46.4 15.54v-.08h-.08a.05.05 0 0 0 0 .08s.06 0 .08 0Z"/><path class="cls-6" d="M46.17 15.79v-.08h-.08a.05.05 0 0 0 0 .08"/><path class="cls-9" d="M46.17 15.79v-.08h-.08a.05.05 0 0 0 0 .08h.08Z"/><path class="cls-6" d="M45.94 16v-.08h-.08v.05"/><path class="cls-9" d="M45.94 16v-.08h-.08v.05Z"/><path class="cls-6" d="M45.71 16.29h-.08v.05"/><path class="cls-9" d="M45.71 16.29h-.08v.05Z"/><path class="cls-6" d="M45.48 16.54v-.05h-.08a.07.07 0 0 0 0 .05"/><path class="cls-9" d="M45.48 16.54v-.05h-.08a.07.07 0 0 0 0 .05Z"/><path class="cls-6" d="M45.25 16.79a.06.06 0 0 0 0-.09h-.08a.07.07 0 0 0 0 .05"/><path class="cls-9" d="M45.25 16.79a.06.06 0 0 0 0-.09h-.08a.07.07 0 0 0 0 .05Z"/><path class="cls-6" d="M45 17a.43.43 0 0 0 0-.05s-.06 0-.08 0A.07.07 0 0 0 45 17"/><path class="cls-9" d="M45 17a.43.43 0 0 0 0-.05s-.06 0-.08 0A.07.07 0 0 0 45 17Z"/><path class="cls-6" d="M44.79 17.29h.05a.07.07 0 0 0 0-.05.05.05 0 0 0-.09 0 .09.09 0 0 0 0 .05"/><path class="cls-9" d="M44.79 17.29h.05a.07.07 0 0 0 0-.05.05.05 0 0 0-.09 0 .09.09 0 0 0 0 .05Z"/><path class="cls-6" d="M44.57 17.54a.07.07 0 0 0 0-.05.06.06 0 0 0-.08 0s0 0 0 .05"/><path class="cls-9" d="M44.57 17.54a.07.07 0 0 0 0-.05.06.06 0 0 0-.08 0s0 0 0 .05Z"/><path class="cls-6" d="M44.34 17.8a.09.09 0 0 0 0-.05.06.06 0 0 0-.09 0s0 0 0 .05h.05"/><path class="cls-9" d="M44.34 17.8a.09.09 0 0 0 0-.05.06.06 0 0 0-.09 0s0 0 0 .05Z"/><path class="cls-6" d="M44.11 18.05a.06.06 0 0 0 0-.09.06.06 0 0 0-.08 0s0 0 0 .05"/><path class="cls-9" d="M44.11 18.05a.06.06 0 0 0 0-.09.06.06 0 0 0-.08 0s0 0 0 .05Z"/><path class="cls-6" d="M43.88 18.3a.07.07 0 0 0 0-.05.06.06 0 0 0-.08 0 .06.06 0 0 0 0 .09"/><path class="cls-9" d="M43.88 18.3a.07.07 0 0 0 0-.05.06.06 0 0 0-.08 0 .06.06 0 0 0 0 .09.05.05 0 0 0 .08-.04Z"/><path class="cls-6" d="M43.65 18.55a.06.06 0 0 0 0-.09.06.06 0 0 0-.08 0s0 0 0 .05"/><path class="cls-9" d="M43.65 18.55a.06.06 0 0 0 0-.09.06.06 0 0 0-.08 0s0 0 0 .05Z"/><path class="cls-6" d="M43.42 18.8a.06.06 0 0 0 0-.09.06.06 0 0 0-.08 0 .06.06 0 0 0 0 .09"/><path class="cls-9" d="M43.42 18.8a.06.06 0 0 0 0-.09.06.06 0 0 0-.08 0 .06.06 0 0 0 0 .09.05.05 0 0 0 .08 0ZM46.86 13.79v-.05a.06.06 0 0 0-.08 0s0 0 0 .05Z"/><path class="cls-6" d="M46.63 14v-.05a.05.05 0 0 0-.08 0"/><path class="cls-9" d="M46.63 14v-.05a.05.05 0 0 0-.08 0Z"/><path class="cls-6" d="M46.4 14.29a.07.07 0 0 0 .06-.06s0 0 0-.05a.05.05 0 0 0-.08 0 .05.05 0 0 0 0 .08"/><path class="cls-9" d="M46.4 14.29a.07.07 0 0 0 .06-.06s0 0 0-.05a.05.05 0 0 0-.08 0 .05.05 0 0 0 0 .08l.02.03Z"/><path class="cls-6" d="M46.17 14.54v-.05a.05.05 0 0 0-.08 0 .05.05 0 0 0 0 .08"/><path class="cls-9" d="M46.17 14.54v-.05a.05.05 0 0 0-.08 0 .05.05 0 0 0 0 .08l.08-.03Z"/><path class="cls-6" d="M45.94 14.79v-.08h-.08"/><path class="cls-9" d="M45.94 14.79v-.08h-.08Z"/><path class="cls-6" d="M45.71 15h-.08"/><path class="cls-9" d="M45.71 15h-.08Z"/><path class="cls-6" d="M45.48 15.29h-.08c-.03 0 0 0 0 0"/><path class="cls-9" d="M45.48 15.29h-.08c-.03 0 0 0 0 0h.08Z"/><path class="cls-6" d="M45.26 15.54a.06.06 0 0 0-.09 0"/><path class="cls-9" d="M45.26 15.54a.06.06 0 0 0-.09 0Z"/><path class="cls-6" d="M45 15.79h-.08a.06.06 0 0 0 0 .05"/><path class="cls-9" d="M45 15.79h-.08a.06.06 0 0 0 0 .05Z"/><path class="cls-6" d="M44.8 16h-.08v.05"/><path class="cls-9" d="M44.8 16h-.08v.05Z"/><path class="cls-6" d="M44.57 16.29h-.08v.05"/><path class="cls-9" d="M44.57 16.29h-.08v.05Z"/><path class="cls-6" d="M44.34 16.54v-.05a.05.05 0 0 0-.08 0s0 0 0 .05"/><path class="cls-9" d="M44.34 16.54v-.05a.05.05 0 0 0-.08 0s0 0 0 .05Z"/><path class="cls-6" d="M44.11 16.79v-.05h-.08v.05"/><path class="cls-9" d="M44.11 16.79v-.05h-.08v.05Z"/><path class="cls-6" d="M43.88 17a.06.06 0 0 0 0-.09h-.08a.06.06 0 0 0 0 .09"/><path class="cls-9" d="M43.88 17a.06.06 0 0 0 0-.09h-.08a.06.06 0 0 0 0 .09Z"/><path class="cls-6" d="M43.65 17.29a.08.08 0 0 0 0-.05.06.06 0 0 0-.08 0 .08.08 0 0 0 0 .05"/><path class="cls-9" d="M43.65 17.29a.08.08 0 0 0 0-.05.06.06 0 0 0-.08 0 .08.08 0 0 0 0 .05Z"/><path class="cls-6" d="M43.42 17.54a.08.08 0 0 0 0-.05.06.06 0 0 0-.08 0 .08.08 0 0 0 0 .05"/><path class="cls-9" d="M43.42 17.54a.08.08 0 0 0 0-.05.06.06 0 0 0-.08 0 .08.08 0 0 0 0 .05Z"/><path class="cls-6" d="M43.19 17.8v-.05a.06.06 0 0 0-.1 0 .09.09 0 0 0 0 .05"/><path class="cls-9" d="M43.19 17.8v-.05a.06.06 0 0 0-.1 0 .09.09 0 0 0 0 .05Z"/><path class="cls-6" d="M43 18.05V18a.05.05 0 0 0-.09 0 .09.09 0 0 0 0 .05"/><path class="cls-9" d="M43 18.05V18a.05.05 0 0 0-.09 0 .09.09 0 0 0 0 .05Z"/><path class="cls-6" d="M42.73 18.3h.05a.43.43 0 0 0 0-.05.05.05 0 0 0-.08 0 .07.07 0 0 0 0 .05"/><path class="cls-9" d="M42.73 18.3h.05a.43.43 0 0 0 0-.05.05.05 0 0 0-.08 0 .07.07 0 0 0 0 .05Z"/><path class="cls-6" d="M42.5 18.55a.07.07 0 0 0 0-.05.05.05 0 0 0-.08 0 .07.07 0 0 0 0 .05"/><path class="cls-9" d="M42.5 18.55a.07.07 0 0 0 0-.05.05.05 0 0 0-.08 0 .07.07 0 0 0 0 .05Z"/><path class="cls-6" d="M42.28 18.8a.07.07 0 0 0 0-.05.07.07 0 0 0-.09 0s0 0 0 .05"/><path class="cls-9" d="M42.28 18.8a.07.07 0 0 0 0-.05.07.07 0 0 0-.09 0s0 0 0 .05a.05.05 0 0 0 .09 0ZM45.72 13.79a.09.09 0 0 0 0-.05.06.06 0 0 0-.08 0 .06.06 0 0 0 0 .05Z"/><path class="cls-6" d="M45.49 14a.09.09 0 0 0 0-.05.06.06 0 0 0-.09 0"/><path class="cls-9" d="M45.49 14a.09.09 0 0 0 0-.05.06.06 0 0 0-.09 0 .05.05 0 0 0 .09.05Z"/><path class="cls-6" d="M45.26 14.29v-.05a.05.05 0 0 0-.08 0v.08"/><path class="cls-9" d="M45.26 14.29v-.05a.05.05 0 0 0-.08 0v.08Z"/><path class="cls-6" d="M45 14.54h-.08a.05.05 0 0 0 0 .08"/><path class="cls-9" d="M45 14.54h-.08a.05.05 0 0 0 0 .08s.08-.08.08-.08Z"/><path class="cls-6" d="M44.8 14.79v-.08h-.08v.08"/><path class="cls-9" d="M44.8 14.79v-.08h-.08v.08h.08Z"/><path class="cls-6" d="M44.57 15v-.08h-.08"/><path class="cls-9" d="M44.57 15v-.08h-.08s.06.08.08.08Z"/><path class="cls-6" d="M44.34 15.29v-.05a.06.06 0 0 0-.08 0s0 0 0 .05"/><path class="cls-9" d="M44.34 15.29v-.05a.06.06 0 0 0-.08 0s0 0 0 .05h.08Z"/><path class="cls-6" d="M44.11 15.54a.06.06 0 0 0 0-.1h-.08v.08"/><path class="cls-9" d="M44.11 15.54a.06.06 0 0 0 0-.1h-.08v.08Z"/><path class="cls-6" d="M43.88 15.79v-.08h-.08v.08"/><path class="cls-9" d="M43.88 15.79v-.08h-.08v.08h.08Z"/><path class="cls-6" d="M43.65 16v-.05a.06.06 0 0 0-.1 0"/><path class="cls-9" d="M43.65 16v-.05a.06.06 0 0 0-.1 0l.1.05Z"/><path class="cls-6" d="M43.42 16.29a.06.06 0 0 0-.08-.08"/><path class="cls-9" d="M43.42 16.29a.06.06 0 0 0-.08-.08l.08.08Z"/><path class="cls-6" d="M43.19 16.54h.05a.07.07 0 0 0 0-.05.06.06 0 0 0-.09 0 .09.09 0 0 0 0 .05"/><path class="cls-9" d="M43.19 16.54h.05a.07.07 0 0 0 0-.05.06.06 0 0 0-.09 0 .09.09 0 0 0 0 .05Z"/><path class="cls-6" d="M43 16.79a.09.09 0 0 0 0-.05.06.06 0 0 0-.09 0 .09.09 0 0 0 0 .05"/><path class="cls-9" d="M43 16.79a.09.09 0 0 0 0-.05.06.06 0 0 0-.09 0 .09.09 0 0 0 0 .05Z"/><path class="cls-6" d="M42.74 17a.07.07 0 0 0 0-.05h-.08a.06.06 0 0 0 0 .05"/><path class="cls-9" d="M42.74 17a.07.07 0 0 0 0-.05h-.08a.06.06 0 0 0 0 .05Z"/><path class="cls-6" d="M42.51 17.29a.07.07 0 0 0 0-.05.06.06 0 0 0-.08 0 .08.08 0 0 0 0 .05"/><path class="cls-9" d="M42.51 17.29a.07.07 0 0 0 0-.05.06.06 0 0 0-.08 0 .08.08 0 0 0 0 .05Z"/><path class="cls-6" d="M42.28 17.54a.08.08 0 0 0 0-.05.06.06 0 0 0-.08 0 .06.06 0 0 0 0 .09"/><path class="cls-9" d="M42.28 17.54a.08.08 0 0 0 0-.05.06.06 0 0 0-.08 0 .06.06 0 0 0 0 .09Z"/><path class="cls-6" d="M42.05 17.8a.08.08 0 0 0 0-.05.06.06 0 0 0-.1 0s0 0 0 .05"/><path class="cls-9" d="M42.05 17.8a.08.08 0 0 0 0-.05.06.06 0 0 0-.1 0s0 0 0 .05Z"/><path class="cls-6" d="M41.82 18.05V18a.06.06 0 0 0-.08 0s0 0 0 .05"/><path class="cls-9" d="M41.82 18.05V18a.06.06 0 0 0-.08 0s0 0 0 .05Z"/><path class="cls-6" d="M41.59 18.3a.06.06 0 0 0 0-.09.05.05 0 0 0-.08 0s0 0 0 .05"/><path class="cls-9" d="M41.59 18.3a.06.06 0 0 0 0-.09.05.05 0 0 0-.08 0s0 0 0 .05Z"/><path class="cls-6" d="M41.36 18.55a.06.06 0 0 0 0-.09.06.06 0 0 0-.08 0 .06.06 0 0 0 0 .09"/><path class="cls-9" d="M41.36 18.55a.06.06 0 0 0 0-.09.06.06 0 0 0-.08 0 .06.06 0 0 0 0 .09Z"/><path class="cls-6" d="M41.13 18.8a.06.06 0 0 0 0-.09.06.06 0 0 0-.08 0s0 0 0 .05"/><path class="cls-9" d="M41.13 18.8a.06.06 0 0 0 0-.09.06.06 0 0 0-.08 0s0 0 0 .05ZM44.57 13.79a.07.07 0 0 0 .06-.06.08.08 0 0 0 0-.05.06.06 0 0 0-.08 0s0 0 0 .05Z"/><path class="cls-6" d="M44.34 14a.08.08 0 0 0 0-.05s-.06 0-.08 0"/><path class="cls-9" d="M44.34 14a.08.08 0 0 0 0-.05s-.06 0-.08 0Z"/><path class="cls-6" d="M44.11 14.29a.07.07 0 0 0 .06-.06s0 0 0-.05a.06.06 0 0 0-.08 0 .09.09 0 0 0 0 .05"/><path class="cls-9" d="M44.11 14.29a.07.07 0 0 0 .06-.06s0 0 0-.05a.06.06 0 0 0-.08 0 .09.09 0 0 0 0 .05Z"/><path class="cls-6" d="M43.88 14.54a.06.06 0 0 0-.09 0"/><path class="cls-9" d="M43.88 14.54a.06.06 0 0 0-.09 0h.09Z"/><path class="cls-6" d="M43.65 14.79a.06.06 0 0 0 .05 0h-.08c-.08 0 0 0 0 0"/><path class="cls-9" d="M43.65 14.79a.06.06 0 0 0 .05 0h-.08c-.08 0 0 0 0 0h.03Z"/><path class="cls-6" d="M43.43 15h-.08c-.02 0 0 0 0 0"/><path class="cls-9" d="M43.43 15h-.08c-.02 0 0 0 0 0h.08Z"/><path class="cls-6" d="M43.2 15.29h-.08.05"/><path class="cls-9" d="M43.2 15.29h-.08a.06.06 0 0 0 .08 0Z"/><path class="cls-6" d="M43 15.54v-.08h-.08a.05.05 0 0 0 0 .08"/><path class="cls-9" d="M43 15.54v-.08h-.08a.05.05 0 0 0 0 .08s.08 0 .08 0Z"/><path class="cls-6" d="M42.74 15.79a.09.09 0 0 0 0-.05.05.05 0 0 0-.08 0"/><path class="cls-9" d="M42.74 15.79a.09.09 0 0 0 0-.05.05.05 0 0 0-.08 0Z"/><path class="cls-6" d="M42.51 16v-.05a.06.06 0 1 0-.1 0"/><path class="cls-9" d="M42.51 16v-.05a.06.06 0 1 0-.1 0l.1.05Z"/><path class="cls-6" d="M42.28 16.3a.06.06 0 1 0-.1 0s0 0 0 .05"/><path class="cls-9" d="M42.28 16.3a.06.06 0 1 0-.1 0s0 0 0 .05a.05.05 0 0 0 .1-.05Z"/><path class="cls-6" d="M42.05 16.54v-.05h-.08v.05"/><path class="cls-9" d="M42.05 16.54v-.05h-.08v.05Z"/><path class="cls-6" d="M41.82 16.79v-.05h-.08v.05"/><path class="cls-9" d="M41.82 16.79v-.05h-.08v.05Z"/><path class="cls-6" d="M41.59 17a.06.06 0 0 0 0-.09h-.08a.07.07 0 0 0 0 .05"/><path class="cls-9" d="M41.59 17a.06.06 0 0 0 0-.09h-.08a.07.07 0 0 0 0 .05Z"/><path class="cls-6" d="M41.36 17.29v-.05a.05.05 0 0 0-.08 0 .09.09 0 0 0 0 .05"/><path class="cls-9" d="M41.36 17.29v-.05a.05.05 0 0 0-.08 0 .09.09 0 0 0 0 .05Z"/><path class="cls-6" d="M41.13 17.54v-.05c0-.05 0 0 0 0a.06.06 0 0 0-.08 0 .07.07 0 0 0 0 .05"/><path class="cls-9" d="M41.13 17.54v-.05c0-.05 0 0 0 0a.06.06 0 0 0-.08 0 .07.07 0 0 0 0 .05Z"/><path class="cls-6" d="M40.91 17.8a.09.09 0 0 0 0-.05s-.06 0-.08 0a.09.09 0 0 0 0 .05"/><path class="cls-9" d="M40.91 17.8a.09.09 0 0 0 0-.05s-.06 0-.08 0a.09.09 0 0 0 0 .05Z"/><path class="cls-6" d="M40.68 18.05V18h-.08a.09.09 0 0 0 0 .05"/><path class="cls-9" d="M40.68 18.05V18h-.08a.09.09 0 0 0 0 .05Z"/><path class="cls-6" d="M40.45 18.3v-.05a.05.05 0 0 0-.08 0 .06.06 0 0 0 0 .05"/><path class="cls-9" d="M40.45 18.3v-.05a.05.05 0 0 0-.08 0 .06.06 0 0 0 0 .05.05.05 0 0 0 .08 0Z"/><path class="cls-6" d="M40.22 18.55a.07.07 0 0 0 0-.05.06.06 0 0 0-.08 0s0 0 0 .05"/><path class="cls-9" d="M40.22 18.55a.07.07 0 0 0 0-.05.06.06 0 0 0-.08 0s0 0 0 .05Z"/><path class="cls-6" d="M40 18.8a.06.06 0 0 0 0-.09.06.06 0 0 0-.08 0s0 0 0 .05"/><path class="cls-9" d="M40 18.8a.06.06 0 0 0 0-.09.06.06 0 0 0-.08 0s0 0 0 .05a.05.05 0 0 0 .08.04Z"/></g><g class="cls-13"><path class="cls-5" d="M50.15 28.69a.07.07 0 0 0 0-.05.06.06 0 0 0-.08 0 .06.06 0 0 0 0 .09Zm0 1.25a.06.06 0 1 0-.11 0Z"/><path class="cls-6" d="M49.92 28.94a.06.06 0 0 0 0-.09.06.06 0 0 0-.08 0 .06.06 0 0 0 0 .09"/><path class="cls-5" d="M49.92 28.94a.06.06 0 0 0 0-.09.06.06 0 0 0-.08 0 .06.06 0 0 0 0 .09.05.05 0 0 0 .08 0Z"/><path class="cls-6" d="M49.69 29.19a.06.06 0 0 0 0-.09.06.06 0 0 0-.08 0 .06.06 0 0 0 0 .09"/><path class="cls-5" d="M49.69 29.19a.06.06 0 0 0 0-.09.06.06 0 0 0-.08 0 .06.06 0 0 0 0 .09Z"/><path class="cls-6" d="M49.46 29.44a.06.06 0 0 0 0-.09.06.06 0 0 0-.08 0 .06.06 0 0 0 0 .09"/><path class="cls-7" d="M49.46 29.44a.06.06 0 0 0 0-.09.06.06 0 0 0-.08 0 .06.06 0 0 0 0 .09Z"/><path class="cls-6" d="M49.23 29.69a.06.06 0 0 0 0-.09.06.06 0 0 0-.08 0 .06.06 0 0 0 0 .09"/><path class="cls-7" d="M49.23 29.69a.06.06 0 0 0 0-.09.06.06 0 0 0-.08 0 .06.06 0 0 0 0 .09Z"/><path class="cls-6" d="M49 29.94a.06.06 0 0 0 0-.09.06.06 0 0 0-.08 0 .06.06 0 0 0 0 .09"/><path class="cls-7" d="M49 29.94a.06.06 0 0 0 0-.09.06.06 0 0 0-.08 0 .06.06 0 0 0 0 .09Z"/><path class="cls-6" d="M48.78 30.19a.06.06 0 0 0 0-.09.06.06 0 0 0-.08 0 .06.06 0 0 0 0 .09"/><path class="cls-7" d="M48.78 30.19a.06.06 0 0 0 0-.09.06.06 0 0 0-.08 0 .06.06 0 0 0 0 .09Z"/></g><g class="cls-12"><path class="cls-5" d="M43.43 13.79a.07.07 0 0 0 0-.05.06.06 0 0 0-.08 0s0 0 0 .05a.05.05 0 0 0 .08 0Z"/><path class="cls-6" d="M43.2 14v-.05a.06.06 0 0 0-.08 0s0 0 0 .05"/><path class="cls-5" d="M43.2 14v-.05a.06.06 0 0 0-.08 0s0 0 0 .05Z"/><path class="cls-6" d="M43 14.29a.07.07 0 0 0 .06-.06s0 0 0-.05a.05.05 0 0 0-.08 0 .05.05 0 0 0 0 .08"/><path class="cls-5" d="M43 14.29a.07.07 0 0 0 .06-.06s0 0 0-.05a.05.05 0 0 0-.08 0 .05.05 0 0 0 0 .08s.02.03.02.03Z"/><path class="cls-6" d="M42.74 14.54v-.05a.05.05 0 0 0-.08 0 .05.05 0 0 0 0 .08"/><path class="cls-7" d="M42.74 14.54v-.05a.05.05 0 0 0-.08 0 .05.05 0 0 0 0 .08l.08-.03Z"/><path class="cls-6" d="M42.51 14.79v-.08a.05.05 0 0 0-.08 0s0 0 0 .05"/><path class="cls-7" d="M42.51 14.79v-.08a.05.05 0 0 0-.08 0s0 0 0 .05l.08.03Z"/><path class="cls-6" d="M42.28 15v-.08h-.08"/><path class="cls-7" d="M42.28 15v-.08h-.08l.08.08Z"/><path class="cls-6" d="M42.05 15.29v-.05a.06.06 0 0 0-.08 0 .09.09 0 0 0 0 .05"/><path class="cls-7" d="M42.05 15.29v-.05a.06.06 0 0 0-.08 0 .09.09 0 0 0 0 .05h.08Z"/><path class="cls-6" d="M41.82 15.54h-.08c-.02 0 0 0 0 0"/><path class="cls-8" d="M41.82 15.54h-.08c-.02 0 0 0 0 0h.08Z"/><path class="cls-6" d="M41.59 15.79a.05.05 0 0 0-.08 0"/><path class="cls-8" d="M41.59 15.79a.05.05 0 0 0-.08 0h.08Z"/><path class="cls-6" d="M41.36 16a.05.05 0 0 0-.08 0"/><path class="cls-8" d="M41.36 16a.05.05 0 0 0-.08 0h.08Z"/><path class="cls-6" d="M41.14 16.29h-.08c-.01 0 0 0 0 0a.06.06 0 0 0 0 .05"/><path class="cls-9" d="M41.14 16.29h-.08c-.01 0 0 0 0 0a.06.06 0 0 0 0 .05Z"/><path class="cls-6" d="M40.91 16.54a.07.07 0 0 0 0-.05.05.05 0 0 0-.08 0s0 0 0 .05"/><path class="cls-9" d="M40.91 16.54a.07.07 0 0 0 0-.05.05.05 0 0 0-.08 0s0 0 0 .05Z"/><path class="cls-6" d="M40.68 16.79a.06.06 0 0 0 0-.09h-.08v.05"/><path class="cls-9" d="M40.68 16.79a.06.06 0 0 0 0-.09h-.08v.05Z"/><path class="cls-6" d="M40.45 17v-.05h-.08a.06.06 0 0 0 0 .09"/><path class="cls-9" d="M40.45 17v-.05h-.08a.06.06 0 0 0 0 .09Z"/><path class="cls-6" d="M40.22 17.29a.08.08 0 0 0 0-.05.06.06 0 0 0-.12 0 .08.08 0 0 0 0 .05"/><path class="cls-9" d="M40.22 17.29a.08.08 0 0 0 0-.05.06.06 0 0 0-.12 0 .08.08 0 0 0 0 .05Z"/><path class="cls-6" d="M40 17.54a.08.08 0 0 0 0-.05.06.06 0 0 0-.08 0 .08.08 0 0 0 0 .05"/><path class="cls-9" d="M40 17.54a.08.08 0 0 0 0-.05.06.06 0 0 0-.08 0 .08.08 0 0 0 0 .05Z"/><path class="cls-6" d="M39.76 17.8v-.05h-.08v.05"/><path class="cls-9" d="M39.76 17.8v-.05h-.08v.05Z"/><path class="cls-6" d="M39.53 18.05a.06.06 0 0 0 0-.09.06.06 0 0 0-.08 0 .06.06 0 0 0 0 .09"/><path class="cls-9" d="M39.53 18.05a.06.06 0 0 0 0-.09.06.06 0 0 0-.08 0 .06.06 0 0 0 0 .09Z"/><path class="cls-6" d="M39.3 18.3a.06.06 0 0 0 0-.09.05.05 0 0 0-.08 0s0 0 0 .05"/><path class="cls-9" d="M39.3 18.3a.06.06 0 0 0 0-.09.05.05 0 0 0-.08 0s0 0 0 .05Z"/><path class="cls-6" d="M39.07 18.55a.06.06 0 0 0 0-.09.06.06 0 0 0-.08 0 .07.07 0 0 0 0 .05"/><path class="cls-9" d="M39.07 18.55a.06.06 0 0 0 0-.09.06.06 0 0 0-.08 0 .07.07 0 0 0 0 .05Z"/><path class="cls-6" d="M38.84 18.8v-.05a.06.06 0 0 0-.08 0 .07.07 0 0 0 0 .05"/><path class="cls-9" d="M38.84 18.8v-.05a.06.06 0 0 0-.08 0 .07.07 0 0 0 0 .05ZM42.28 13.79a.06.06 0 0 0 0-.05.06.06 0 0 0-.08 0 .09.09 0 0 0 0 .05Z"/><path class="cls-6" d="M42.05 14v-.05c0-.05-.05 0-.08 0A.09.09 0 0 0 42 14"/><path class="cls-9" d="M42.05 14v-.05c0-.05-.05 0-.08 0A.09.09 0 0 0 42 14Z"/><path class="cls-6" d="M41.83 14.29a.09.09 0 0 0 0-.05.06.06 0 0 0-.08 0 .06.06 0 0 0 0 .05"/><path class="cls-9" d="M41.83 14.29a.09.09 0 0 0 0-.05.06.06 0 0 0-.08 0 .06.06 0 0 0 0 .05.06.06 0 0 0 .08 0Z"/><path class="cls-6" d="M41.6 14.54a.06.06 0 0 0-.09 0 .06.06 0 0 0 .05 0"/><path class="cls-9" d="M41.6 14.54a.06.06 0 0 0-.09 0 .06.06 0 0 0 .09 0Z"/><path class="cls-6" d="M41.37 14.79h-.08"/><path class="cls-9" d="M41.37 14.79h-.08.08Z"/><path class="cls-6" d="M41.14 15v-.08h-.08"/><path class="cls-9" d="M41.14 15v-.08h-.08s.06.08.08.08Z"/><path class="cls-6" d="M40.91 15.29v-.08a.05.05 0 0 0-.08 0s0 0 0 .05"/><path class="cls-9" d="M40.91 15.29v-.08a.05.05 0 0 0-.08 0s0 0 0 .05.06.03.08.03Z"/><path class="cls-6" d="M40.68 15.54a.06.06 0 0 0 0-.1h-.08a.06.06 0 0 0 0 .1"/><path class="cls-9" d="M40.68 15.54a.06.06 0 0 0 0-.1h-.08a.06.06 0 0 0 0 .1Z"/><path class="cls-6" d="M40.45 15.79h-.08v.08"/><path class="cls-9" d="M40.45 15.79h-.08v.08l.08-.08Z"/><path class="cls-6" d="M40.22 16v-.08h-.08V16"/><path class="cls-9" d="M40.22 16v-.08h-.08V16h.08Z"/><path class="cls-6" d="M40 16.29v-.05h-.08"/><path class="cls-9" d="M40 16.29v-.05h-.08l.08.05Z"/><path class="cls-6" d="M39.76 16.54v-.05h-.08a.09.09 0 0 0 0 .05"/><path class="cls-9" d="M39.76 16.54v-.05h-.08a.09.09 0 0 0 0 .05Z"/><path class="cls-6" d="M39.53 16.79a.06.06 0 0 0 0-.05s0 0-.08 0a.09.09 0 0 0 0 .05"/><path class="cls-9" d="M39.53 16.79a.06.06 0 0 0 0-.05s0 0-.08 0a.09.09 0 0 0 0 .05Z"/><path class="cls-6" d="M39.3 17a.06.06 0 0 0 0-.05.06.06 0 0 0-.09 0 .09.09 0 0 0 0 .05"/><path class="cls-9" d="M39.3 17a.06.06 0 0 0 0-.05.06.06 0 0 0-.09 0 .09.09 0 0 0 0 .05Z"/><path class="cls-6" d="M39.07 17.29a.07.07 0 0 0 0-.05.07.07 0 0 0-.09 0 .43.43 0 0 0 0 .05"/><path class="cls-9" d="M39.07 17.29a.07.07 0 0 0 0-.05.07.07 0 0 0-.09 0 .43.43 0 0 0 0 .05Z"/><path class="cls-6" d="M38.85 17.54a.09.09 0 0 0 0-.05.07.07 0 0 0-.09 0 .09.09 0 0 0 0 .05h.05"/><path class="cls-9" d="M38.85 17.54a.09.09 0 0 0 0-.05.07.07 0 0 0-.09 0 .09.09 0 0 0 0 .05Z"/><path class="cls-6" d="M38.62 17.8a.09.09 0 0 0 0-.05.06.06 0 0 0-.1 0 .08.08 0 0 0 0 .05"/><path class="cls-9" d="M38.62 17.8a.09.09 0 0 0 0-.05.06.06 0 0 0-.1 0 .08.08 0 0 0 0 .05Z"/><path class="cls-6" d="M38.39 18.05V18a.06.06 0 0 0-.08 0 .06.06 0 0 0 0 .09"/><path class="cls-9" d="M38.39 18.05V18a.06.06 0 0 0-.08 0 .06.06 0 0 0 0 .09.05.05 0 0 0 .08-.04Z"/><path class="cls-6" d="M38.16 18.3a.06.06 0 0 0 0-.09.05.05 0 0 0-.08 0 .06.06 0 0 0 0 .09"/><path class="cls-9" d="M38.16 18.3a.06.06 0 0 0 0-.09.05.05 0 0 0-.08 0 .06.06 0 0 0 0 .09Z"/><path class="cls-6" d="M37.93 18.55v-.05a.06.06 0 0 0-.08 0 .06.06 0 0 0 0 .09"/><path class="cls-9" d="M37.93 18.55v-.05a.06.06 0 0 0-.08 0 .06.06 0 0 0 0 .09.05.05 0 0 0 .08-.04Z"/><path class="cls-6" d="M37.7 18.8a.06.06 0 0 0 0-.09.06.06 0 0 0-.08 0 .06.06 0 0 0 0 .09"/><path class="cls-9" d="M37.7 18.8a.06.06 0 0 0 0-.09.06.06 0 0 0-.08 0 .06.06 0 0 0 0 .09.05.05 0 0 0 .08 0ZM41.14 13.79a.08.08 0 0 0 0-.05.06.06 0 0 0-.08 0s0 0 0 .05a.07.07 0 0 0 .06.06Z"/><path class="cls-6" d="M40.91 14a.08.08 0 0 0 0-.05.06.06 0 0 0-.08 0s0 0 0 .05"/><path class="cls-9" d="M40.91 14a.08.08 0 0 0 0-.05.06.06 0 0 0-.08 0s0 0 0 .05Z"/><path class="cls-6" d="M40.68 14.29a.08.08 0 0 0 0-.05.05.05 0 0 0-.08 0 .05.05 0 0 0 0 .08"/><path class="cls-9" d="M40.68 14.29a.08.08 0 0 0 0-.05.05.05 0 0 0-.08 0 .05.05 0 0 0 0 .08l.08-.03Z"/><path class="cls-6" d="M40.45 14.54h-.08v.08"/><path class="cls-9" d="M40.45 14.54v-.08h-.08v.08h.08Z"/><path class="cls-6" d="M40.22 14.79h-.08c-.08 0 0 0 0 0"/><path class="cls-9" d="M40.22 14.79h-.08c-.08 0 0 0 0 0h.08Z"/><path class="cls-6" d="M40 15v-.08h-.08c-.03 0 0 0 0 0"/><path class="cls-9" d="M40 15v-.08h-.08c-.03 0 0 0 0 0L40 15Z"/><path class="cls-6" d="M39.76 15.29a.06.06 0 0 0 .05 0 .09.09 0 0 0 0-.05.06.06 0 0 0-.09 0"/><path class="cls-9" d="M39.76 15.29a.06.06 0 0 0 .05 0 .09.09 0 0 0 0-.05.06.06 0 0 0-.09 0l.04.05Z"/><path class="cls-6" d="M39.54 15.54h-.08"/><path class="cls-9" d="M39.54 15.54h-.08a.06.06 0 0 0 .08 0Z"/><path class="cls-6" d="M39.31 15.79h-.08a.06.06 0 0 0 0 .05"/><path class="cls-9" d="M39.31 15.79h-.08a.06.06 0 0 0 0 .05s.06-.05.08-.05Z"/><path class="cls-6" d="M39.08 16a.09.09 0 0 0 0-.05.06.06 0 0 0-.09 0"/><path class="cls-9" d="M39.08 16a.09.09 0 0 0 0-.05.06.06 0 0 0-.09 0s.07.05.09.05Z"/><path class="cls-6" d="M38.85 16.29v-.05h-.08"/><path class="cls-9" d="M38.85 16.29v-.05h-.08s.06.05.08.05Z"/><path class="cls-6" d="M38.62 16.54v-.05h-.08v.05"/><path class="cls-9" d="M38.62 16.54v-.05h-.08v.05Z"/><path class="cls-6" d="M38.39 16.79v-.05h-.08a.06.06 0 0 0 0 .09"/><path class="cls-9" d="M38.39 16.79v-.05h-.08a.06.06 0 0 0 0 .09Z"/><path class="cls-6" d="M38.16 17a.06.06 0 0 0 0-.09h-.08a.06.06 0 0 0 0 .09"/><path class="cls-9" d="M38.16 17a.06.06 0 0 0 0-.09h-.08a.06.06 0 0 0 0 .09Z"/><path class="cls-6" d="M37.93 17.29v-.05a.06.06 0 0 0-.1 0 .08.08 0 0 0 0 .05"/><path class="cls-9" d="M37.93 17.29v-.05a.06.06 0 0 0-.1 0 .08.08 0 0 0 0 .05Z"/><path class="cls-6" d="M37.7 17.54v-.05a.06.06 0 0 0-.08 0 .08.08 0 0 0 0 .05"/><path class="cls-9" d="M37.7 17.54v-.05a.06.06 0 0 0-.08 0 .08.08 0 0 0 0 .05Z"/><path class="cls-6" d="M37.47 17.8a.06.06 0 0 0 0-.05h-.08a.09.09 0 0 0 0 .05"/><path class="cls-9" d="M37.47 17.8a.06.06 0 0 0 0-.05h-.08a.09.09 0 0 0 0 .05Z"/><path class="cls-6" d="M37.24 18.05a.06.06 0 0 0 0-.05.06.06 0 0 0-.08 0 .09.09 0 0 0 0 .05"/><path class="cls-9" d="M37.24 18.05a.06.06 0 0 0 0-.05.06.06 0 0 0-.08 0 .09.09 0 0 0 0 .05Z"/><path class="cls-6" d="M37 18.3a.06.06 0 0 0 0-.05s-.06 0-.09 0a.09.09 0 0 0 0 .05"/><path class="cls-9" d="M37 18.3a.06.06 0 0 0 0-.05s-.06 0-.09 0a.09.09 0 0 0 0 .05Z"/><path class="cls-6" d="M36.78 18.55a.07.07 0 0 0 0-.05.07.07 0 0 0-.09 0 .07.07 0 0 0 0 .05"/><path class="cls-9" d="M36.78 18.55a.07.07 0 0 0 0-.05.07.07 0 0 0-.09 0 .07.07 0 0 0 0 .05Z"/><path class="cls-6" d="M36.56 18.8a.09.09 0 0 0 0-.05.07.07 0 0 0-.09 0 .09.09 0 0 0 0 .05h.05"/><path class="cls-9" d="M36.56 18.8a.09.09 0 0 0 0-.05.07.07 0 0 0-.09 0 .09.09 0 0 0 0 .05ZM40 13.79a.07.07 0 0 0 0-.05s-.07 0-.08 0 .08.05.08.05Z"/><path class="cls-6" d="M39.77 14a.09.09 0 0 0 0-.05.05.05 0 0 0-.08 0h.05"/><path class="cls-9" d="M39.77 14a.09.09 0 0 0 0-.05.05.05 0 0 0-.08 0Z"/><path class="cls-6" d="M39.54 14.29v-.05a.05.05 0 0 0-.08 0"/><path class="cls-9" d="M39.54 14.29v-.05a.05.05 0 0 0-.08 0s.06.05.08.05Z"/><path class="cls-6" d="M39.31 14.54v-.08h-.08a.05.05 0 0 0 0 .08"/><path class="cls-9" d="M39.31 14.54v-.08h-.08a.05.05 0 0 0 0 .08s.06 0 .08 0Z"/><path class="cls-6" d="M39.08 14.79v-.08H39v.08"/><path class="cls-9" d="M39.08 14.79v-.08H39v.08h.08Z"/><path class="cls-6" d="M38.85 15v-.08h-.08a.05.05 0 0 0 0 .08"/><path class="cls-9" d="M38.85 15v-.08h-.08a.05.05 0 0 0 0 .08h.08Z"/><path class="cls-6" d="M38.62 15.29v-.08a.05.05 0 0 0-.08 0s0 0 0 .05"/><path class="cls-9" d="M38.62 15.29v-.08a.05.05 0 0 0-.08 0s0 0 0 .05l.08.03Z"/><path class="cls-6" d="M38.39 15.54v-.08h-.08a.05.05 0 0 0 0 .08"/><path class="cls-9" d="M38.39 15.54v-.08h-.08a.05.05 0 0 0 0 .08h.08Z"/><path class="cls-6" d="M38.16 15.79v-.08h-.08v.08"/><path class="cls-9" d="M38.16 15.79v-.08h-.08v.08h.08Z"/><path class="cls-6" d="M37.93 16v-.05h-.08"/><path class="cls-9" d="M37.93 16v-.05h-.08l.08.05Z"/><path class="cls-6" d="M37.7 16.29a.06.06 0 0 0 0-.05s-.06 0-.08 0a.09.09 0 0 0 0 .05"/><path class="cls-9" d="M37.7 16.29a.06.06 0 0 0 0-.05s-.06 0-.08 0a.09.09 0 0 0 0 .05Z"/><path class="cls-6" d="M37.48 16.54a.09.09 0 0 0 0-.05.06.06 0 0 0-.09 0 .09.09 0 0 0 0 .05"/><path class="cls-9" d="M37.48 16.54a.09.09 0 0 0 0-.05.06.06 0 0 0-.09 0 .09.09 0 0 0 0 .05Z"/><path class="cls-6" d="M37.25 16.79a.09.09 0 0 0 0-.05.06.06 0 0 0-.09 0 .09.09 0 0 0 0 .05"/><path class="cls-9" d="M37.25 16.79a.09.09 0 0 0 0-.05.06.06 0 0 0-.09 0 .09.09 0 0 0 0 .05Z"/><path class="cls-6" d="M37 17a.06.06 0 0 0 0-.09h-.08A.06.06 0 0 0 37 17"/><path class="cls-9" d="M37 17a.06.06 0 0 0 0-.09h-.08A.06.06 0 0 0 37 17Z"/><path class="cls-6" d="M36.79 17.29a.09.09 0 0 0 0-.05.06.06 0 0 0-.1 0s0 0 0 .05"/><path class="cls-9" d="M36.79 17.29a.09.09 0 0 0 0-.05.06.06 0 0 0-.1 0s0 0 0 .05Z"/><path class="cls-6" d="M36.56 17.54a.08.08 0 0 0 0-.05.06.06 0 0 0-.08 0 .06.06 0 0 0 0 .09"/><path class="cls-9" d="M36.56 17.54a.08.08 0 0 0 0-.05.06.06 0 0 0-.08 0 .06.06 0 0 0 0 .09Z"/><path class="cls-6" d="M36.33 17.8v-.05h-.08a.08.08 0 0 0 0 .05"/><path class="cls-9" d="M36.33 17.8v-.05h-.08a.08.08 0 0 0 0 .05Z"/><path class="cls-6" d="M36.1 18.05V18a.06.06 0 0 0-.08 0s0 0 0 .05"/><path class="cls-9" d="M36.1 18.05V18a.06.06 0 0 0-.08 0s0 0 0 .05Z"/><path class="cls-6" d="M35.87 18.3a.06.06 0 0 0 0-.09.06.06 0 0 0-.08 0s0 0 0 .05"/><path class="cls-9" d="M35.87 18.3a.06.06 0 0 0 0-.09.06.06 0 0 0-.08 0s0 0 0 .05Z"/><path class="cls-6" d="M35.64 18.55a.06.06 0 0 0 0-.09.06.06 0 0 0-.08 0 .06.06 0 0 0 0 .09"/><path class="cls-9" d="M35.64 18.55a.06.06 0 0 0 0-.09.06.06 0 0 0-.08 0 .06.06 0 0 0 0 .09Z"/><path class="cls-6" d="M35.41 18.8v-.05a.06.06 0 0 0-.08 0 .09.09 0 0 0 0 .05"/><path class="cls-9" d="M35.41 18.8v-.05a.06.06 0 0 0-.08 0 .09.09 0 0 0 0 .05Z"/><path class="cls-6" d="M35.19 19.05a.06.06 0 0 0 0-.09.06.06 0 0 0-.08 0 .06.06 0 0 0 0 .09"/><path class="cls-9" d="M35.19 19.05a.06.06 0 0 0 0-.09.06.06 0 0 0-.08 0 .06.06 0 0 0 0 .09Z"/></g><g class="cls-14"><path class="cls-5" d="M50.15 17.54a.07.07 0 0 0 0-.05.06.06 0 0 0-.08 0 .06.06 0 0 0 0 .09Zm0 1.26a.09.09 0 0 0 0-.05.07.07 0 0 0-.09 0 .09.09 0 0 0 0 .05Z"/><path class="cls-6" d="M49.92 17.8v-.05h-.08a.08.08 0 0 0 0 .05"/><path class="cls-5" d="M49.92 17.8v-.05h-.08a.08.08 0 0 0 0 .05.05.05 0 0 0 .08 0Z"/><path class="cls-6" d="M49.69 18.05V18a.06.06 0 0 0-.08 0s0 0 0 .05"/><path class="cls-5" d="M49.69 18.05V18a.06.06 0 0 0-.08 0s0 0 0 .05Z"/><path class="cls-6" d="M49.46 18.3a.06.06 0 0 0 0-.09.06.06 0 0 0-.08 0s0 0 0 .05"/><path class="cls-7" d="M49.46 18.3a.06.06 0 0 0 0-.09.06.06 0 0 0-.08 0s0 0 0 .05Z"/><path class="cls-6" d="M49.23 18.55a.06.06 0 0 0 0-.09.06.06 0 0 0-.08 0 .06.06 0 0 0 0 .09"/><path class="cls-7" d="M49.23 18.55a.06.06 0 0 0 0-.09.06.06 0 0 0-.08 0 .06.06 0 0 0 0 .09Z"/><path class="cls-6" d="M49 18.8v-.05a.06.06 0 0 0-.08 0s0 0 0 .05"/><path class="cls-7" d="M49 18.8v-.05a.06.06 0 0 0-.08 0s0 0 0 .05Z"/><path class="cls-6" d="M48.78 19.05a.06.06 0 0 0 0-.09.06.06 0 0 0-.08 0 .06.06 0 0 0 0 .09"/><path class="cls-7" d="M48.78 19.05a.06.06 0 0 0 0-.09.06.06 0 0 0-.08 0 .06.06 0 0 0 0 .09Z"/></g><g class="cls-15"><path class="cls-5" d="M50.15 37.33a.06.06 0 0 0 0-.09.06.06 0 0 0-.08 0 .08.08 0 0 0 0 .05Zm-.46 1.75a.06.06 0 0 0 0-.09.06.06 0 0 0-.08 0 .08.08 0 0 0 0 .05Zm.23-.25v-.05a.06.06 0 0 0-.08 0s0 0 0 .05Zm.23-.25a.06.06 0 0 0 0-.09.06.06 0 0 0-.08 0 .08.08 0 0 0 0 .05Z"/><path class="cls-6" d="M49.92 37.58a.08.08 0 0 0 0-.05.06.06 0 0 0-.08 0 .07.07 0 0 0 0 .05"/><path class="cls-5" d="M49.92 37.58a.08.08 0 0 0 0-.05.06.06 0 0 0-.08 0 .07.07 0 0 0 0 .05Z"/><path class="cls-6" d="M49.69 37.83a.06.06 0 0 0 0-.09.06.06 0 0 0-.08 0 .07.07 0 0 0 0 .05"/><path class="cls-5" d="M49.69 37.83a.06.06 0 0 0 0-.09.06.06 0 0 0-.08 0 .07.07 0 0 0 0 .05Z"/><path class="cls-6" d="M49.46 38.08a.08.08 0 0 0 0-.05.07.07 0 0 0-.09 0 .07.07 0 0 0 0 .05"/><path class="cls-7" d="M49.46 38.08a.08.08 0 0 0 0-.05.07.07 0 0 0-.09 0 .07.07 0 0 0 0 .05Z"/><path class="cls-6" d="M49.23 38.33v-.05a.08.08 0 0 0-.09 0 .07.07 0 0 0 0 .05"/><path class="cls-7" d="M49.23 38.33v-.05a.08.08 0 0 0-.09 0 .07.07 0 0 0 0 .05Z"/><path class="cls-6" d="M49 38.58a.06.06 0 0 0-.1-.05.43.43 0 0 0 0 .05"/><path class="cls-7" d="M49 38.58a.06.06 0 0 0-.1-.05.43.43 0 0 0 0 .05ZM50.15 36.07a.08.08 0 0 0 0-.05.06.06 0 0 0-.08 0 .07.07 0 0 0 0 .05Zm-1.37 2.76a.06.06 0 0 0-.1-.05.43.43 0 0 0 0 .05Z"/><path class="cls-6" d="M49.92 36.33v-.05h-.08a.09.09 0 0 0 0 .05"/><path class="cls-8" d="M49.92 36.33v-.05h-.08a.09.09 0 0 0 0 .05Z"/><path class="cls-6" d="M49.7 36.58a.09.09 0 0 0 0-.05.06.06 0 0 0-.09 0s0 0 0 .05"/><path class="cls-8" d="M49.7 36.58a.09.09 0 0 0 0-.05.06.06 0 0 0-.09 0s0 0 0 .05Z"/><path class="cls-6" d="M49.47 36.83a.07.07 0 0 0 0-.05.07.07 0 0 0-.09 0s0 0 0 .05"/><path class="cls-8" d="M49.47 36.83a.07.07 0 0 0 0-.05.07.07 0 0 0-.09 0s0 0 0 .05Z"/><path class="cls-6" d="M49.24 37.08a.09.09 0 0 0 0-.05.05.05 0 0 0-.08 0s0 0 0 .05"/><path class="cls-9" d="M49.24 37.08a.09.09 0 0 0 0-.05.05.05 0 0 0-.08 0s0 0 0 .05Z"/><path class="cls-6" d="M49 37.33a.07.07 0 0 0 0-.05.06.06 0 0 0-.08 0 .08.08 0 0 0 0 .05"/><path class="cls-9" d="M49 37.33a.07.07 0 0 0 0-.05.06.06 0 0 0-.08 0 .08.08 0 0 0 0 .05Z"/><path class="cls-6" d="M48.78 37.58a.08.08 0 0 0 0-.05.06.06 0 0 0-.08 0 .06.06 0 0 0 0 .09"/><path class="cls-9" d="M48.78 37.58a.08.08 0 0 0 0-.05.06.06 0 0 0-.08 0 .06.06 0 0 0 0 .09ZM50.16 34.82a.09.09 0 0 0 0-.05.06.06 0 0 0-.09 0 .06.06 0 0 0 .09.05Z"/><path class="cls-6" d="M49.93 35.07A.09.09 0 0 0 50 35a.06.06 0 0 0-.09 0s0 0 0 .05"/><path class="cls-9" d="M49.93 35.07A.09.09 0 0 0 50 35a.06.06 0 0 0-.09 0s0 0 0 .05Z"/><path class="cls-6" d="M49.7 35.33v-.05a.05.05 0 0 0-.08 0s0 0 0 .05"/><path class="cls-9" d="M49.7 35.33v-.05a.05.05 0 0 0-.08 0s0 0 0 .05Z"/><path class="cls-6" d="M49.47 35.57a.06.06 0 0 0 0-.09.05.05 0 0 0-.08 0s0 0 0 .05"/><path class="cls-9" d="M49.47 35.57a.06.06 0 0 0 0-.09.05.05 0 0 0-.08 0s0 0 0 .05Z"/><path class="cls-6" d="M49.24 35.82v-.05a.06.06 0 0 0-.08 0 .06.06 0 0 0 0 .09"/><path class="cls-9" d="M49.24 35.82v-.05a.06.06 0 0 0-.08 0 .06.06 0 0 0 0 .09Z"/><path class="cls-6" d="M49 36.07v-.05a.05.05 0 0 0 0-.02v.05"/><path class="cls-9" d="M49 36.07v-.05a.05.05 0 0 0 0-.02v.05Z"/><path class="cls-6" d="M48.78 36.33a.08.08 0 0 0 0-.05h-.08a.06.06 0 0 0 0 .09"/><path class="cls-9" d="M48.78 36.33a.08.08 0 0 0 0-.05h-.08a.06.06 0 0 0 0 .09ZM50.16 33.57h-.08v.08s.06-.08.08-.08Z"/><path class="cls-6" d="M49.93 33.82v-.08h-.08a.05.05 0 0 0 0 .08"/><path class="cls-9" d="M49.93 33.82v-.08h-.08a.05.05 0 0 0 0 .08s.06 0 .08 0Z"/><path class="cls-6" d="M49.7 34.07a.05.05 0 0 0 0-.08s-.06 0-.08 0a.05.05 0 0 0 0 .08"/><path class="cls-9" d="M49.7 34.07a.05.05 0 0 0 0-.08s-.06 0-.08 0a.05.05 0 0 0 0 .08s.06 0 .08 0Z"/><path class="cls-6" d="M49.47 34.32h-.08v.08"/><path class="cls-9" d="M49.47 34.32a.05.05 0 0 0-.08 0v.08l.08-.08Z"/><path class="cls-6" d="M49.24 34.57v-.05h-.08v.08"/><path class="cls-9" d="M49.24 34.57v-.05h-.08v.08l.08-.03Z"/><path class="cls-6" d="M49 34.82v-.08h-.08v.08"/><path class="cls-9" d="M49 34.82v-.08h-.08v.08H49Z"/><path class="cls-6" d="M48.78 35.07v-.05h-.08a.09.09 0 0 0 0 .05"/><path class="cls-9" d="M48.78 35.07v-.05h-.08a.09.09 0 0 0 0 .05ZM50.16 32.32a.05.05 0 0 0-.08 0Z"/><path class="cls-6" d="M49.93 32.57a.05.05 0 0 0-.08 0"/><path class="cls-9" d="M49.93 32.57a.05.05 0 0 0-.08 0h.08Z"/><path class="cls-6" d="M49.7 32.82a.05.05 0 0 0-.08 0"/><path class="cls-9" d="M49.7 32.82a.05.05 0 0 0-.08 0Z"/><path class="cls-6" d="M49.47 33.07v-.08h-.08v.08"/><path class="cls-9" d="M49.47 33.07v-.08h-.08v.08h.08Z"/><path class="cls-6" d="M49.24 33.32v-.05h-.08v.08"/><path class="cls-9" d="M49.24 33.32v-.05h-.08v.08l.08-.03Z"/><path class="cls-6" d="M49 33.57v-.05c0-.05 0 0 0 0a.06.06 0 0 0-.09 0"/><path class="cls-9" d="M49 33.57v-.05c0-.05 0 0 0 0a.06.06 0 0 0-.09 0l.09.05Z"/><path class="cls-6" d="M48.78 33.82h-.08c-.08 0 0 0 0 0"/><path class="cls-9" d="M48.78 33.82h-.08c-.08 0 0 0 0 0h.08ZM50.16 31.07v-.05a.06.06 0 0 0-.08 0s0 0 0 .05Z"/><path class="cls-6" d="M49.93 31.32v-.05a.06.06 0 0 0-.08 0s0 0 0 .05"/><path class="cls-9" d="M49.93 31.32v-.05a.06.06 0 0 0-.08 0s0 0 0 .05Z"/><path class="cls-6" d="M49.7 31.57a.06.06 0 0 0-.09 0 .09.09 0 0 0 0 .05"/><path class="cls-9" d="M49.7 31.57a.06.06 0 0 0-.09 0 .09.09 0 0 0 0 .05Z"/><path class="cls-6" d="M49.47 31.82v-.05a.06.06 0 0 0-.08 0 .07.07 0 0 0 0 .05"/><path class="cls-9" d="M49.47 31.82v-.05a.06.06 0 0 0-.08 0 .07.07 0 0 0 0 .05Z"/><path class="cls-6" d="M49.24 32.07a.07.07 0 0 0-.09 0"/><path class="cls-9" d="M49.24 32.07a.07.07 0 0 0-.09 0h.09Z"/><path class="cls-6" d="M49 32.32a.07.07 0 0 0-.09 0h.05"/><path class="cls-9" d="M49 32.32a.07.07 0 0 0-.09 0Z"/><path class="cls-6" d="M48.79 32.57a.05.05 0 0 0-.08 0"/><path class="cls-9" d="M48.79 32.57a.05.05 0 0 0-.08 0Z"/><path class="cls-6" d="M49.71 30.32a.09.09 0 0 0 0-.05.08.08 0 0 0-.09 0 .09.09 0 0 0 0 .05h.05"/><path class="cls-9" d="M49.71 30.32a.09.09 0 0 0 0-.05.08.08 0 0 0-.09 0 .09.09 0 0 0 0 .05Z"/><path class="cls-6" d="M49.48 30.57a.09.09 0 0 0 0-.05.08.08 0 0 0-.09 0 .09.09 0 0 0 0 .05"/><path class="cls-9" d="M49.48 30.57a.09.09 0 0 0 0-.05.08.08 0 0 0-.09 0 .09.09 0 0 0 0 .05Z"/><path class="cls-6" d="M49.25 30.82a.08.08 0 0 0 0-.05.06.06 0 0 0-.08 0 .08.08 0 0 0 0 .05"/><path class="cls-9" d="M49.25 30.82a.08.08 0 0 0 0-.05.06.06 0 0 0-.08 0 .08.08 0 0 0 0 .05.05.05 0 0 0 .08 0Z"/><path class="cls-6" d="M49 31.07a.09.09 0 0 0 0-.05.06.06 0 0 0 0-.02v.05"/><path class="cls-9" d="M49 31.07a.09.09 0 0 0 0-.05.06.06 0 0 0 0-.02v.05Z"/><path class="cls-6" d="M48.79 31.32v-.05a.06.06 0 0 0-.08 0s0 0 0 .05"/><path class="cls-9" d="M48.79 31.32v-.05a.06.06 0 0 0-.08 0s0 0 0 .05Z"/></g><g class="cls-13"><path class="cls-5" d="M50.15 27.43a.06.06 0 0 0 0-.09.05.05 0 0 0-.08 0 .06.06 0 0 0 0 .09Z"/><path class="cls-6" d="M49.92 27.69a.06.06 0 0 0 0-.09.06.06 0 0 0-.08 0 .06.06 0 0 0 0 .09"/><path class="cls-5" d="M49.92 27.69a.06.06 0 0 0 0-.09.06.06 0 0 0-.08 0 .06.06 0 0 0 0 .09Z"/><path class="cls-6" d="M49.69 27.94a.06.06 0 0 0 0-.09.06.06 0 0 0-.08 0 .06.06 0 0 0 0 .09"/><path class="cls-5" d="M49.69 27.94a.06.06 0 0 0 0-.09.06.06 0 0 0-.08 0 .06.06 0 0 0 0 .09Z"/><path class="cls-6" d="M49.46 28.19a.06.06 0 0 0 0-.09.05.05 0 0 0-.08 0 .06.06 0 0 0 0 .09"/><path class="cls-7" d="M49.46 28.19a.06.06 0 0 0 0-.09.05.05 0 0 0-.08 0 .06.06 0 0 0 0 .09Z"/><path class="cls-6" d="M49.23 28.44a.06.06 0 0 0 0-.09.06.06 0 0 0-.08 0 .06.06 0 0 0 0 .09"/><path class="cls-7" d="M49.23 28.44a.06.06 0 0 0 0-.09.06.06 0 0 0-.08 0 .06.06 0 0 0 0 .09Z"/><path class="cls-6" d="M49 28.69v-.05a.06.06 0 0 0-.08 0 .07.07 0 0 0 0 .05"/><path class="cls-7" d="M49 28.69v-.05a.06.06 0 0 0-.08 0 .07.07 0 0 0 0 .05Z"/><path class="cls-6" d="M48.77 28.94a.06.06 0 1 0-.11 0"/><path class="cls-7" d="M48.77 28.94a.06.06 0 1 0-.11 0Z"/><path class="cls-8" d="M50.15 26.18v-.05h-.08a.06.06 0 0 0 0 .09Z"/><path class="cls-6" d="M49.92 26.44v-.05h-.08"/><path class="cls-8" d="M49.92 26.44v-.05h-.08a.05.05 0 0 0 .08.05Z"/><path class="cls-6" d="M49.69 26.69v-.05a.06.06 0 0 0-.08 0 .09.09 0 0 0 0 .05"/><path class="cls-8" d="M49.69 26.69v-.05a.06.06 0 0 0-.08 0 .09.09 0 0 0 0 .05Z"/><path class="cls-6" d="M49.46 26.94v-.05c0-.05 0 0 0 0h-.09a.09.09 0 0 0 0 .05"/><path class="cls-9" d="M49.46 26.94v-.05c0-.05 0 0 0 0h-.09a.09.09 0 0 0 0 .05Z"/><path class="cls-6" d="M49.23 27.19a.06.06 0 0 0 0-.05.08.08 0 0 0-.09 0 .07.07 0 0 0 0 .05"/><path class="cls-9" d="M49.23 27.19a.06.06 0 0 0 0-.05.08.08 0 0 0-.09 0 .07.07 0 0 0 0 .05Z"/><path class="cls-6" d="M49 27.43a.06.06 0 0 0-.1-.05.43.43 0 0 0 0 .05"/><path class="cls-9" d="M49 27.43a.06.06 0 0 0-.1-.05.43.43 0 0 0 0 .05Z"/><path class="cls-6" d="M48.78 27.69a.07.07 0 0 0 0-.05.07.07 0 0 0-.09 0s0 0 0 .05"/><path class="cls-9" d="M48.78 27.69a.07.07 0 0 0 0-.05.07.07 0 0 0-.09 0 .08.08 0 0 0 0 .05.05.05 0 0 0 .09 0ZM50.15 24.93v-.08h-.08l.08.08Z"/><path class="cls-6" d="M49.92 25.18a.06.06 0 0 0 0-.05s-.06 0-.08 0"/><path class="cls-9" d="M49.92 25.18a.06.06 0 0 0 0-.05s-.06 0-.08 0 .07.05.08.05Z"/><path class="cls-6" d="M49.7 25.43a.09.09 0 0 0 0-.05.06.06 0 0 0-.09 0 .06.06 0 0 0 0 .05"/><path class="cls-9" d="M49.7 25.43a.09.09 0 0 0 0-.05.06.06 0 0 0-.09 0 .06.06 0 0 0 0 .05Z"/><path class="cls-6" d="M49.47 25.68a.09.09 0 0 0 0-.05.07.07 0 0 0-.09 0s0 0 0 .05"/><path class="cls-9" d="M49.47 25.68a.09.09 0 0 0 0-.05.07.07 0 0 0-.09 0s0 0 0 .05Z"/><path class="cls-6" d="M49.24 25.93a.09.09 0 0 0 0-.05h-.08a.06.06 0 0 0 0 .05"/><path class="cls-9" d="M49.24 25.93a.09.09 0 0 0 0-.05h-.08a.06.06 0 0 0 0 .05Z"/><path class="cls-6" d="M49 26.18h-.08v.05"/><path class="cls-9" d="M49 26.18h-.08v.05Z"/><path class="cls-6" d="M48.78 26.43v-.05h-.08v.05"/><path class="cls-9" d="M48.78 26.43v-.05h-.08v.05ZM50.16 23.68a.09.09 0 0 0 0-.05.06.06 0 0 0-.09 0Z"/><path class="cls-6" d="M49.93 23.93a.09.09 0 0 0 0-.05.06.06 0 0 0-.09 0"/><path class="cls-9" d="M49.93 23.93a.09.09 0 0 0 0-.05.06.06 0 0 0-.09 0 .05.05 0 0 0 .09.05Z"/><path class="cls-6" d="M49.7 24.18v-.05h-.08c-.02 0 0 0 0 .05"/><path class="cls-9" d="M49.7 24.18v-.05h-.08c-.02 0 0 0 0 .05s.06 0 .08 0Z"/><path class="cls-6" d="M49.47 24.43v-.05a.05.05 0 0 0-.08 0v.08"/><path class="cls-9" d="M49.47 24.43v-.05a.05.05 0 0 0-.08 0v.08s.06-.03.08-.03Z"/><path class="cls-6" d="M49.24 24.68v-.05h-.08v.08"/><path class="cls-9" d="M49.24 24.68v-.05h-.08v.08s.06-.03.08-.03Z"/><path class="cls-6" d="M49 24.93v-.05h-.08"/><path class="cls-9" d="M49 24.93v-.05h-.08l.08.05Z"/><path class="cls-6" d="M48.78 25.18v-.05h-.08"/><path class="cls-9" d="M48.78 25.18v-.05h-.08s.06.05.08.05ZM50.16 22.43a.09.09 0 0 0 0-.05.06.06 0 0 0-.08 0s0 0 0 .05Z"/><path class="cls-6" d="M49.93 22.68a.05.05 0 0 0-.08 0s0 0 0 .05a.07.07 0 0 0 .06.06"/><path class="cls-9" d="M49.93 22.68a.05.05 0 0 0-.08 0s0 0 0 .05a.07.07 0 0 0 .06.06Z"/><path class="cls-6" d="M49.7 22.93v-.08h-.08a.05.05 0 0 0 0 .08"/><path class="cls-9" d="M49.7 22.93v-.08h-.08a.05.05 0 0 0 0 .08s.06 0 .08 0Z"/><path class="cls-6" d="M49.47 23.18a.07.07 0 0 0 .06-.06s0 0 0-.05a.05.05 0 0 0-.08 0v.08"/><path class="cls-9" d="M49.47 23.18a.07.07 0 0 0 .06-.06s0 0 0-.05a.05.05 0 0 0-.08 0v.08l.02.03Z"/><path class="cls-6" d="M49.24 23.43v-.08h-.08v.08"/><path class="cls-9" d="M49.24 23.43v-.08h-.08v.08Z"/><path class="cls-6" d="M49 23.68a.07.07 0 0 0 .06-.06s0 0 0-.05a.06.06 0 0 0-.08 0s0 0 0 .05"/><path class="cls-9" d="M49 23.68a.07.07 0 0 0 .06-.06s0 0 0-.05a.06.06 0 0 0-.08 0s0 0 0 .05Z"/><path class="cls-6" d="M48.78 23.93v-.08h-.08"/><path class="cls-9" d="M48.78 23.93v-.08h-.08ZM50.16 21.18a.08.08 0 0 0 0-.05.06.06 0 0 0-.08 0 .08.08 0 0 0 0 .05Z"/><path class="cls-6" d="M49.93 21.43v-.05a.06.06 0 0 0-.08 0s0 0 0 .05"/><path class="cls-9" d="M49.93 21.43v-.05a.06.06 0 0 0-.08 0s0 0 0 .05a.05.05 0 0 0 .08 0Z"/><path class="cls-6" d="M49.7 21.68a.08.08 0 0 0 0-.05.06.06 0 0 0-.08 0 .08.08 0 0 0 0 .05"/><path class="cls-9" d="M49.7 21.68a.08.08 0 0 0 0-.05.06.06 0 0 0-.08 0 .08.08 0 0 0 0 .05Z"/><path class="cls-6" d="M49.47 21.93a.06.06 0 0 0 0-.09.06.06 0 0 0-.08 0 .08.08 0 0 0 0 .05"/><path class="cls-9" d="M49.47 21.93a.06.06 0 0 0 0-.09.06.06 0 0 0-.08 0 .08.08 0 0 0 0 .05Z"/><path class="cls-6" d="M49.24 22.18a.08.08 0 0 0 0-.05.06.06 0 0 0-.08 0 .06.06 0 0 0 0 .09"/><path class="cls-9" d="M49.24 22.18a.08.08 0 0 0 0-.05.06.06 0 0 0-.08 0 .06.06 0 0 0 0 .09Z"/><path class="cls-6" d="M49 22.43v-.05a.08.08 0 0 0-.09 0 .09.09 0 0 0 0 .05"/><path class="cls-9" d="M49 22.43v-.05a.08.08 0 0 0-.09 0 .09.09 0 0 0 0 .05Z"/><path class="cls-6" d="M48.78 22.68a.06.06 0 0 0 0-.05.06.06 0 0 0-.08 0 .07.07 0 0 0 0 .05"/><path class="cls-9" d="M48.78 22.68a.06.06 0 0 0 0-.05.06.06 0 0 0-.08 0 .07.07 0 0 0 0 .05ZM50.16 19.93a.06.06 0 0 0 0-.09.06.06 0 0 0-.08 0 .06.06 0 0 0 0 .09Z"/><path class="cls-6" d="M49.93 20.18a.08.08 0 0 0 0-.05.06.06 0 0 0-.08 0 .08.08 0 0 0 0 .05"/><path class="cls-9" d="M49.93 20.18a.08.08 0 0 0 0-.05.06.06 0 0 0-.08 0 .08.08 0 0 0 0 .05Z"/><path class="cls-6" d="M49.7 20.43a.43.43 0 0 0 0-.05.06.06 0 0 0-.1.05"/><path class="cls-9" d="M49.7 20.43a.43.43 0 0 0 0-.05.06.06 0 0 0-.1.05Z"/><path class="cls-6" d="M49.47 20.68v-.05a.06.06 0 0 0-.08 0 .07.07 0 0 0 0 .05"/><path class="cls-9" d="M49.47 20.68v-.05a.06.06 0 0 0-.08 0 .07.07 0 0 0 0 .05Z"/><path class="cls-6" d="M49.24 20.93a.06.06 0 0 0-.1-.05.09.09 0 0 0 0 .05"/><path class="cls-9" d="M49.24 20.93a.06.06 0 0 0-.1-.05.09.09 0 0 0 0 .05Z"/><path class="cls-6" d="M49 21.18a.06.06 0 1 0-.11 0h.05"/><path class="cls-9" d="M49 21.18a.06.06 0 1 0-.11 0Z"/><path class="cls-6" d="M48.79 21.43a.09.09 0 0 0 0-.05.06.06 0 0 0-.08 0 .06.06 0 0 0 0 .05"/><path class="cls-9" d="M48.79 21.43a.09.09 0 0 0 0-.05.06.06 0 0 0-.08 0 .06.06 0 0 0 0 .05Z"/><path class="cls-6" d="M49.71 19.18a.07.07 0 0 0 0-.05s-.06 0-.09 0a.07.07 0 0 0 0 .05h.05"/><path class="cls-9" d="M49.71 19.18a.07.07 0 0 0 0-.05s-.06 0-.09 0a.07.07 0 0 0 0 .05Z"/><path class="cls-6" d="M49.48 19.43a.07.07 0 0 0 0-.05.07.07 0 0 0-.09 0 .07.07 0 0 0 0 .05"/><path class="cls-9" d="M49.48 19.43a.07.07 0 0 0 0-.05.07.07 0 0 0-.09 0 .07.07 0 0 0 0 .05Z"/><path class="cls-6" d="M49.25 19.68a.08.08 0 0 0 0-.05.06.06 0 0 0-.08 0 .08.08 0 0 0 0 .05"/><path class="cls-9" d="M49.25 19.68a.08.08 0 0 0 0-.05.06.06 0 0 0-.08 0 .08.08 0 0 0 0 .05.05.05 0 0 0 .08 0Z"/><path class="cls-6" d="M49 19.93a.07.07 0 0 0 0-.05.06.06 0 0 0-.08 0 .06.06 0 0 0 0 .09"/><path class="cls-9" d="M49 19.93a.07.07 0 0 0 0-.05.06.06 0 0 0-.08 0 .06.06 0 0 0 0 .09Z"/><path class="cls-6" d="M48.79 20.18a.06.06 0 0 0 0-.09.06.06 0 0 0-.08 0 .08.08 0 0 0 0 .05"/><path class="cls-9" d="M48.79 20.18a.06.06 0 0 0 0-.09.06.06 0 0 0-.08 0 .08.08 0 0 0 0 .05Z"/></g><g class="cls-12"><path class="cls-5" d="M38.85 13.79v-.05a.06.06 0 0 0-.08 0s0 0 0 .05Z"/><path class="cls-6" d="M38.62 14v-.05a.06.06 0 0 0-.08 0 .07.07 0 0 0 0 .05"/><path class="cls-5" d="M38.62 14v-.05a.06.06 0 0 0-.08 0 .07.07 0 0 0 0 .05Z"/><path class="cls-6" d="M38.39 14.29a.05.05 0 0 0-.08 0 .09.09 0 0 0 0 .05"/><path class="cls-5" d="M38.39 14.29a.05.05 0 0 0-.08 0 .09.09 0 0 0 0 .05Z"/><path class="cls-6" d="M38.17 14.54a.06.06 0 0 0-.09 0"/><path class="cls-7" d="M38.17 14.54a.06.06 0 0 0-.09 0h.09Z"/><path class="cls-6" d="M37.93 14.79a.06.06 0 0 0-.09 0"/><path class="cls-7" d="M37.93 14.79a.06.06 0 0 0-.09 0Z"/><path class="cls-6" d="M37.71 15h-.08"/><path class="cls-7" d="M37.71 15h-.08.08Z"/><path class="cls-6" d="M37.48 15.29h-.08"/><path class="cls-7" d="M37.48 15.29h-.08v.08s.06-.08.08-.08Z"/><path class="cls-6" d="M37.25 15.54v-.08h-.08a.05.05 0 0 0 0 .08"/><path class="cls-8" d="M37.25 15.54v-.08h-.08a.05.05 0 0 0 0 .08s.06 0 .08 0Z"/><path class="cls-6" d="M37 15.79h-.08v.08"/><path class="cls-8" d="M37 15.79h-.08v.08l.08-.08Z"/><path class="cls-6" d="M36.79 16v-.08h-.08a.05.05 0 0 0 0 .08"/><path class="cls-8" d="M36.79 16v-.08h-.08a.05.05 0 0 0 0 .08s.06 0 .08 0Z"/><path class="cls-6" d="M36.56 16.29v-.05h-.08v.05"/><path class="cls-9" d="M36.56 16.29v-.05h-.08v.05Z"/><path class="cls-6" d="M36.33 16.54v-.05h-.08v.05"/><path class="cls-9" d="M36.33 16.54v-.05h-.08v.05Z"/><path class="cls-6" d="M36.1 16.79a.06.06 0 0 0 0-.09h-.08a.06.06 0 0 0 0 .09"/><path class="cls-9" d="M36.1 16.79a.06.06 0 0 0 0-.09h-.08a.06.06 0 0 0 0 .09Z"/><path class="cls-6" d="M35.87 17a.06.06 0 0 0 0-.05h-.08V17"/><path class="cls-9" d="M35.87 17a.06.06 0 0 0 0-.05h-.08V17Z"/><path class="cls-6" d="M35.64 17.29a.08.08 0 0 0 0-.05.06.06 0 0 0-.08 0 .07.07 0 0 0 0 .05"/><path class="cls-9" d="M35.64 17.29a.08.08 0 0 0 0-.05.06.06 0 0 0-.08 0 .07.07 0 0 0 0 .05Z"/><path class="cls-6" d="M35.41 17.54v-.05c0-.05 0 0 0 0h-.08c-.03 0 0 0 0 0a.07.07 0 0 0 0 .05"/><path class="cls-9" d="M35.41 17.54v-.05c0-.05 0 0 0 0h-.08c-.03 0 0 0 0 0a.07.07 0 0 0 0 .05Z"/><path class="cls-6" d="M35.19 17.8a.09.09 0 0 0 0-.05.06.06 0 0 0-.09 0 .09.09 0 0 0 0 .05"/><path class="cls-9" d="M35.19 17.8a.09.09 0 0 0 0-.05.06.06 0 0 0-.09 0 .09.09 0 0 0 0 .05ZM37.71 13.79v-.05a.06.06 0 0 0-.08 0s0 0 0 .05a.05.05 0 0 0 .08 0Z"/><path class="cls-6" d="M37.48 14v-.05a.06.06 0 0 0-.08 0s0 0 0 .05"/><path class="cls-9" d="M37.48 14v-.05a.06.06 0 0 0-.08 0s0 0 0 .05Z"/><path class="cls-6" d="M37.25 14.29a.05.05 0 0 0-.08 0s0 0 0 .05"/><path class="cls-9" d="M37.25 14.29a.05.05 0 0 0-.08 0s0 0 0 .05l.08-.05Z"/><path class="cls-6" d="M37 14.54h-.08v.08"/><path class="cls-9" d="M37 14.54v-.08h-.08v.08H37Z"/><path class="cls-6" d="M36.79 14.79v-.08h-.08a.05.05 0 0 0 0 .08"/><path class="cls-9" d="M36.79 14.79v-.08h-.08a.05.05 0 0 0 0 .08h.08Z"/><path class="cls-6" d="M36.56 15h-.08a.05.05 0 0 0 0 .08"/><path class="cls-9" d="M36.56 15h-.08a.05.05 0 0 0 0 .08l.08-.08Z"/><path class="cls-6" d="M36.33 15.29v-.05a.05.05 0 0 0-.08 0"/><path class="cls-9" d="M36.33 15.29v-.05a.05.05 0 0 0-.08 0l.08.05Z"/><path class="cls-6" d="M36.1 15.54h-.08c-.02 0 0 0 0 0"/><path class="cls-9" d="M36.1 15.54h-.08c-.02 0 0 0 0 0h.08Z"/><path class="cls-6" d="M35.87 15.79a.06.06 0 0 0-.09 0"/><path class="cls-9" d="M35.87 15.79a.06.06 0 0 0-.09 0h.09Z"/><path class="cls-6" d="M35.65 16a.09.09 0 0 0 0-.05.06.06 0 0 0-.09 0"/><path class="cls-9" d="M35.65 16a.09.09 0 0 0 0-.05.06.06 0 0 0-.09 0 .06.06 0 0 0 .09.05Z"/><path class="cls-6" d="M35.42 16.29a.09.09 0 0 0 0-.05.06.06 0 0 0-.09 0s0 0 0 .05"/><path class="cls-9" d="M35.42 16.29a.09.09 0 0 0 0-.05.06.06 0 0 0-.09 0s0 0 0 .05Z"/><path class="cls-6" d="M35.19 16.54a.05.05 0 0 0-.08 0s0 0 0 .05"/><path class="cls-9" d="M35.19 16.54a.05.05 0 0 0-.08 0s0 0 0 .05ZM36.56 13.79a.06.06 0 0 0 0-.05.06.06 0 0 0-.08 0 .09.09 0 0 0 0 .05Z"/><path class="cls-6" d="M36.33 14a.06.06 0 0 0 .05 0 .09.09 0 0 0 0-.05.07.07 0 0 0-.09 0 .09.09 0 0 0 0 .05"/><path class="cls-9" d="M36.33 14a.06.06 0 0 0 .05 0 .09.09 0 0 0 0-.05.07.07 0 0 0-.09 0 .09.09 0 0 0 0 .05Z"/><path class="cls-6" d="M36.11 14.29a.06.06 0 0 0-.09 0"/><path class="cls-9" d="M36.11 14.29a.06.06 0 0 0-.09 0Z"/><path class="cls-6" d="M35.88 14.54a.09.09 0 0 0 0-.05.05.05 0 0 0-.08 0v.08"/><path class="cls-9" d="M35.88 14.54a.09.09 0 0 0 0-.05.05.05 0 0 0-.08 0v.08s.06-.03.08-.03Z"/><path class="cls-6" d="M35.65 14.79h-.08v.08"/><path class="cls-9" d="M35.65 14.79h-.08v.08s.06-.08.08-.08Z"/><path class="cls-6" d="M35.42 15v-.08h-.08"/><path class="cls-9" d="M35.42 15v-.08h-.08s.06.08.08.08Z"/><path class="cls-6" d="M35.19 15.29h-.08"/><path class="cls-9" d="M35.19 15.29v-.08h-.08v.08h.08ZM35.42 13.79a.05.05 0 0 0-.08 0s0 0 0 .05Z"/><path class="cls-6" d="M35.19 14a.07.07 0 0 0 .06-.06s0 0 0-.05a.06.06 0 0 0-.08 0s0 0 0 .05"/><path class="cls-9" d="M35.19 14a.07.07 0 0 0 .06-.06s0 0 0-.05a.06.06 0 0 0-.08 0s0 0 0 .05l.02.06Z"/><path class="cls-6" d="M47.77 19.05a.07.07 0 0 0 0-.05.07.07 0 0 0-.09 0s0 0 0 .05"/><path class="cls-9" d="M47.77 19.05a.07.07 0 0 0 0-.05.07.07 0 0 0-.09 0s0 0 0 .05Z"/><path class="cls-6" d="M46.63 19.05a.06.06 0 0 0 0-.09.06.06 0 0 0-.08 0 .06.06 0 0 0 0 .09"/><path class="cls-9" d="M46.63 19.05a.06.06 0 0 0 0-.09.06.06 0 0 0-.08 0 .06.06 0 0 0 0 .09Z"/><path class="cls-6" d="M45.49 19.05a.07.07 0 0 0 0-.05.06.06 0 0 0-.08 0s0 0 0 .05"/><path class="cls-9" d="M45.49 19.05a.07.07 0 0 0 0-.05.06.06 0 0 0-.08 0s0 0 0 .05a.05.05 0 0 0 .08 0Z"/><path class="cls-6" d="M44.34 19.05a.06.06 0 0 0 0-.09s-.06 0-.08 0a.07.07 0 0 0 0 .05"/><path class="cls-9" d="M44.34 19.05a.06.06 0 0 0 0-.09s-.06 0-.08 0a.07.07 0 0 0 0 .05Z"/><path class="cls-6" d="M43.2 19.05a.06.06 0 0 0 0-.09.06.06 0 0 0-.08 0 .06.06 0 0 0 0 .09"/><path class="cls-9" d="M43.2 19.05a.06.06 0 0 0 0-.09.06.06 0 0 0-.08 0 .06.06 0 0 0 0 .09.05.05 0 0 0 .08 0Z"/></g><g class="cls-14"><path class="cls-5" d="M50.15 16.29v-.05h-.08v.05Z"/><path class="cls-6" d="M49.92 16.54v-.05h-.08v.05"/><path class="cls-5" d="M49.92 16.54v-.05h-.08v.05Z"/><path class="cls-6" d="M49.69 16.79a.06.06 0 0 0 0-.09h-.08a.06.06 0 0 0 0 .09"/><path class="cls-5" d="M49.69 16.79a.06.06 0 0 0 0-.09h-.08a.06.06 0 0 0 0 .09Z"/><path class="cls-6" d="M49.46 17v-.05h-.08V17"/><path class="cls-7" d="M49.46 17v-.05h-.08V17Z"/><path class="cls-6" d="M49.23 17.29a.08.08 0 0 0 0-.05.06.06 0 0 0-.08 0 .08.08 0 0 0 0 .05"/><path class="cls-7" d="M49.23 17.29a.08.08 0 0 0 0-.05.06.06 0 0 0-.08 0 .08.08 0 0 0 0 .05Z"/><path class="cls-6" d="M49 17.54v-.05c0-.05 0 0 0 0a.06.06 0 0 0-.08 0 .07.07 0 0 0 0 .05"/><path class="cls-7" d="M49 17.54v-.05c0-.05 0 0 0 0a.06.06 0 0 0-.08 0 .07.07 0 0 0 0 .05Z"/><path class="cls-6" d="M48.77 17.8a.09.09 0 0 0 0-.05.06.06 0 0 0-.09 0 .09.09 0 0 0 0 .05"/><path class="cls-7" d="M48.77 17.8a.09.09 0 0 0 0-.05.06.06 0 0 0-.09 0 .09.09 0 0 0 0 .05Z"/><path class="cls-8" d="M50.15 15h-.08v.08l.08-.08Z"/><path class="cls-6" d="M49.92 15.29v-.05a.05.05 0 0 0-.08 0"/><path class="cls-8" d="M49.92 15.29v-.05a.05.05 0 0 0-.08 0l.08.05Z"/><path class="cls-6" d="M49.69 15.54v-.08h-.08"/><path class="cls-8" d="M49.69 15.54v-.08h-.08l.08.08Z"/><path class="cls-6" d="M49.46 15.79a.06.06 0 0 0-.09 0"/><path class="cls-9" d="M49.46 15.79a.06.06 0 0 0-.09 0h.09Z"/><path class="cls-6" d="M49.23 16a.06.06 0 0 0 0-.05.06.06 0 0 0-.09 0"/><path class="cls-9" d="M49.23 16a.06.06 0 0 0 0-.05.06.06 0 0 0-.09 0Z"/><path class="cls-6" d="M49 16.29a.09.09 0 0 0 0-.05.06.06 0 0 0-.09 0s0 0 0 .05"/><path class="cls-9" d="M49 16.29a.09.09 0 0 0 0-.05.06.06 0 0 0-.09 0s0 0 0 .05Z"/><path class="cls-6" d="M48.78 16.54a.06.06 0 0 0-.09 0 .06.06 0 0 0 0 .05"/><path class="cls-9" d="M48.78 16.54a.06.06 0 0 0-.09 0s0 0 0 .05ZM50.15 13.79v-.05a.06.06 0 0 0-.08 0 .09.09 0 0 0 0 .05Z"/><path class="cls-6" d="M49.92 14a.06.06 0 0 0 0-.05s-.06 0-.08 0a.09.09 0 0 0 0 .05"/><path class="cls-9" d="M49.92 14a.06.06 0 0 0 0-.05s-.06 0-.08 0a.09.09 0 0 0 0 .05s.07 0 .08 0Z"/><path class="cls-6" d="M49.7 14.29a.06.06 0 0 0-.09 0"/><path class="cls-9" d="M49.7 14.29a.06.06 0 0 0-.09 0Z"/><path class="cls-6" d="M49.47 14.54a.09.09 0 0 0 0-.05.06.06 0 0 0-.09 0"/><path class="cls-9" d="M49.47 14.54a.09.09 0 0 0 0-.05.06.06 0 0 0-.09 0 .06.06 0 0 0 .09.05Z"/><path class="cls-6" d="M49.24 14.79h-.08"/><path class="cls-9" d="M49.24 14.79h-.08.08Z"/><path class="cls-6" d="M49 15h-.08"/><path class="cls-9" d="M49 15h-.08.08Z"/><path class="cls-6" d="M48.78 15.29h-.08"/><path class="cls-9" d="M48.78 15.29v-.08h-.08a.05.05 0 0 0 0 .08s.06 0 .08 0ZM49 13.79h-.08c-.02 0 0 0 0 .05Z"/><path class="cls-6" d="M48.78 14v-.05a.06.06 0 0 0-.08 0s0 0 0 .05"/><path class="cls-9" d="M48.78 14v-.05a.06.06 0 0 0-.08 0s0 0 0 .05.06 0 .08 0Z"/></g><g class="cls-4"><path class="cls-6" d="M48.9 37.58a.06.06 0 0 0 0-.09.06.06 0 0 0-.08 0 .08.08 0 0 0 0 .05M48.9 36.33a.06.06 0 0 0 0-.09.06.06 0 0 0-.08 0 .08.08 0 0 0 0 .05M48.9 35.07v-.05h-.08a.09.09 0 0 0 0 .05M48.9 33.82h-.08c-.08 0 0 0 0 0M48.91 32.57a.05.05 0 0 0-.08 0M48.91 31.32v-.05a.05.05 0 0 0-.08 0M48.9 30.07a.06.06 0 0 0 0-.09.06.06 0 0 0-.08 0 .08.08 0 0 0 0 .05"/></g><g class="cls-15"><path class="cls-6" d="M48.78 30.07a.08.08 0 0 0 0-.05.06.06 0 0 0-.08 0 .06.06 0 0 0 0 .09M49.92 30.07a.06.06 0 1 0-.11 0"/></g><g class="cls-10"><path class="cls-6" d="M48.9 30.19a.06.06 0 0 0 0-.09.06.06 0 0 0-.08 0 .06.06 0 0 0 0 .09M48.89 28.94v-.05a.06.06 0 0 0-.08 0 .07.07 0 0 0 0 .05M48.9 27.69a.07.07 0 0 0 0-.05.07.07 0 0 0-.09 0 .08.08 0 0 0 0 .05M48.9 26.43v-.05h-.08v.05M48.9 25.18v-.05h-.08M48.9 23.93v-.08h-.08M48.9 22.68a.06.06 0 0 0 0-.05.06.06 0 0 0-.08 0 .07.07 0 0 0 0 .05M48.91 21.43a.07.07 0 0 0 0-.05.06.06 0 0 0-.08 0 .08.08 0 0 0 0 .05M48.91 20.18a.06.06 0 0 0 0-.09.06.06 0 0 0-.08 0 .06.06 0 0 0 0 .09M48.9 18.93a.06.06 0 0 0 0-.09.06.06 0 0 0-.08 0 .08.08 0 0 0 0 .05"/></g><g class="cls-13"><path class="cls-6" d="M49.92 30.19a.06.06 0 1 0-.11 0"/><path class="cls-5" d="M49.92 30.19a.06.06 0 1 0-.11 0Z"/><path class="cls-6" d="M48.78 18.93a.08.08 0 0 0 0-.05.06.06 0 0 0-.08 0 .06.06 0 0 0 0 .09M49.92 18.93a.06.06 0 1 0-.11 0"/></g><g class="cls-11"><path class="cls-6" d="M35.31 15.29v-.08h-.08a.06.06 0 0 0 0 .1M35.31 14v-.05a.06.06 0 0 0-.08 0s0 0 0 .05"/></g><g class="cls-12"><path class="cls-6" d="M42.05 19.05h.05a.07.07 0 0 0 0-.05s-.05 0-.08 0a.07.07 0 0 0-.02 0"/><path class="cls-5" d="M42.05 19.05h.05a.07.07 0 0 0 0-.05s-.05 0-.08 0a.07.07 0 0 0-.02 0Z"/><path class="cls-6" d="M40.91 19.05a.06.06 0 0 0 0-.09.06.06 0 0 0-.08 0 .06.06 0 0 0 0 .09"/><path class="cls-5" d="M40.91 19.05a.06.06 0 0 0 0-.09.06.06 0 0 0-.08 0 .06.06 0 0 0 0 .09Z"/><path class="cls-6" d="M39.77 19.05a.06.06 0 0 0 0-.09.06.06 0 0 0-.08 0 .06.06 0 0 0 0 .09"/><path class="cls-5" d="M39.77 19.05a.06.06 0 0 0 0-.09.06.06 0 0 0-.08 0 .06.06 0 0 0 0 .09.05.05 0 0 0 .08 0Z"/><path class="cls-6" d="M38.62 19.05h.05a.43.43 0 0 0 0-.05.07.07 0 0 0-.09 0 .07.07 0 0 0 0 .05"/><path class="cls-7" d="M38.62 19.05h.05a.43.43 0 0 0 0-.05.07.07 0 0 0-.09 0 .07.07 0 0 0 0 .05Z"/><path class="cls-6" d="M37.48 19.05a.06.06 0 0 0 0-.09.06.06 0 0 0-.08 0 .06.06 0 0 0 0 .09"/><path class="cls-7" d="M37.48 19.05a.06.06 0 0 0 0-.09.06.06 0 0 0-.08 0 .06.06 0 0 0 0 .09Z"/><path class="cls-6" d="M36.33 19.05h.05a.07.07 0 0 0 0-.05.08.08 0 0 0-.09 0 .07.07 0 0 0 0 .05"/><path class="cls-7" d="M36.33 19.05h.05a.07.07 0 0 0 0-.05.08.08 0 0 0-.09 0 .07.07 0 0 0 0 .05Z"/><path class="cls-6" d="M48.9 19.05a.06.06 0 0 0 0-.09.06.06 0 0 0-.08 0 .06.06 0 0 0 0 .09M48.89 17.8v-.05a.06.06 0 0 0-.08 0 .07.07 0 0 0 0 .05M48.9 16.54a.06.06 0 0 0-.09 0s0 0 0 .05M48.9 15.29v-.08h-.08v.08M48.9 14a.07.07 0 0 0 .1 0s0 0 0-.05a.06.06 0 0 0-.08 0s0 0 0 .05"/></g><g class="cls-14"><path class="cls-6" d="M49.92 19.05V19a.08.08 0 0 0-.09 0 .07.07 0 0 0 0 .05"/><path class="cls-5" d="M49.92 19.05V19a.08.08 0 0 0-.09 0 .07.07 0 0 0 0 .05Z"/></g><g class="cls-2"><path class="cls-6" d="M47.08 40.53H33.26a5.77 5.77 0 0 0-4.12 1.74V20.72A4.16 4.16 0 0 1 33.26 17h13.82Zm-19.51 1.78a5.74 5.74 0 0 0-4.14-1.78H9.6V17h13.83a4.15 4.15 0 0 1 4.12 3.73v.41Zm20.3-26.9H33.26a5.74 5.74 0 0 0-4.92 2.79 5.73 5.73 0 0 0-4.91-2.79H8.81a.79.79 0 0 0-.81.79v25.11a.78.78 0 0 0 .78.79h14.65a4.45 4.45 0 0 1 4.16 2.57.79.79 0 0 0 .77.62h.28a.8.8 0 0 0 .74-.51 4.17 4.17 0 0 1 3.88-2.68h14.61a.79.79 0 0 0 .79-.79V16.2a.8.8 0 0 0-.79-.79"/><path class="cls-16" d="M47.08 17v23.53H33.26a5.77 5.77 0 0 0-4.12 1.74V20.72A4.16 4.16 0 0 1 33.26 17ZM27.57 21.13v21.18a5.74 5.74 0 0 0-4.14-1.78H9.6V17h13.83a4.15 4.15 0 0 1 4.12 3.73v.41"/><path class="cls-6" d="M42.7 25.15h-9.18a.46.46 0 0 1 0-.92h9.18a.46.46 0 1 1 0 .92M42.7 28.91h-9.18a.47.47 0 0 1-.46-.46.46.46 0 0 1 .46-.46h9.18a.46.46 0 0 1 .47.46.47.47 0 0 1-.47.46M42.7 32.66h-9.18a.46.46 0 0 1-.46-.46.47.47 0 0 1 .46-.46h9.18a.47.47 0 0 1 .47.46.46.46 0 0 1-.47.46M23.08 25.15H13.9a.46.46 0 1 1 0-.92h9.18a.46.46 0 0 1 0 .92M23.08 28.91H13.9a.47.47 0 0 1-.47-.46.46.46 0 0 1 .47-.45h9.18a.46.46 0 0 1 .46.46.47.47 0 0 1-.46.46M23.08 32.66H13.9a.46.46 0 0 1-.47-.46.47.47 0 0 1 .47-.46h9.18a.47.47 0 0 1 .46.46.46.46 0 0 1-.46.46"/></g></g></g></svg>