<svg id="Layer_1" data-name="Layer 1" xmlns="http://www.w3.org/2000/svg" viewBox="0 0 84.75 126.34"><defs><style>.cls-1,.cls-5,.cls-8,.cls-9{fill:none;}.cls-10,.cls-2,.cls-3{fill:#003767;}.cls-10,.cls-11,.cls-12,.cls-2,.cls-5,.cls-8,.cls-9{stroke:#003767;}.cls-11,.cls-12,.cls-2,.cls-5{stroke-miterlimit:10;}.cls-2{stroke-width:0.28px;}.cls-4,.cls-6{fill:#fff;}.cls-4{opacity:0.62;}.cls-10,.cls-11,.cls-12,.cls-5,.cls-9{stroke-width:2.83px;}.cls-7{fill:url(#Unnamed_Pattern);}.cls-10,.cls-8,.cls-9{stroke-linecap:round;stroke-linejoin:round;}.cls-8{stroke-width:4.25px;}.cls-11{fill:#ffd77d;}.cls-12{fill:#ffe9c7;}</style><pattern id="Unnamed_Pattern" data-name="Unnamed Pattern" width="48.13" height="36.21" patternTransform="translate(-28.07 -19.69)" patternUnits="userSpaceOnUse" viewBox="0 0 48.13 36.2"><path class="cls-1" d="M0 0h48.13v36.2H0z"/><path class="cls-2" d="M47.33 33.2a.2.2 0 0 0 .14-.07.2.2 0 0 0 .07-.13.2.2 0 0 0-.06-.14.2.2 0 0 0-.28 0 .22.22 0 0 0-.06.15.2.2 0 0 0 .05.2.2.2 0 0 0 .1.1zm-.8.8a.2.2 0 0 0 .13-.05.2.2 0 0 0 .07-.15.2.2 0 0 0-.4 0 .23.23 0 0 0 .05.14.2.2 0 0 0 .14.06zm-.8.8a.2.2 0 0 0 .14-.06.2.2 0 0 0 .05-.14.2.2 0 0 0-.06-.14.2.2 0 0 0-.28 0 .2.2 0 0 0-.06.14.2.2 0 0 0 .06.14.18.18 0 0 0 .14.06zm-.8.8a.22.22 0 0 0 .13-.05.2.2 0 0 0 .06-.15.2.2 0 0 0-.34-.14.2.2 0 0 0-.06.14.18.18 0 0 0 .06.15.2.2 0 0 0 .14.06zm2.4-6.43a.2.2 0 0 0 .2-.2.2.2 0 0 0-.05-.14.2.2 0 0 0-.3 0 .2.2 0 0 0-.04.14.2.2 0 0 0 .06.14.16.16 0 0 0 .14.1zm-.8.83a.22.22 0 0 0 .14-.05.2.2 0 0 0 .07-.15.2.2 0 1 0-.35.14.2.2 0 0 0 .1.06zm-.8.77a.2.2 0 0 0 .15-.06.2.2 0 0 0 .05-.1.23.23 0 0 0-.05-.1.2.2 0 0 0-.3 0 .2.2 0 0 0-.05.2.2.2 0 0 0 .07.2.18.18 0 0 0 .13.1zm-.8.8a.2.2 0 0 0 .13-.04.22.22 0 0 0 .06-.15.24.24 0 0 0-.05-.14.22.22 0 0 0-.3 0 .18.18 0 0 0-.05.13.2.2 0 0 0 .06.15.2.2 0 0 0 .14.06zm-.8.83a.2.2 0 0 0 .13-.07.2.2 0 0 0 .06-.14.2.2 0 0 0-.06-.2.22.22 0 0 0-.26 0 .2.2 0 0 0-.05.1.23.23 0 0 0 .05.1.2.2 0 0 0 .12.1zm-.8.8a.18.18 0 0 0 .13-.07.2.2 0 0 0 .06-.13.2.2 0 0 0-.07-.15.2.2 0 0 0-.33.15.2.2 0 0 0 .06.14.18.18 0 0 0 .14.05zm-.83.8a.22.22 0 0 0 .15-.05.2.2 0 0 0 .07-.15.2.2 0 1 0-.4 0 .2.2 0 0 0 .2.2zm-.8.8a.2.2 0 0 0 .16-.06.2.2 0 0 0 0-.28.2.2 0 0 0-.28 0 .2.2 0 0 0-.06.14.18.18 0 0 0 .06.14.18.18 0 0 0 .13.06zm-.8.8a.2.2 0 0 0 .1-.06.17.17 0 0 0 .06-.14.2.2 0 0 0-.06-.14.2.2 0 0 0-.28 0 .22.22 0 0 0-.06.14.2.2 0 0 0 .05.14.23.23 0 0 0 .2.07zm6.45-10.46a.2.2 0 0 0 .14-.06.2.2 0 0 0 0-.14.2.2 0 0 0-.1-.14.2.2 0 0 0-.4.14.2.2 0 0 0 0 .14.18.18 0 0 0 .1.06zm-.8.8a.2.2 0 0 0 .14-.05.2.2 0 0 0 0-.2.22.22 0 0 0-.1-.2.2.2 0 0 0-.3 0 .2.2 0 0 0-.1.1.2.2 0 0 0 0 .1.17.17 0 0 0 .1 0zm-.82.8a.2.2 0 0 0 .2-.2.22.22 0 0 0-.05-.13.2.2 0 0 0-.3 0 .2.2 0 0 0-.05.2.2.2 0 0 0 .2.2zm-.8.8a.2.2 0 0 0 .14-.04.22.22 0 0 0 .06-.15.18.18 0 0 0-.06-.13.2.2 0 0 0-.34.13.2.2 0 0 0 .06.15.2.2 0 0 0 .1.05zm-.8.82a.2.2 0 0 0 .14-.06.2.2 0 0 0 .06-.14.18.18 0 0 0-.06-.16.2.2 0 0 0-.27 0 .2.2 0 0 0 .13.36zm-.8.8a.2.2 0 0 0 .2-.2.2.2 0 0 0-.06-.13.2.2 0 0 0-.28 0 .23.23 0 0 0-.1.15.2.2 0 0 0 0 .14.17.17 0 0 0 .1.05zm-.83.84a.2.2 0 0 0 .16-.06.2.2 0 0 0 .06-.14.2.2 0 0 0-.35-.14.2.2 0 0 0-.06.14.2.2 0 0 0 .1.14.18.18 0 0 0 .2.06zm-.8.77a.2.2 0 0 0 .16-.06.2.2 0 0 0 .05-.1.18.18 0 0 0 0-.1.2.2 0 0 0-.3 0 .18.18 0 0 0 0 .2.2.2 0 0 0 .1.2.18.18 0 0 0 .2.1zm-.8.8a.2.2 0 0 0 .2-.2.24.24 0 0 0-.04-.13.2.2 0 0 0-.3 0 .17.17 0 0 0-.05.13.2.2 0 0 0 .1.15.22.22 0 0 0 .2.06zm-.8.83a.2.2 0 0 0 .15-.07.2.2 0 0 0 .06-.14.2.2 0 0 0 0-.2.22.22 0 0 0-.2 0 .2.2 0 0 0 0 .1.23.23 0 0 0 .1.1.22.22 0 0 0 .1.1zm-.8.8a.2.2 0 0 0 .2-.2.22.22 0 0 0-.07-.16.2.2 0 0 0-.33.15.2.2 0 0 0 .05.1.2.2 0 0 0 .15 0zm-.8.8a.2.2 0 0 0 .14-.06.2.2 0 0 0 .06-.14.2.2 0 0 0-.07-.14.2.2 0 0 0-.28 0 .2.2 0 0 0-.06.14.23.23 0 0 0 0 .14.2.2 0 0 0 .1.06zm-.8.8a.2.2 0 0 0 .13-.05.2.2 0 0 0 .06-.15.18.18 0 0 0-.1-.14.2.2 0 0 0-.3 0 .18.18 0 0 0-.1.13.18.18 0 0 0 0 .1.2.2 0 0 0 .1 0zm-.8.8a.2.2 0 0 0 .2-.2.18.18 0 0 0-.1-.14.2.2 0 0 0-.28 0 .2.2 0 0 0 0 .3.2.2 0 0 0 .17.04zm10.45-14.48a.2.2 0 0 0 .14-.06.2.2 0 0 0 0-.14.2.2 0 0 0-.1-.14.2.2 0 0 0-.3 0 .2.2 0 0 0-.1.15.22.22 0 0 0 0 .14.2.2 0 0 0 .1.05zm-.8.8a.2.2 0 0 0 .14-.06.22.22 0 0 0 0-.14.2.2 0 0 0-.4-.14.22.22 0 0 0-.1.14.2.2 0 0 0 .2.2zm-.8.8a.2.2 0 0 0 .2-.2.22.22 0 0 0-.06-.13.2.2 0 0 0-.3 0 .2.2 0 0 0-.1.1.24.24 0 0 0 0 .1.2.2 0 0 0 .1 0zm-.8.82a.2.2 0 0 0 .13-.06.2.2 0 0 0 .06-.14.2.2 0 0 0-.06-.15.2.2 0 0 0-.28 0 .2.2 0 0 0-.06.1.2.2 0 0 0 .05.1.2.2 0 0 0 .1 0zm-.8.8a.2.2 0 0 0 .13-.07.17.17 0 0 0 .06-.13A.2.2 0 0 0 44 24a.18.18 0 0 0-.06.14.2.2 0 0 0 .06.14.2.2 0 0 0 .14.06zm-.82.8a.2.2 0 0 0 .14-.06.2.2 0 0 0 .06-.14.2.2 0 0 0-.06-.15.2.2 0 0 0-.3 0 .2.2 0 0 0-.04.1.24.24 0 0 0 .05.1.22.22 0 0 0 .15 0zm-.8.8a.2.2 0 0 0 .14-.05.22.22 0 0 0 .06-.2.2.2 0 0 0-.07-.2.2.2 0 0 0-.28 0 .2.2 0 0 0-.06.1.2.2 0 0 0 .06.1.2.2 0 0 0 .14 0zm-.8.8a.2.2 0 0 0 .14-.05.2.2 0 0 0 .05-.2.18.18 0 0 0-.06-.2.2.2 0 0 0-.28 0 .2.2 0 0 0-.06.1.2.2 0 0 0 .06.1.18.18 0 0 0 .14 0zm-.8.8a.18.18 0 0 0 .13-.05.17.17 0 0 0 .06-.2.2.2 0 0 0-.34-.2.22.22 0 0 0-.06.1.2.2 0 0 0 .2.2zm-.83.82a.2.2 0 0 0 .15-.06.2.2 0 0 0 .06-.14.2.2 0 0 0-.3-.16.18.18 0 0 0 0 .14.2.2 0 0 0 .1.14.18.18 0 0 0 .1.08zm-.8.8a.2.2 0 0 0 .15-.05.2.2 0 0 0 .06-.1.2.2 0 0 0 0-.1.2.2 0 0 0-.3.2.2.2 0 0 0 .1.2.2.2 0 0 0 .2.1zm-.8.84a.2.2 0 0 0 .15-.06.2.2 0 0 0 0-.28.22.22 0 0 0-.3 0 .22.22 0 0 0-.05.15.22.22 0 0 0 .06.2.2.2 0 0 0 .14.1zm-.8.77a.2.2 0 0 0 .15-.06.2.2 0 0 0 .05-.1.23.23 0 0 0-.05-.1.2.2 0 0 0-.3 0 .18.18 0 0 0-.05.2.2.2 0 0 0 .07.2.18.18 0 0 0 .13.1zm-.8.8a.22.22 0 0 0 .1-.05.2.2 0 0 0 .06-.15.2.2 0 0 0-.06-.14.2.2 0 0 0-.28 0 .17.17 0 0 0-.06.13.2.2 0 0 0 .06.15.22.22 0 0 0 .17.1zm-.8.83a.2.2 0 0 0 .13-.08.18.18 0 0 0 .06-.13.2.2 0 0 0-.3-.2.22.22 0 0 0-.1.1.2.2 0 0 0 0 .1.2.2 0 0 0 .1.1zm-.8.8a.2.2 0 0 0 .13-.07.2.2 0 0 0 .06-.13.22.22 0 0 0-.1-.15.2.2 0 0 0-.3.3.2.2 0 0 0 .1.04zm-.82.8a.2.2 0 0 0 .15-.06.2.2 0 0 0 .05-.14.2.2 0 0 0-.05-.14.2.2 0 0 0-.35.14.2.2 0 0 0 .2.2zm-.8.8a.2.2 0 0 0 .14-.06.2.2 0 0 0 .05-.14.18.18 0 0 0-.06-.14.2.2 0 0 0-.2 0 .17.17 0 0 0 0 .13.18.18 0 0 0 .1.1.2.2 0 0 0 .2 0zm-.8.8a.2.2 0 0 0 .12-.06.17.17 0 0 0 .06-.14.2.2 0 0 0-.06-.14.2.2 0 0 0-.34.14.2.2 0 0 0 .06.15.2.2 0 0 0 .15.05zm14.48-18.5a.2.2 0 0 0 .2-.2.2.2 0 0 0-.06-.14.2.2 0 0 0-.28 0 .2.2 0 0 0-.06.15.18.18 0 0 0 .06.2.2.2 0 0 0 .14.1zm-.8.8a.2.2 0 0 0 .14-.06.2.2 0 0 0 .06-.14.2.2 0 0 0-.06-.14.2.2 0 0 0-.3 0 .2.2 0 0 0-.04.14.2.2 0 0 0 .05.14.2.2 0 0 0 .2.06zm-.8.8a.2.2 0 0 0 .13-.04.22.22 0 0 0 0-.15.18.18 0 0 0-.1-.1.2.2 0 0 0-.3 0 .2.2 0 0 0-.1.2.2.2 0 0 0 0 .2.2.2 0 0 0 .1.1zm-.82.8a.2.2 0 0 0 .14-.04.22.22 0 0 0 .06-.15.2.2 0 0 0-.06-.1.2.2 0 0 0-.28 0 .2.2 0 0 0-.06.2.2.2 0 0 0 .06.2.22.22 0 0 0 .14.1zm-.8.82a.2.2 0 0 0 .14-.06.2.2 0 0 0 .06-.14.2.2 0 0 0-.06-.12.2.2 0 0 0-.28 0 .2.2 0 0 0-.05.14.2.2 0 0 0 .06.14.22.22 0 0 0 .2.04zm-.8.8a.2.2 0 0 0 .14-.06.2.2 0 0 0 0-.28.2.2 0 0 0-.28 0 .2.2 0 0 0-.06.15.18.18 0 0 0 .06.14.2.2 0 0 0 .14.05zm-.8.8a.2.2 0 0 0 .14-.06.2.2 0 0 0 .06-.14.22.22 0 0 0-.06-.14.2.2 0 0 0-.3 0 .22.22 0 0 0-.05.14.22.22 0 0 0 .06.14.18.18 0 0 0 .1.06zm-.8.8a.18.18 0 0 0 .13-.05.2.2 0 0 0 .06-.14.18.18 0 0 0-.06-.14.2.2 0 0 0-.28 0 .18.18 0 0 0-.1.1.2.2 0 0 0 0 .1.2.2 0 0 0 .1 0zm-.82.82a.2.2 0 0 0 .15-.07.17.17 0 0 0 .05-.13.2.2 0 0 0-.06-.15.2.2 0 0 0-.28 0 .18.18 0 0 0-.06.1.22.22 0 0 0 .06.1.2.2 0 0 0 .14 0zm-.8.8a.23.23 0 0 0 .14-.06.2.2 0 0 0 .06-.14.2.2 0 0 0-.06-.14.22.22 0 0 0-.26 0 .2.2 0 0 0-.05.14.2.2 0 0 0 .06.14.2.2 0 0 0 .2.06zm-.8.8a.2.2 0 0 0 .14-.06.18.18 0 0 0 .06-.14.2.2 0 0 0-.07-.15.2.2 0 0 0-.34.1.22.22 0 0 0 .1.1.2.2 0 0 0 .2 0zm-.82.8a.2.2 0 0 0 .16-.05.22.22 0 0 0 .06-.2.2.2 0 0 0-.07-.2.2.2 0 0 0-.28 0 .2.2 0 0 0-.06.1.2.2 0 0 0 .1.1.2.2 0 0 0 .2 0zm-.8.8a.2.2 0 0 0 .15-.05.2.2 0 0 0 .05-.2.2.2 0 0 0-.06-.2.2.2 0 0 0-.28 0 .18.18 0 0 0-.06.1.24.24 0 0 0 .06.1.2.2 0 0 0 .14 0zm-.8.8a.2.2 0 0 0 .1-.32.2.2 0 0 0-.28 0 .2.2 0 0 0 0 .3.2.2 0 0 0 .18.03zm-.8.82a.2.2 0 0 0 .2-.2.2.2 0 0 0-.06-.16.2.2 0 0 0-.24 0 .2.2 0 0 0-.06.15.18.18 0 0 0 .06.14.2.2 0 0 0 .1 0zm-.8.8a.18.18 0 0 0 .13-.05.2.2 0 0 0 .06-.1.2.2 0 0 0-.1-.1.2.2 0 0 0-.3 0 .22.22 0 0 0-.1.2.2.2 0 0 0 0 .2.2.2 0 0 0 .1 0zm-.82.84a.2.2 0 0 0 .15-.06.2.2 0 0 0 .05-.14.2.2 0 0 0-.34-.14.2.2 0 0 0 0 .28.2.2 0 0 0 .14.06zm-.8.77a.2.2 0 0 0 .15-.06.2.2 0 0 0 .05-.1.2.2 0 0 0-.06-.1.2.2 0 0 0-.28 0 .2.2 0 0 0-.06.2.2.2 0 0 0 .06.2.18.18 0 0 0 .14.1zm-.8.8a.2.2 0 0 0 .12-.05.2.2 0 0 0 .06-.15.18.18 0 0 0-.06-.14.22.22 0 0 0-.28 0 .2.2 0 0 0-.06.14.18.18 0 0 0 .06.14.2.2 0 0 0 .16.1zm-.8.83a.2.2 0 0 0 .13-.07.2.2 0 0 0 .1-.14.23.23 0 0 0 0-.2.22.22 0 0 0-.3 0 .2.2 0 0 0 0 .1.23.23 0 0 0 .1.1.22.22 0 0 0 .2.1zm-.8.8a.2.2 0 0 0 .13-.07.2.2 0 0 0 .1-.13.25.25 0 0 0 0-.15.22.22 0 0 0-.3 0 .22.22 0 0 0 0 .14.2.2 0 0 0 .1.1.2.2 0 0 0 .2 0zm-.82.8a.2.2 0 0 0 .15-.06.2.2 0 0 0 .1-.14.2.2 0 0 0 0-.14.2.2 0 0 0-.3 0 .22.22 0 0 0 0 .14.2.2 0 0 0 .1.15.18.18 0 0 0 .2.05zm-.8.8a.2.2 0 0 0 .14-.05.2.2 0 0 0 .06-.15.2.2 0 0 0-.06-.14.2.2 0 0 0-.28 0 .2.2 0 0 0-.06.14.2.2 0 0 0 .06.14.2.2 0 0 0 .14.06zm-.8.8a.2.2 0 0 0 .14-.06.17.17 0 0 0 .06-.14.2.2 0 0 0-.06-.14.2.2 0 0 0-.28 0 .2.2 0 0 0-.06.14.2.2 0 0 0 .2.2zm18.5-22.52a.2.2 0 0 0 .15-.08.2.2 0 0 0 .1-.14.18.18 0 0 0 0-.14.2.2 0 0 0-.3.14.2.2 0 0 0 .1.14.18.18 0 0 0 .2.08zm-.8.8a.2.2 0 0 0 .14-.06.2.2 0 0 0 .06-.14.2.2 0 0 0-.06-.14.2.2 0 0 0-.28 0 .2.2 0 0 0 0 .3.2.2 0 0 0 .14.04zm-.8.8a.2.2 0 0 0 .14-.06.2.2 0 0 0 .1-.14.2.2 0 0 0-.06-.14.2.2 0 0 0-.3 0 .22.22 0 0 0-.05.14.2.2 0 0 0 0 .15.18.18 0 0 0 .1.05zm-.76.82a.18.18 0 0 0 .14-.07.2.2 0 0 0 .06-.14.2.2 0 0 0-.06-.2.2.2 0 0 0-.28 0 .18.18 0 0 0-.06.1.2.2 0 0 0 .06.1.2.2 0 0 0 .14 0zm-.85.8a.2.2 0 0 0 .14-.07.17.17 0 0 0 0-.14.2.2 0 0 0-.4-.2.2.2 0 0 0-.1.1.2.2 0 0 0 .2.2zm-.8.8a.2.2 0 0 0 .2-.2.2.2 0 0 0-.07-.15.2.2 0 0 0-.28 0 .2.2 0 0 0-.05.14.2.2 0 0 0 .06.1.18.18 0 0 0 .2 0zm-.8.8a.2.2 0 0 0 .14-.06.2.2 0 0 0 0-.14.2.2 0 0 0-.1-.14.2.2 0 0 0-.3 0 .2.2 0 0 0-.1.14.2.2 0 0 0 0 .14.2.2 0 0 0 .1.06zm-.82.8a.2.2 0 0 0 .15-.05.2.2 0 0 0 .05-.14.18.18 0 0 0-.06-.1.2.2 0 0 0-.28 0 .2.2 0 0 0-.1.2.18.18 0 0 0 0 .2.2.2 0 0 0 .1.1zm-.8.8a.2.2 0 0 0 .15-.05.2.2 0 0 0 .05-.14.2.2 0 0 0-.06-.1.2.2 0 0 0-.28 0 .2.2 0 0 0-.1.2.2.2 0 0 0 0 .2.18.18 0 0 0 .1.1zm-.8.8a.2.2 0 0 0 .14-.04.2.2 0 0 0 .06-.15.2.2 0 0 0-.06-.1.2.2 0 0 0-.27 0 .18.18 0 0 0-.05.2.2.2 0 0 0 .06.2.2.2 0 0 0 .2.1zm-.8.82a.2.2 0 0 0 .13-.07.18.18 0 0 0 .06-.13.24.24 0 0 0-.06-.15.22.22 0 0 0-.3 0 .2.2 0 0 0-.04.14.2.2 0 0 0 .06.2.18.18 0 0 0 .14.1zm-.83.8a.2.2 0 0 0 .16-.06.2.2 0 0 0 .05-.14.2.2 0 0 0-.3-.14.22.22 0 0 0 0 .14.2.2 0 0 0 .1.14.2.2 0 0 0 .2.06zm-.8.8a.2.2 0 0 0 .16-.05.22.22 0 0 0 .05-.14.24.24 0 0 0 0-.14.2.2 0 0 0-.3 0 .2.2 0 0 0 0 .1.22.22 0 0 0 .1.1.2.2 0 0 0 .2 0zm-.8.82a.2.2 0 0 0 .1-.06.2.2 0 0 0 .06-.14.2.2 0 0 0-.06-.15.2.2 0 0 0-.28 0 .18.18 0 0 0-.06.1.2.2 0 0 0 .06.1.2.2 0 0 0 .2 0zm-.8.8a.2.2 0 0 0 .14-.05.2.2 0 0 0 .06-.2.2.2 0 0 0-.06-.2.2.2 0 0 0-.24 0 .2.2 0 0 0-.06.1.2.2 0 0 0 .06.1.2.2 0 0 0 .1 0zm-.8.8a.2.2 0 0 0 .14-.06.2.2 0 0 0 .06-.14.23.23 0 0 0-.06-.15.2.2 0 0 0-.3 0 .2.2 0 0 0-.04.1.2.2 0 0 0 .06.1.2.2 0 0 0 .14 0zm-.8.8a.2.2 0 0 0 .14-.05.2.2 0 0 0 .05-.2.2.2 0 0 0-.4-.2.2.2 0 0 0-.1.1.2.2 0 0 0 .2.2zm-.8.8a.2.2 0 0 0 .14-.05.2.2 0 0 0 .05-.2.2.2 0 0 0-.1-.2.2.2 0 0 0-.3 0 .2.2 0 0 0-.1.1.24.24 0 0 0 0 .1.2.2 0 0 0 .1 0zm-.82.8a.18.18 0 0 0 .12-.05.16.16 0 0 0 .06-.2.2.2 0 0 0-.06-.2.2.2 0 0 0-.28 0 .2.2 0 0 0 0 .3.2.2 0 0 0 .16 0zm-.8.82a.22.22 0 0 0 .14-.06.2.2 0 0 0 .06-.14.2.2 0 0 0-.06-.16.2.2 0 0 0-.28 0 .2.2 0 0 0-.06.15.23.23 0 0 0 .05.14.2.2 0 0 0 .15 0zm-.8.8a.18.18 0 0 0 .14-.05.2.2 0 0 0 .06-.1.2.2 0 0 0-.06-.1.2.2 0 0 0-.28 0 .22.22 0 0 0-.06.2.23.23 0 0 0 .05.2.2.2 0 0 0 .15 0zm-.8.84a.2.2 0 0 0 .14-.06.2.2 0 0 0 .05-.14.2.2 0 0 0-.06-.15.2.2 0 0 0-.2 0 .2.2 0 0 0 0 .14.22.22 0 0 0 .1.1.18.18 0 0 0 .2 0zm-.82.77a.2.2 0 0 0 .14-.34.2.2 0 0 0-.28 0 .2.2 0 0 0 0 .28.2.2 0 0 0 .14.1zm-.8.8a.2.2 0 0 0 .14-.05.2.2 0 0 0 .06-.15.18.18 0 0 0-.06-.14.2.2 0 0 0-.28 0 .18.18 0 0 0-.06.13.2.2 0 0 0 .06.15.22.22 0 0 0 .14.1zm-.8.83a.2.2 0 0 0 .2-.2.2.2 0 0 0-.35-.2.2.2 0 0 0 0 .28.18.18 0 0 0 .2.1zm-.8.8a.2.2 0 0 0 .13-.07.22.22 0 0 0 0-.13.22.22 0 0 0-.1-.14.2.2 0 0 0-.3 0 .2.2 0 0 0 0 .3.2.2 0 0 0 .1.03zm-.82.8a.2.2 0 0 0 .15-.06.2.2 0 0 0 0-.14.18.18 0 0 0-.1-.14.2.2 0 0 0-.4.14.2.2 0 0 0 0 .14.2.2 0 0 0 .1.06zm-.8.8a.2.2 0 0 0 .15-.06.2.2 0 0 0 0-.28.2.2 0 0 0-.3 0 .2.2 0 0 0-.1.14.18.18 0 0 0 0 .14.2.2 0 0 0 .1.06zm-.8.8a.22.22 0 0 0 .16-.06.2.2 0 0 0 0-.3.22.22 0 0 0-.3 0 .2.2 0 0 0-.04.14.2.2 0 0 0 .18.22zM47.37 9.05A.2.2 0 0 0 47.5 9a.2.2 0 0 0 0-.3.2.2 0 0 0-.28 0 .2.2 0 0 0-.05.15.2.2 0 0 0 .06.14.2.2 0 0 0 .14 0zm-.8.8a.2.2 0 0 0 .14-.05.2.2 0 0 0 .1-.14.2.2 0 0 0 0-.14.2.2 0 0 0-.3.14.18.18 0 0 0 .1.14.17.17 0 0 0 .2.06zm-.8.8a.2.2 0 0 0 .13-.04.22.22 0 0 0 .1-.1.2.2 0 0 0-.05-.1.2.2 0 0 0-.3 0 .2.2 0 0 0 0 .3.2.2 0 0 0 .1.1zm-.77.8a.2.2 0 0 0 .2-.2.2.2 0 0 0-.05-.13.2.2 0 0 0-.3 0 .18.18 0 0 0-.05.14.2.2 0 0 0 .07.15.18.18 0 0 0 .13.1zm-.84.82a.2.2 0 0 0 .14-.06.22.22 0 0 0 .06-.1.2.2 0 0 0-.36-.1.18.18 0 0 0-.06.2.2.2 0 0 0 .06.2.2.2 0 0 0 .16.1zm-.8.8a.2.2 0 0 0 .2-.2.18.18 0 0 0-.07-.13.2.2 0 0 0-.3 0 .2.2 0 0 0-.1.14.2.2 0 0 0 0 .14.18.18 0 0 0 .1.06zm-.8.8a.2.2 0 0 0 .13-.05.2.2 0 0 0 0-.14.2.2 0 0 0-.1-.14.2.2 0 0 0-.4.14.22.22 0 0 0 0 .14.2.2 0 0 0 .1.06zm-.82.8a.2.2 0 0 0 .15-.05.2.2 0 0 0 0-.14.22.22 0 0 0-.1-.14.22.22 0 0 0-.3 0 .22.22 0 0 0-.1.15.18.18 0 0 0 0 .1.2.2 0 0 0 .1 0zm-.8.83a.2.2 0 0 0 .2-.2.18.18 0 0 0-.06-.15.2.2 0 0 0-.28 0 .2.2 0 0 0-.06.14.2.2 0 0 0 .06.1.2.2 0 0 0 .14 0zm-.8.8a.18.18 0 0 0 .13-.07.17.17 0 0 0 .06-.13.2.2 0 0 0-.06-.15.2.2 0 0 0-.27.05.18.18 0 0 0-.06.14.2.2 0 0 0 .2.15zm-.8.8a.2.2 0 0 0 .13-.1.2.2 0 0 0 .06-.14.2.2 0 0 0-.07-.15.2.2 0 0 0-.28 0 .2.2 0 0 0-.05.2.24.24 0 0 0 .05.2.23.23 0 0 0 .15.1zm-.82.8a.2.2 0 0 0 .15-.06.18.18 0 0 0 .06-.14.22.22 0 0 0-.07-.15.2.2 0 0 0-.28 0 .2.2 0 0 0-.05.14.18.18 0 0 0 .06.1.18.18 0 0 0 .1 0zm-.8.8a.2.2 0 0 0 .15-.05.2.2 0 0 0 .05-.14.22.22 0 0 0-.05-.1.2.2 0 0 0-.3 0 .22.22 0 0 0-.05.2.2.2 0 0 0 .07.2.18.18 0 0 0 .1.1zm-.82.8a.2.2 0 0 0 .16-.05.2.2 0 0 0 .05-.14.2.2 0 0 0 0-.1.2.2 0 0 0-.3 0 .2.2 0 0 0 0 .2.2.2 0 0 0 .1.2.2.2 0 0 0 .2.1zm-.8.82a.2.2 0 0 0 .15-.06.2.2 0 0 0 .06-.14.2.2 0 0 0-.3-.12.18.18 0 0 0 0 .14.2.2 0 0 0 .1.14.22.22 0 0 0 .1.04zm-.8.8a.22.22 0 0 0 .15-.06.2.2 0 0 0 .06-.14.2.2 0 0 0 0-.15.2.2 0 0 0-.3 0 .2.2 0 0 0 0 .14.2.2 0 0 0 .1.2.2.2 0 0 0 .2.1zm-.8.8a.18.18 0 0 0 .14-.06.2.2 0 0 0 .05-.14.2.2 0 0 0-.1-.14.22.22 0 0 0-.3 0 .2.2 0 0 0-.1.14.2.2 0 0 0 0 .14.2.2 0 0 0 .1.06zm-.8.8a.2.2 0 0 0 .14-.05.2.2 0 0 0 .05-.14.18.18 0 0 0-.1-.14.2.2 0 0 0-.4.1.18.18 0 0 0 0 .1.2.2 0 0 0 .1 0zm-.8.8a.2.2 0 0 0 .1-.04.2.2 0 0 0 0-.3.2.2 0 0 0-.34.15.2.2 0 0 0 .23.2zm-.8.82a.23.23 0 0 0 .13-.06.2.2 0 0 0 .06-.14.18.18 0 0 0-.1-.14.2.2 0 0 0-.3 0 .2.2 0 0 0-.1.15.2.2 0 0 0 0 .13.2.2 0 0 0 .1.06zm-.82.8a.2.2 0 0 0 .2-.2.23.23 0 0 0-.06-.15.22.22 0 0 0-.3 0 .2.2 0 0 0-.04.1.18.18 0 0 0 .06.1.2.2 0 0 0 .14 0zm-.8.8a.2.2 0 0 0 .2-.2.18.18 0 0 0-.07-.13.2.2 0 0 0-.2 0 .2.2 0 0 0 0 .2.2.2 0 0 0 .1.2.16.16 0 0 0 .2.1zm-.8.8a.2.2 0 0 0 .13-.04.2.2 0 0 0 .1-.15.18.18 0 0 0 0-.14.2.2 0 0 0-.2 0 .2.2 0 0 0 0 .2.2.2 0 0 0 .1.2.2.2 0 0 0 .1.1zm-.8.8a.18.18 0 0 0 .12-.05.17.17 0 0 0 .06-.2.2.2 0 0 0-.06-.2.2.2 0 0 0-.34.1.2.2 0 0 0 .05.1.2.2 0 0 0 .2 0zm-.82.82a.2.2 0 0 0 .14-.06.2.2 0 0 0 .06-.14.2.2 0 0 0-.05-.16.2.2 0 0 0-.2 0 .18.18 0 0 0 0 .14.2.2 0 0 0 .1.14.2.2 0 0 0 .2.08zm-.8.8a.2.2 0 0 0 .2-.2.18.18 0 0 0-.06-.13.2.2 0 0 0-.3 0 .22.22 0 0 0-.04.14.23.23 0 0 0 .05.14.2.2 0 0 0 .2.1zm-.8.84a.2.2 0 0 0 .14-.06.2.2 0 0 0 .05-.14.2.2 0 0 0-.34-.14.2.2 0 0 0 0 .14.2.2 0 0 0 .1.14.2.2 0 0 0 .2.06zm-.8.77a.2.2 0 0 0 .14-.06.2.2 0 0 0 .05-.1.18.18 0 0 0-.06-.1.2.2 0 0 0-.3 0 .18.18 0 0 0-.1.2.2.2 0 0 0 0 .2.2.2 0 0 0 .1.1zm-.82.8a.22.22 0 0 0 .16-.05.2.2 0 0 0 0-.3.22.22 0 0 0-.28 0 .2.2 0 0 0-.06.15.2.2 0 0 0 .06.14.2.2 0 0 0 .12.1zm-.84.83a.2.2 0 0 0 .14-.07.2.2 0 0 0 .06-.14.23.23 0 0 0-.02-.2.22.22 0 0 0-.3 0 .2.2 0 0 0-.04.1.2.2 0 0 0 .06.1.2.2 0 0 0 .1.1zm-.76.8a.2.2 0 0 0 .13-.06.2.2 0 0 0 .07-.14.24.24 0 0 0-.06-.15.2.2 0 0 0-.28 0 .2.2 0 0 0-.1.15.22.22 0 0 0 .05.14.2.2 0 0 0 .2.05zm-.8.8a.22.22 0 0 0 .13-.05.2.2 0 0 0 0-.3.2.2 0 0 0-.28 0 .22.22 0 0 0-.1.15.2.2 0 0 0 0 .14.2.2 0 0 0 .1.06zm-.8.8a.2.2 0 0 0 .14-.06.2.2 0 0 0 0-.28.2.2 0 0 0-.28 0 .2.2 0 0 0-.06.14.18.18 0 0 0 .06.14.18.18 0 0 0 .13.06zm-.82.8a.2.2 0 0 0 .18-.06.2.2 0 0 0 0-.3.2.2 0 0 0-.28 0 .22.22 0 0 0-.06.15.22.22 0 0 0 .05.1.2.2 0 0 0 .2 0zM47.38 5a.2.2 0 0 0 .14 0 .2.2 0 0 0 .06-.14.2.2 0 0 0-.06-.14.2.2 0 0 0-.34.14.18.18 0 0 0 .06.14.2.2 0 0 0 .14 0zm-.8.84a.2.2 0 0 0 .14-.07.18.18 0 0 0 .06-.14.18.18 0 0 0-.06-.14.2.2 0 0 0-.28 0 .22.22 0 0 0-.06.1.2.2 0 0 0 .06.1.17.17 0 0 0 .14 0zm-.8.8a.2.2 0 0 0 .14-.06.2.2 0 0 0 .08-.14.2.2 0 0 0-.06-.14.2.2 0 0 0-.3 0 .22.22 0 0 0-.05.14.2.2 0 0 0 0 .14.16.16 0 0 0 .1.06zm-.78.8a.2.2 0 0 0 .15-.06.2.2 0 0 0 .05-.14.2.2 0 0 0-.34-.14.2.2 0 0 0-.06.14.2.2 0 0 0 .07.15.18.18 0 0 0 .13 0zm-.84.8a.2.2 0 0 0 .14-.05.2.2 0 1 0-.3-.3.2.2 0 0 0 0 .1.2.2 0 0 0 .06.1.2.2 0 0 0 .1.1zm-.8.8A.22.22 0 0 0 43.5 9a.2.2 0 0 0 0-.3.2.2 0 0 0-.3 0 .18.18 0 0 0-.04.15.2.2 0 0 0 .06.14.2.2 0 0 0 .14 0zm-.8.82a.2.2 0 0 0 .14-.06.2.2 0 0 0 .06-.14.2.2 0 0 0-.35-.14.2.2 0 0 0 0 .14.2.2 0 0 0 .2.2zm-.8.8a.2.2 0 0 0 .14-.06.2.2 0 0 0 .05-.14.2.2 0 0 0-.4 0 .2.2 0 0 0 .2.2zm-.82.8a.2.2 0 0 0 .14-.05.2.2 0 0 0 .06-.1.18.18 0 0 0-.06-.1.2.2 0 0 0-.28 0 .2.2 0 0 0-.06.2.2.2 0 0 0 .2.2zm-.8.8a.2.2 0 0 0 .14-.05.2.2 0 0 0 .06-.1.22.22 0 0 0-.06-.1.2.2 0 0 0-.28 0 .2.2 0 0 0-.06.2.2.2 0 0 0 .06.2.22.22 0 0 0 .14.1zm-.8.82a.18.18 0 0 0 .14-.08.2.2 0 0 0 .06-.14.23.23 0 0 0-.06-.15.2.2 0 0 0-.3 0 .2.2 0 0 0-.04.2.23.23 0 0 0 .05.2.2.2 0 0 0 .1.1zm-.8.8a.18.18 0 0 0 .13-.06.2.2 0 0 0 .06-.14.18.18 0 0 0-.06-.14.2.2 0 0 0-.28 0 .22.22 0 0 0-.1.15.22.22 0 0 0 0 .1.2.2 0 0 0 .1 0zm-.82.8a.2.2 0 0 0 .15-.06.2.2 0 0 0 0-.28.2.2 0 0 0-.3 0 .2.2 0 0 0 0 .28.18.18 0 0 0 .15.06zm-.8.82a.2.2 0 0 0 .2-.2.2.2 0 0 0-.06-.15.2.2 0 0 0-.28 0 .2.2 0 0 0-.06.14.2.2 0 0 0 .06.1.2.2 0 0 0 .14 0zm-.8.8a.22.22 0 0 0 .14-.06.2.2 0 0 0 .06-.14.2.2 0 0 0-.06-.15.2.2 0 0 0-.26.05.2.2 0 0 0 0 .28.2.2 0 0 0 .12.02zm-.82.8a.2.2 0 0 0 .15-.1.23.23 0 0 0 .06-.14.2.2 0 0 0 0-.15.2.2 0 0 0-.3 0 .2.2 0 0 0 0 .2.23.23 0 0 0 .1.2.22.22 0 0 0 .2.1zm-.8.8a.2.2 0 0 0 .15-.06.2.2 0 0 0 .06-.14.2.2 0 0 0 0-.14.2.2 0 0 0-.3 0 .22.22 0 0 0 0 .15.2.2 0 0 0 .1.2.2.2 0 0 0 .2.1zm-.8.8a.2.2 0 0 0 .15-.05.2.2 0 0 0 .05-.14.18.18 0 0 0-.06-.1.2.2 0 0 0-.28 0 .2.2 0 0 0-.06.2.2.2 0 0 0 .05.2.22.22 0 0 0 .15.1zm-.8.8a.2.2 0 0 0 .1-.05.2.2 0 0 0 .05-.14.18.18 0 0 0-.05-.1.22.22 0 0 0-.28 0 .2.2 0 0 0-.06.2.2.2 0 0 0 .06.2.18.18 0 0 0 .18.1zm-.8.82a.22.22 0 0 0 .14-.07.18.18 0 0 0 .05-.13.2.2 0 0 0-.1-.12.22.22 0 0 0-.3 0 .2.2 0 0 0-.1.14.2.2 0 0 0 0 .14.22.22 0 0 0 .1.04zm-.8.8a.2.2 0 0 0 .13-.06.2.2 0 0 0 .06-.14.24.24 0 0 0-.1-.15.2.2 0 0 0-.3 0 .2.2 0 0 0-.1.15.18.18 0 0 0 0 .14.2.2 0 0 0 .1.06zm-.82.8a.18.18 0 0 0 .15-.06.2.2 0 0 0 .05-.14.2.2 0 0 0-.05-.14.22.22 0 0 0-.3 0 .2.2 0 0 0-.04.14.2.2 0 0 0 0 .14.18.18 0 0 0 .1.06zm-.8.8a.2.2 0 0 0 .15-.05.2.2 0 0 0 .05-.14.2.2 0 0 0-.06-.14.2.2 0 0 0-.28 0 .2.2 0 0 0-.06.1.2.2 0 0 0 .2.2zm-.8.8a.2.2 0 0 0 .12-.04.2.2 0 0 0 0-.3.2.2 0 0 0-.28 0 .2.2 0 0 0-.06.15.2.2 0 0 0 .06.15.22.22 0 0 0 .15.05zm-.8.82a.18.18 0 0 0 .13-.06.16.16 0 0 0 .1-.13.18.18 0 0 0 0-.15.2.2 0 0 0-.2 0 .2.2 0 0 0 0 .15.23.23 0 0 0 .1.14.24.24 0 0 0 .2 0zm-.8.8a.2.2 0 0 0 .13-.06.2.2 0 0 0 .1-.14.2.2 0 0 0 0-.15.2.2 0 0 0-.3.1.22.22 0 0 0 .1.1.2.2 0 0 0 .2 0zm-.82.8a.2.2 0 0 0 .15-.05.2.2 0 0 0 .1-.2.2.2 0 0 0-.3-.2.2.2 0 0 0 0 .1.22.22 0 0 0 .1.1.2.2 0 0 0 .2 0zm-.8.8a.22.22 0 0 0 .14-.04.2.2 0 0 0 .06-.15.18.18 0 0 0-.06-.14.2.2 0 0 0-.28 0 .2.2 0 0 0-.06.2.2.2 0 0 0 .06.2.2.2 0 0 0 .14.1zm-.8.82a.2.2 0 0 0 .14-.07.17.17 0 0 0 .06-.2.2.2 0 0 0-.06-.2.2.2 0 0 0-.28 0 .16.16 0 0 0-.06.1.2.2 0 0 0 .06.1.2.2 0 0 0 .13 0zm-.86.8a.2.2 0 0 0 .14-.06.2.2 0 0 0 .06-.14.2.2 0 0 0 0-.16.2.2 0 0 0-.3 0 .18.18 0 0 0-.05.14.2.2 0 0 0 .06.14.2.2 0 0 0 .1.08zm-.75.8a.2.2 0 0 0 .13-.04.2.2 0 0 0 .07-.12.22.22 0 0 0-.07-.15.2.2 0 0 0-.28 0 .2.2 0 0 0-.1.15.23.23 0 0 0 .05.14.2.2 0 0 0 .2.03zm-.8.84a.2.2 0 0 0 .14-.06.2.2 0 0 0 0-.28.2.2 0 0 0-.3 0 .2.2 0 0 0 0 .28.18.18 0 0 0 .1.06zm-.82.77a.2.2 0 0 0 .15-.06.2.2 0 0 0 .05-.1.23.23 0 0 0-.05-.1.2.2 0 0 0-.35.2.2.2 0 0 0 .06.2.2.2 0 0 0 .1.1zm-.8.8a.2.2 0 0 0 .17-.05.2.2 0 0 0 0-.14.2.2 0 0 0 0-.15.22.22 0 0 0-.28 0 .2.2 0 0 0-.06.14.2.2 0 0 0 .06.15.22.22 0 0 0 .1.06zm-.83.83a.2.2 0 0 0 .14-.07.2.2 0 0 0 .06-.14.2.2 0 0 0-.3-.2.2.2 0 0 0-.07.1.23.23 0 0 0 .05.1.22.22 0 0 0 .12.1zm-.78.8a.2.2 0 0 0 .13-.06.2.2 0 0 0 .07-.14.2.2 0 0 0-.07-.15.2.2 0 0 0-.35.15.2.2 0 0 0 .05.14.2.2 0 0 0 .17.05zm-.82.8a.2.2 0 0 0 .15-.05.2.2 0 0 0 .07-.15.2.2 0 0 0-.06-.14.2.2 0 0 0-.3 0 .2.2 0 0 0-.05.14.2.2 0 0 0 .1.14.2.2 0 0 0 .2.06zm-.8.8a.2.2 0 0 0 .15-.05.2.2 0 0 0 .06-.15.18.18 0 0 0 0-.14.2.2 0 0 0-.3 0 .2.2 0 0 0 0 .14.2.2 0 0 0 .1.14.2.2 0 0 0 .2.06zm-.8.8a.22.22 0 0 0 .15-.05.2.2 0 0 0 0-.3.2.2 0 0 0-.28 0 .22.22 0 0 0-.06.15.2.2 0 0 0 .2.2zM47.4 1a.2.2 0 0 0 .13-.05.2.2 0 0 0 .06-.14.2.2 0 0 0-.4-.1.17.17 0 0 0-.1.2.2.2 0 0 0 0 .2.2.2 0 0 0 .1.1zm-.82.8a.18.18 0 0 0 .14-.05.2.2 0 0 0 .06-.14.18.18 0 0 0-.06-.1.2.2 0 0 0-.3 0 .2.2 0 0 0-.04.2.2.2 0 0 0 .05.2.2.2 0 0 0 .15.1zm-.8.82a.2.2 0 0 0 .14-.06.18.18 0 0 0 .08-.14.2.2 0 0 0-.06-.14.2.2 0 0 0-.3 0 .2.2 0 0 0-.04.14.2.2 0 0 0 .06.15.2.2 0 0 0 .1.05zm-.78.8a.2.2 0 0 0 .14-.05.23.23 0 0 0 .07-.15.2.2 0 0 0 0-.14.2.2 0 0 0-.3 0 .2.2 0 0 0 0 .14.2.2 0 0 0 .1.14.2.2 0 0 0 .2.06zm-.83.8a.2.2 0 0 0 .14-.05.2.2 0 0 0 0-.3.2.2 0 0 0-.2 0A.16.16 0 0 0 44 4a.2.2 0 0 0 .17.22zm-.8.78a.22.22 0 0 0 .14 0 .2.2 0 0 0 .1-.14.22.22 0 0 0 0-.14.2.2 0 0 0-.3 0 .2.2 0 0 0 0 .15.2.2 0 0 0 .1.14.2.2 0 0 0 .2 0zm-.8.84a.2.2 0 0 0 .2-.2.18.18 0 0 0-.07-.14.2.2 0 0 0-.34.14.22.22 0 0 0 .05.14.2.2 0 0 0 .2.06zm-.82.8a.18.18 0 0 0 .15-.06.2.2 0 0 0 .1-.14.23.23 0 0 0-.1-.14.2.2 0 0 0-.28 0 .2.2 0 0 0-.07.15.22.22 0 0 0 .06.14.2.2 0 0 0 .2 0zm-.8.8a.2.2 0 0 0 .15-.06.2.2 0 0 0 .05-.14.18.18 0 0 0-.06-.14.2.2 0 0 0-.3 0 .2.2 0 0 0-.1.14.18.18 0 0 0 0 .14.2.2 0 0 0 .1.06zm-.8.8a.2.2 0 0 0 .15-.06.2.2 0 0 0 .05-.18.2.2 0 0 0-.06-.14.2.2 0 0 0-.3 0 .2.2 0 0 0 0 .3.2.2 0 0 0 .1.08zm-.8.8a.2.2 0 0 0 .13-.04.17.17 0 0 0 .06-.13.2.2 0 0 0-.06-.15.2.2 0 0 0-.28 0 .2.2 0 0 0-.06.15.2.2 0 0 0 .06.13.22.22 0 0 0 .14.05zm-.8.82a.18.18 0 0 0 .13-.06.2.2 0 0 0 .06-.14.2.2 0 0 0-.35-.14.2.2 0 0 0-.1.14.18.18 0 0 0 0 .14.2.2 0 0 0 .1.06zm-.82.8a.2.2 0 0 0 .15-.06.2.2 0 0 0 .05-.14.2.2 0 0 0-.06-.15.22.22 0 0 0-.28 0 .2.2 0 0 0 0 .3.2.2 0 0 0 .1.1zm-.8.8a.2.2 0 0 0 .15-.06.2.2 0 0 0 .05-.14.2.2 0 0 0-.06-.14.2.2 0 0 0-.28 0 .2.2 0 0 0-.1.14.2.2 0 0 0 0 .15.2.2 0 0 0 .1.1zm-.8.8a.2.2 0 0 0 .14-.05.18.18 0 0 0 .05-.1.2.2 0 0 0-.32-.1.2.2 0 0 0-.06.2.18.18 0 0 0 .06.2.2.2 0 0 0 .12.1zm-.8.82a.2.2 0 0 0 .2-.2.2.2 0 0 0-.07-.15.2.2 0 0 0-.3 0 .18.18 0 0 0-.04.14.2.2 0 0 0 .2.2zm-.8.8a.2.2 0 0 0 .2-.2.22.22 0 0 0-.08-.15.2.2 0 0 0-.28 0 .2.2 0 0 0-.05.14.2.2 0 0 0 .06.14.18.18 0 0 0 .14.1zm-.83.8a.2.2 0 0 0 .16-.34.22.22 0 0 0-.3 0 .2.2 0 0 0 0 .28.2.2 0 0 0 .15.06zm-.8.82a.2.2 0 0 0 .15-.07.2.2 0 0 0 .05-.14.18.18 0 0 0-.1-.2.2.2 0 0 0-.28 0 .18.18 0 0 0-.06.1.2.2 0 0 0 .06.1.2.2 0 0 0 .18 0zm-.8.8a.18.18 0 0 0 .14-.07.16.16 0 0 0 .06-.14.2.2 0 0 0-.06-.2.2.2 0 0 0-.28 0 .2.2 0 0 0-.06.1.2.2 0 0 0 .2.2zm-.8.8a.2.2 0 0 0 .13-.35.2.2 0 0 0-.28 0 .2.2 0 0 0-.05.14.22.22 0 0 0 .05.1.22.22 0 0 0 .15 0zm-.8.8a.2.2 0 0 0 .14-.06.2.2 0 0 0 .06-.14.22.22 0 0 0-.07-.15.2.2 0 0 0-.28 0 .2.2 0 0 0-.05.14.2.2 0 0 0 .05.1.2.2 0 0 0 .14 0zm-.82.8a.2.2 0 0 0 .14-.04.2.2 0 0 0 .06-.15.2.2 0 0 0-.06-.1.2.2 0 0 0-.28 0 .2.2 0 0 0 0 .3.2.2 0 0 0 .14.1zm-.8.8a.2.2 0 0 0 .12-.04.2.2 0 0 0 .06-.15.18.18 0 0 0-.06-.1.2.2 0 0 0-.28 0 .2.2 0 0 0-.06.2.2.2 0 0 0 .06.2.2.2 0 0 0 .16.1zm-.8.8a.2.2 0 0 0 .14-.04.18.18 0 0 0 .06-.15.2.2 0 0 0-.06-.1.22.22 0 0 0-.3 0 .23.23 0 0 0-.04.2.2.2 0 0 0 .06.2.2.2 0 0 0 .14 0zm-.8.82a.2.2 0 0 0 .2-.2.22.22 0 0 0-.07-.15.2.2 0 0 0-.2 0 .2.2 0 0 0 0 .14.22.22 0 0 0 .1.2.2.2 0 0 0 .2.1zm-.82.8a.2.2 0 0 0 .15-.06.2.2 0 0 0 .1-.14.2.2 0 0 0 0-.15.2.2 0 0 0-.3.15.2.2 0 0 0 .1.14.18.18 0 0 0 .2.06zm-.8.8a.2.2 0 0 0 .15-.05.2.2 0 0 0 .1-.14.2.2 0 0 0 0-.14.2.2 0 0 0-.2 0 .24.24 0 0 0 0 .1.22.22 0 0 0 .1.1.24.24 0 0 0 .2 0zm-.8.8a.2.2 0 0 0 .14-.04.2.2 0 0 0 0-.3.2.2 0 0 0-.28 0 .18.18 0 0 0-.06.14.2.2 0 0 0 .06.15.2.2 0 0 0 .14.06zm-.8.82a.23.23 0 0 0 .14-.06.2.2 0 0 0 0-.3.2.2 0 0 0-.28 0 .2.2 0 0 0 0 .3.2.2 0 0 0 .14.06zm-.8.8a.2.2 0 0 0 .2-.2.2.2 0 0 0-.07-.14.2.2 0 0 0-.4.14.22.22 0 0 0 0 .14.2.2 0 0 0 .1.06zm-.82.8a.2.2 0 0 0 .15-.05.2.2 0 0 0 0-.2.18.18 0 0 0-.1-.2.2.2 0 0 0-.3 0 .2.2 0 0 0-.1.1.2.2 0 0 0 0 .1.2.2 0 0 0 .1 0zm-.8.8a.2.2 0 0 0 .15-.05.2.2 0 0 0 0-.2.18.18 0 0 0-.1-.2.2.2 0 0 0-.3 0 .2.2 0 0 0-.1.1.2.2 0 0 0 .2.2zm-.8.8a.18.18 0 0 0 .16-.05.16.16 0 0 0 0-.2.2.2 0 0 0 0-.2.2.2 0 0 0-.28 0 .16.16 0 0 0-.06.1.2.2 0 0 0 .06.1.2.2 0 0 0 .12 0zm-.84.82a.2.2 0 0 0 .14-.06.18.18 0 0 0 .06-.14.22.22 0 0 0-.03-.16.2.2 0 0 0-.28 0 .2.2 0 0 0-.1.15.23.23 0 0 0 0 .14.25.25 0 0 0 .1 0zm-.77.8a.2.2 0 0 0 .14-.05.2.2 0 0 0 .06-.1.22.22 0 0 0-.07-.1.2.2 0 0 0-.36.2.2.2 0 0 0 .06.2.18.18 0 0 0 .17.1zm-.8.84a.2.2 0 0 0 .14-.06.2.2 0 0 0 0-.28.2.2 0 0 0-.35.14.2.2 0 0 0 .06.14.2.2 0 0 0 .14.06zm-.8.77a.22.22 0 0 0 .13-.05.2.2 0 0 0 .06-.15.18.18 0 0 0-.06-.14.2.2 0 0 0-.28 0 .2.2 0 0 0 0 .28.2.2 0 0 0 .14.1zm-.83.8a.22.22 0 0 0 .2-.05.2.2 0 0 0 0-.3.2.2 0 0 0-.28 0 .2.2 0 0 0-.06.15.2.2 0 0 0 .06.15.22.22 0 0 0 .1.06zm-.8.83a.2.2 0 0 0 .14-.07.2.2 0 0 0 .06-.14.2.2 0 0 0-.05-.2.2.2 0 0 0-.34.1.22.22 0 0 0 .1.1.25.25 0 0 0 .2.1zm-.8.8a.2.2 0 0 0 .15-.07.2.2 0 0 0 .06-.13.22.22 0 0 0 0-.14.2.2 0 0 0-.3.14.2.2 0 0 0 .1.14.2.2 0 0 0 .2.05zm-.8.8a.2.2 0 0 0 .2-.2.2.2 0 0 0-.06-.14.2.2 0 0 0-.28 0 .18.18 0 0 0-.06.13.23.23 0 0 0 .06.1.2.2 0 0 0 .14 0zm-.8.8a.2.2 0 0 0 .2-.2.2.2 0 1 0-.4 0 .17.17 0 0 0 .05.14.2.2 0 0 0 .14.06zm-.8.8a.2.2 0 0 0 .13-.05.2.2 0 0 0 0-.3.2.2 0 0 0-.28 0 .2.2 0 0 0 0 .3.2.2 0 0 0 .14.06zM43.37 1a.2.2 0 0 0 .14-.05.2.2 0 0 0 .1-.14.2.2 0 1 0-.4 0 .2.2 0 0 0 .1.2.2.2 0 0 0 .2.1zm-.8.8a.18.18 0 0 0 .14-.05.2.2 0 0 0 .1-.14.24.24 0 0 0 0-.1.22.22 0 0 0-.3 0 .2.2 0 0 0 0 .2.2.2 0 0 0 .1.2.2.2 0 0 0 .2.1zm-.8.82a.2.2 0 0 0 .23-.2.22.22 0 0 0-.07-.15.22.22 0 0 0-.28 0 .2.2 0 0 0-.06.14.22.22 0 0 0 0 .2.22.22 0 0 0 .1.1zm-.77.8a.2.2 0 0 0 .15-.06.2.2 0 0 0 .05-.14.18.18 0 0 0-.06-.14.2.2 0 0 0-.28 0 .2.2 0 0 0 0 .28.2.2 0 0 0 .14.06zm-.85.8a.2.2 0 0 0 .14-.05.22.22 0 0 0 0-.17.2.2 0 0 0-.4-.1.18.18 0 0 0 0 .1.2.2 0 0 0 0 .15.2.2 0 0 0 .1.07zm-.8.78a.2.2 0 0 0 .14 0 .2.2 0 0 0 0-.14.2.2 0 0 0-.4-.14.2.2 0 0 0 0 .28.2.2 0 0 0 .1 0zm-.8.84a.2.2 0 0 0 .2-.2.22.22 0 0 0-.07-.15.2.2 0 0 0-.28 0 .2.2 0 0 0-.05.1.22.22 0 0 0 .05.1.22.22 0 0 0 .15 0zm-.8.8a.2.2 0 0 0 .14-.06.2.2 0 0 0 0-.14.23.23 0 0 0-.1-.14.22.22 0 0 0-.3 0 .2.2 0 0 0-.1.14.2.2 0 0 0 0 .14.18.18 0 0 0 .1.06zm-.82.8a.2.2 0 0 0 .15-.06.2.2 0 0 0 .05-.14.2.2 0 0 0-.06-.14.2.2 0 0 0-.28 0 .2.2 0 0 0-.1.14.22.22 0 0 0 0 .14.22.22 0 0 0 .1.06zm-.8.8a.2.2 0 0 0 .14-.05.2.2 0 0 0 .06-.2.18.18 0 0 0-.06-.2.2.2 0 0 0-.28 0 .18.18 0 0 0-.1.1.2.2 0 0 0 0 .1.2.2 0 0 0 .1.1zm-.8.8a.2.2 0 0 0 .14-.04.18.18 0 0 0 .06-.14.2.2 0 0 0-.06-.15.2.2 0 0 0-.28 0 .18.18 0 0 0-.1.2.2.2 0 0 0 0 .2.2.2 0 0 0 .1.1zm-.8.82a.2.2 0 0 0 .13-.06.2.2 0 0 0 .06-.14.23.23 0 0 0-.06-.15.22.22 0 0 0-.3 0 .2.2 0 0 0-.04.2.18.18 0 0 0 .06.2.18.18 0 0 0 .14.1zm-.83.8a.2.2 0 0 0 .16-.06.2.2 0 0 0 .05-.14.2.2 0 0 0 0-.15.2.2 0 0 0-.3.2.2.2 0 0 0 .1.2.2.2 0 0 0 .2.1zm-.8.8a.2.2 0 0 0 .15-.05.22.22 0 0 0 .06-.1.18.18 0 0 0 0-.1.2.2 0 0 0-.3 0 .2.2 0 0 0 0 .2.2.2 0 0 0 .2.2zm-.8.8a.18.18 0 0 0 .15-.05.16.16 0 0 0 .06-.1.2.2 0 0 0 0-.1.2.2 0 0 0-.3.2.2.2 0 0 0 .1.2.2.2 0 0 0 .2.1zm-.8.82a.2.2 0 0 0 .14-.08.2.2 0 0 0 .06-.14.18.18 0 0 0-.06-.14.2.2 0 0 0-.34.14.2.2 0 0 0 .06.14.18.18 0 0 0 .14.08zm-.8.8a.18.18 0 0 0 .14-.06.2.2 0 0 0 .06-.14.18.18 0 0 0-.06-.14.2.2 0 0 0-.28 0 .22.22 0 0 0-.06.15.18.18 0 0 0 .06.1.17.17 0 0 0 .14 0zm-.8.8a.2.2 0 0 0 .2-.2.2.2 0 0 0-.06-.14.2.2 0 0 0-.3 0 .2.2 0 0 0 0 .28.2.2 0 0 0 .15.06zm-.8.82a.2.2 0 0 0 .1-.07.2.2 0 0 0 .06-.15.18.18 0 0 0-.06-.14.2.2 0 0 0-.28 0 .2.2 0 0 0-.06.14.22.22 0 0 0 .05.14.23.23 0 0 0 .2.07zm-.82.8a.18.18 0 0 0 .14-.07.17.17 0 0 0 .06-.13.2.2 0 0 0-.06-.15.2.2 0 0 0-.28 0 .2.2 0 0 0-.06.15.2.2 0 0 0 .2.2zm-.8.8a.2.2 0 0 0 .14-.1.2.2 0 0 0 .06-.14.2.2 0 0 0-.35-.14.22.22 0 0 0-.05.14.24.24 0 0 0 .05.14.22.22 0 0 0 .15.1zm-.8.8a.2.2 0 0 0 .14-.06.2.2 0 0 0 .06-.14.2.2 0 1 0-.4 0 .2.2 0 0 0 .05.14.2.2 0 0 0 .14.06zm-.8.8a.2.2 0 0 0 .14-.05.2.2 0 0 0 .05-.14.2.2 0 0 0-.06-.1.2.2 0 0 0-.2 0 .2.2 0 0 0 0 .2.2.2 0 0 0 .2.2zm-.8.8a.18.18 0 0 0 .12-.05.2.2 0 0 0 .06-.14.2.2 0 0 0-.06-.1.2.2 0 0 0-.34.2.2.2 0 0 0 .06.2.18.18 0 0 0 .15.1zm-.82.82a.2.2 0 0 0 .2-.2.18.18 0 0 0-.06-.12.2.2 0 0 0-.28 0 .2.2 0 0 0-.06.15.2.2 0 0 0 .05.13.23.23 0 0 0 .2.04zm-.8.8a.2.2 0 0 0 .14-.06.2.2 0 0 0 .06-.14.24.24 0 0 0-.06-.15.2.2 0 0 0-.28 0 .2.2 0 0 0-.06.15.22.22 0 0 0 .05.14.2.2 0 0 0 .2.06zm-.8.8a.2.2 0 0 0 .14-.06.22.22 0 0 0 .05-.14.2.2 0 0 0-.05-.14.2.2 0 0 0-.3 0 .22.22 0 0 0-.05.14.22.22 0 0 0 .06.14.2.2 0 0 0 .2.06zm-.8.8a.18.18 0 0 0 .13-.05.2.2 0 0 0 0-.14.18.18 0 0 0-.1-.14.2.2 0 0 0-.3 0 .2.2 0 0 0-.1.1.2.2 0 0 0 0 .1.2.2 0 0 0 .1 0zm-.82.8a.2.2 0 0 0 .16-.04.2.2 0 0 0 0-.14.2.2 0 0 0 0-.15.2.2 0 0 0-.28 0 .2.2 0 0 0-.06.1.2.2 0 0 0 .18.2zm-.84.82a.2.2 0 0 0 .14-.06.2.2 0 0 0 .06-.14.22.22 0 0 0 0-.14.2.2 0 0 0-.3 0 .2.2 0 0 0-.06.15.24.24 0 0 0 .05.14.22.22 0 0 0 .1 0zm-.76.8a.2.2 0 0 0 .14-.07.18.18 0 0 0 .06-.13.22.22 0 0 0-.06-.15.2.2 0 0 0-.3 0 .2.2 0 0 0-.04.1.2.2 0 0 0 .06.1.2.2 0 0 0 .14 0zm-.8.8a.22.22 0 0 0 .13-.04.23.23 0 0 0 .07-.15.2.2 0 0 0-.06-.14.2.2 0 0 0-.35.2.2.2 0 0 0 .06.2.2.2 0 0 0 .1.1zm-.82.8a.2.2 0 0 0 .2-.2.2.2 0 0 0-.06-.13.2.2 0 0 0-.3 0 .2.2 0 0 0-.04.2.2.2 0 0 0 .06.2.2.2 0 0 0 .14.1zm-.8.8a.18.18 0 0 0 .18-.04.22.22 0 0 0 0-.15.2.2 0 0 0 0-.13.2.2 0 0 0-.3 0 .2.2 0 0 0-.05.14.2.2 0 0 0 .17.2zm-.82.82a.2.2 0 0 0 .14-.06.2.2 0 0 0 .06-.14.18.18 0 0 0-.04-.16.2.2 0 0 0-.28 0 .2.2 0 0 0-.06.15.2.2 0 0 0 .06.14.22.22 0 0 0 .12 0zm-.8.8a.23.23 0 0 0 .15-.04.22.22 0 0 0 .06-.12.2.2 0 0 0 0-.14.2.2 0 0 0-.3 0 .2.2 0 0 0-.1.14.2.2 0 0 0 .2.17zm-.8.84a.22.22 0 0 0 .14-.05.2.2 0 0 0 .07-.15.2.2 0 0 0 0-.14.2.2 0 0 0-.3 0 .2.2 0 0 0 0 .28.22.22 0 0 0 .2.06zm-.8.77a.18.18 0 0 0 .14-.06.17.17 0 0 0 .06-.1.18.18 0 0 0-.06-.1.2.2 0 0 0-.28 0 .2.2 0 0 0-.06.2.24.24 0 0 0 .06.2.2.2 0 0 0 .14.1zm-.8.8a.2.2 0 0 0 .14-.04.22.22 0 0 0 .06-.15.2.2 0 0 0-.35-.13.2.2 0 0 0-.05.13.22.22 0 0 0 .05.14.2.2 0 0 0 .15.06zm-.8.83a.2.2 0 0 0 .14-.07.2.2 0 0 0 .06-.14.24.24 0 0 0-.07-.2.22.22 0 0 0-.3 0 .2.2 0 0 0-.04.1.18.18 0 0 0 0 .1.2.2 0 0 0 .1.1zm-.8.8a.2.2 0 0 0 .13-.07.2.2 0 0 0 .06-.13.22.22 0 0 0-.1-.14.2.2 0 0 0-.3 0 .2.2 0 0 0 0 .14.22.22 0 0 0 .2.2zm-.82.8a.2.2 0 0 0 .15-.06.2.2 0 0 0 .06-.14.2.2 0 0 0-.1-.14.2.2 0 0 0-.3 0 .2.2 0 0 0-.1.14.2.2 0 0 0 0 .14.18.18 0 0 0 .1.06zm-.8.8a.18.18 0 0 0 .14-.05.22.22 0 0 0 .06-.15.23.23 0 0 0-.05-.14.22.22 0 0 0-.3 0 .2.2 0 0 0-.05.14.2.2 0 0 0 .06.15.22.22 0 0 0 .14.05zm-.8.8a.2.2 0 0 0 .13-.05.2.2 0 0 0 .1-.15.2.2 0 0 0 0-.14.2.2 0 0 0-.3 0 .2.2 0 0 0 0 .28.2.2 0 0 0 .1.07zM39.35 1a.2.2 0 0 0 .14-.05.2.2 0 0 0 0-.14.23.23 0 0 0-.1-.1.2.2 0 0 0-.3 0 .18.18 0 0 0-.1.2.23.23 0 0 0 0 .2.24.24 0 0 0 .1.1zm-.8.8a.2.2 0 0 0 .13-.05.18.18 0 0 0 .04-.14.2.2 0 0 0-.35-.1.2.2 0 0 0-.06.2.22.22 0 0 0 .1.2.2.2 0 0 0 .2.1zm-.82.82a.2.2 0 0 0 .15-.06.2.2 0 0 0 .1-.14.22.22 0 0 0-.08-.15.2.2 0 0 0-.28 0 .2.2 0 0 0-.06.14.22.22 0 0 0 .05.2.2.2 0 0 0 .1.1zm-.8.8a.2.2 0 0 0 .15-.06.2.2 0 0 0 .03-.14.18.18 0 0 0 0-.14.2.2 0 0 0-.3 0 .2.2 0 0 0 0 .14.25.25 0 0 0 .1.15.2.2 0 0 0 .1.05zm-.8.8a.2.2 0 0 0 .14-.34.2.2 0 0 0-.28 0 .18.18 0 0 0-.1.13.2.2 0 0 0 0 .2.2.2 0 0 0 .1.1zm-.8.78a.2.2 0 0 0 .13 0 .2.2 0 0 0 .06-.14.2.2 0 0 0-.34-.14.17.17 0 0 0-.08.14.2.2 0 0 0 .06.14.18.18 0 0 0 .13 0zm-.8.84a.18.18 0 0 0 .13-.06.2.2 0 0 0 .06-.14.18.18 0 0 0-.06-.14.2.2 0 0 0-.28 0 .18.18 0 0 0-.08.14.2.2 0 0 0 .2.2zm-.82.8a.18.18 0 0 0 .2-.06.2.2 0 0 0 .1-.14.2.2 0 0 0 0-.14.2.2 0 0 0-.3 0 .2.2 0 0 0 0 .14.18.18 0 0 0 .1.14.16.16 0 0 0 .1.06zm-.8.8a.2.2 0 0 0 .2-.05.2.2 0 0 0 .1-.2.18.18 0 0 0 0-.2.2.2 0 0 0-.3 0 .18.18 0 0 0 0 .1.2.2 0 0 0 .1.1.22.22 0 0 0 .2 0zm-.8.8a.2.2 0 0 0 .2-.05.2.2 0 0 0 .1-.2.2.2 0 0 0 0-.2.2.2 0 0 0-.3 0 .2.2 0 0 0 0 .1.2.2 0 0 0 .1.1.22.22 0 0 0 .2.1zm-.8.8a.2.2 0 0 0 .2-.04.16.16 0 0 0 .1-.13.2.2 0 0 0 0-.15.2.2 0 0 0-.3 0 .2.2 0 0 0 0 .14.2.2 0 0 0 .1.14.2.2 0 0 0 .1.05zm-.8.82a.2.2 0 0 0 .2-.06.2.2 0 0 0 .1-.14.2.2 0 0 0 0-.15.2.2 0 0 0-.3 0 .2.2 0 0 0 0 .2.18.18 0 0 0 .1.2.18.18 0 0 0 .1.1zm-.8.8a.2.2 0 0 0 .2-.2.2.2 0 0 0-.3-.14.2.2 0 0 0 0 .14.2.2 0 0 0 .1.14.2.2 0 0 0 .2.06zm-.8.8a.18.18 0 0 0 .1-.06.2.2 0 0 0 .1-.14.18.18 0 0 0 0-.14.2.2 0 0 0-.3 0 .2.2 0 0 0 0 .14.2.2 0 0 0 .1.15.2.2 0 0 0 .2.1zm-.8.8a.2.2 0 0 0 .2-.05.2.2 0 0 0 .1-.1.2.2 0 0 0-.1-.1.2.2 0 0 0-.2 0 .2.2 0 0 0 0 .2.2.2 0 0 0 .2.2zm-.8.82a.18.18 0 0 0 .2-.08.2.2 0 0 0 .1-.14.18.18 0 0 0-.1-.14.2.2 0 0 0-.2 0 .2.2 0 0 0 0 .15.2.2 0 0 0 .1.14.18.18 0 0 0 .2.1zm-.8.8a.22.22 0 0 0 .2-.2.2.2 0 0 0-.3-.15.22.22 0 0 0 0 .15.23.23 0 0 0 .1.14.2.2 0 0 0 .2.06zm-.8.8a.2.2 0 0 0 .2-.34.2.2 0 0 0-.2 0 .2.2 0 0 0 0 .15.2.2 0 0 0 .1.1.2.2 0 0 0 .2 0zm-.8.82a.2.2 0 0 0 .2-.07.2.2 0 0 0 .1-.14.2.2 0 0 0 0-.2.2.2 0 0 0-.3 0 .2.2 0 0 0 0 .1.2.2 0 0 0 .1.1.18.18 0 0 0 .2 0zm-.8.8a.2.2 0 0 0 .2-.06.2.2 0 0 0 .1-.14.2.2 0 0 0-.3-.1.2.2 0 0 0 0 .14.2.2 0 0 0 .1.14.2.2 0 0 0 .2.02zm-.8.8a.2.2 0 0 0 .2-.2.2.2 0 0 0 0-.15.2.2 0 0 0-.2 0 .18.18 0 0 0 0 .14.2.2 0 0 0 .1.1.2.2 0 0 0 .1 0zm-.8.8a.2.2 0 0 0 .2-.06.2.2 0 0 0 .1-.14.22.22 0 0 0-.1-.15.2.2 0 0 0-.2 0 .2.2 0 0 0 0 .14.2.2 0 0 0 .1.1.18.18 0 0 0 .2 0zm-.8.8a.22.22 0 0 0 .2-.04.2.2 0 0 0 .1-.15.22.22 0 0 0 0-.1.2.2 0 0 0-.3 0 .22.22 0 0 0 0 .2.2.2 0 0 0 .1.2.2.2 0 0 0 .2.1zm-.8.8a.2.2 0 0 0 .2-.05.2.2 0 0 0 0-.14.18.18 0 0 0 0-.1.2.2 0 0 0-.3 0 .2.2 0 0 0 0 .2.2.2 0 0 0 .1.2.2.2 0 0 0 .2.1zm-.8.8a.2.2 0 0 0 .2-.04.18.18 0 0 0 .1-.14.18.18 0 0 0 0-.12.2.2 0 0 0-.3 0 .2.2 0 0 0 0 .15.2.2 0 0 0 .2.16zm-.7.82a.2.2 0 0 0 .2-.06.2.2 0 0 0 0-.3.22.22 0 0 0-.3 0 .2.2 0 0 0 0 .15.22.22 0 0 0 .1.2.2.2 0 0 0 .2.1zm-.8.8a.2.2 0 0 0 .2-.05.2.2 0 0 0 .1-.15.22.22 0 0 0-.1-.14.2.2 0 0 0-.3 0 .22.22 0 0 0 0 .14.2.2 0 0 0 .1.14.2.2 0 0 0 .2.06zm-.8.8a.22.22 0 0 0 .2-.04.2.2 0 0 0 .1-.15.18.18 0 0 0 0-.14.2.2 0 0 0-.3 0 .2.2 0 0 0-.1.1.2.2 0 0 0 .1.1.2.2 0 0 0 .1 0zm-.8.82a.2.2 0 0 0 .2-.06.2.2 0 0 0 0-.3.2.2 0 0 0-.3 0 .2.2 0 0 0 0 .15.18.18 0 0 0 .1.14.18.18 0 0 0 .1.07zm-.8.8a.2.2 0 0 0 .1-.06.2.2 0 0 0 0-.3.2.2 0 0 0-.2 0 .17.17 0 0 0-.1.15.2.2 0 0 0 .1.14.2.2 0 0 0 .2.07zm-.8.8a.2.2 0 0 0 .2-.2.18.18 0 0 0 0-.14.2.2 0 0 0-.3 0 .2.2 0 0 0 0 .14.22.22 0 0 0 .1.14.2.2 0 0 0 .1.06zm-.8.8a.22.22 0 0 0 .2-.04.23.23 0 0 0 .1-.15.22.22 0 0 0 0-.14.2.2 0 0 0-.3 0 .22.22 0 0 0-.02.2.2.2 0 0 0 .08.2.2.2 0 0 0 .2.1zm-.8.8a.2.2 0 0 0 .2-.04.22.22 0 0 0 .1-.15.2.2 0 0 0 0-.14.2.2 0 0 0-.3 0 .2.2 0 0 0 0 .2.2.2 0 0 0 .1.2.2.2 0 0 0 .1.1zm-.8.8a.18.18 0 0 0 .1-.04.22.22 0 0 0 .1-.15.24.24 0 0 0 0-.14.22.22 0 0 0-.3 0 .2.2 0 0 0 0 .2.2.2 0 0 0 .1.2.22.22 0 0 0 .1.1zm-.8.82a.2.2 0 0 0 .1-.06.2.2 0 0 0 .1-.14.2.2 0 0 0 0-.16.2.2 0 0 0-.3 0 .2.2 0 0 0 0 .28.2.2 0 0 0 .2.08zm-.8.8a.2.2 0 0 0 .2-.2.2.2 0 1 0-.4 0 .18.18 0 0 0 .1.15.2.2 0 0 0 .1.1zm-.8.84a.22.22 0 0 0 .1-.05.2.2 0 0 0 .1-.15.2.2 0 0 0-.3-.14.2.2 0 0 0 0 .28.2.2 0 0 0 .2.06zm-.8.77a.2.2 0 0 0 .2-.2.23.23 0 0 0 0-.14.2.2 0 0 0-.3 0 .2.2 0 0 0 0 .14.18.18 0 0 0 .1.14.2.2 0 0 0 .2.1zm-.8.8a.18.18 0 0 0 .2-.04.22.22 0 0 0 .1-.15.2.2 0 0 0 0-.14.2.2 0 0 0-.3 0 .2.2 0 0 0 0 .13.2.2 0 0 0 .16.2zm-.8.83a.2.2 0 0 0 .2-.07.2.2 0 0 0 .1-.14.18.18 0 0 0 0-.2.2.2 0 0 0-.3 0 .2.2 0 0 0 0 .1.2.2 0 0 0 .07.1.2.2 0 0 0 .2.1zm-.8.8a.22.22 0 0 0 .1-.06.2.2 0 0 0 0-.3.2.2 0 0 0-.3 0A.2.2 0 0 0 7 33a.2.2 0 0 0 .06.14.18.18 0 0 0 .1.05zm-.8.8a.2.2 0 0 0 .2-.05.2.2 0 0 0 .1-.15.2.2 0 0 0 0-.14.2.2 0 0 0-.3 0 .2.2 0 0 0 0 .14.2.2 0 0 0 .1.14.2.2 0 0 0 .1.06zm-.8.8a.2.2 0 0 0 .2-.2.2.2 0 0 0-.1-.14.2.2 0 0 0-.2 0 .2.2 0 0 0 0 .14.18.18 0 0 0 .1.14.2.2 0 0 0 .1.06zm-.8.8a.2.2 0 0 0 .1-.05.22.22 0 0 0 .1-.15.2.2 0 0 0 0-.14.2.2 0 0 0-.3 0 .2.2 0 0 0 0 .13.22.22 0 0 0 .1.1.2.2 0 0 0 .1 0zM35.3 1a.2.2 0 0 0 .14-.06.16.16 0 0 0 .06-.13.2.2 0 0 0-.34-.1.18.18 0 0 0-.1.2.18.18 0 0 0 .02.2.2.2 0 0 0 .13.1zm-.8.8a.2.2 0 0 0 .2-.2.2.2 0 0 0-.06-.13.2.2 0 0 0-.28 0 .2.2 0 0 0 0 .28.17.17 0 0 0 .1.06zm-.8.82a.2.2 0 0 0 .14-.06.2.2 0 0 0 .06-.14.2.2 0 0 0-.35-.14.2.2 0 0 0-.07.14.2.2 0 0 0 .2.2zm-.82.8a.2.2 0 0 0 .2-.06.2.2 0 0 0 .08-.14.18.18 0 0 0-.05-.14.2.2 0 0 0-.3 0 .2.2 0 0 0 0 .28.18.18 0 0 0 .2.06zm-.8.8a.2.2 0 0 0 .2-.05.2.2 0 0 0 .08-.17.18.18 0 0 0-.05-.14.2.2 0 0 0-.3 0A.18.18 0 0 0 32 4a.2.2 0 0 0 .07.1.22.22 0 0 0 .16.1zm-.8.78a.2.2 0 0 0 .2 0 .18.18 0 0 0 .08-.14.2.2 0 0 0-.05-.15.2.2 0 0 0-.3 0 .2.2 0 0 0 0 .2.2.2 0 0 0 .1.2.2.2 0 0 0 .2 0zm-.8.84a.2.2 0 0 0 .2-.06.2.2 0 0 0 0-.3.2.2 0 0 0-.26 0 .18.18 0 0 0-.06.15.2.2 0 0 0 .07.14.18.18 0 0 0 .13.07zm-.8.8a.2.2 0 0 0 .2-.06.2.2 0 0 0 .06-.14.2.2 0 0 0-.06-.15.2.2 0 0 0-.35.1.2.2 0 0 0 .04.1.2.2 0 0 0 .1 0zm-.8.8a.2.2 0 0 0 .1-.06.2.2 0 0 0 .1-.14.2.2 0 0 0-.04-.14.2.2 0 0 0-.3 0 .2.2 0 0 0-.04.14.2.2 0 0 0 .06.14.18.18 0 0 0 .2.06zm-.8.8a.2.2 0 0 0 .2-.05.2.2 0 0 0 .06-.2.2.2 0 0 0-.06-.2.2.2 0 0 0-.3 0 .2.2 0 0 0-.06.1.2.2 0 0 0 .03.1.2.2 0 0 0 .15.1zm-.8.8a.2.2 0 0 0 .2-.2.2.2 0 0 0 0-.14.2.2 0 0 0-.3 0 .18.18 0 0 0-.05.14.2.2 0 0 0 .04.14.2.2 0 0 0 .1.07zm-.8.82a.18.18 0 0 0 .2-.06.2.2 0 0 0 .05-.14.2.2 0 0 0-.1-.15.2.2 0 0 0-.27 0 .2.2 0 0 0-.05.2.2.2 0 0 0 .1.2.17.17 0 0 0 .2.1zm-.8.8a.2.2 0 0 0 .2-.06.2.2 0 0 0 .04-.14.2.2 0 0 0-.34-.14.2.2 0 0 0 0 .28.2.2 0 0 0 .13.06zm-.8.8a.2.2 0 0 0 .2-.2.18.18 0 0 0-.1-.14.2.2 0 0 0-.3 0 .2.2 0 0 0 0 .13.2.2 0 0 0 .07.14.2.2 0 0 0 .18 0zm-.8.8a.18.18 0 0 0 .18-.05.2.2 0 0 0 .07-.1.2.2 0 0 0-.06-.1.2.2 0 0 0-.4.2.18.18 0 0 0 .06.2.2.2 0 0 0 .15.1zm-.8.82a.22.22 0 0 0 .17-.08.24.24 0 0 0 .1-.15.18.18 0 0 0-.07-.14.2.2 0 0 0-.3 0 .2.2 0 0 0-.05.2.23.23 0 0 0 .03.2.22.22 0 0 0 .15.1zm-.8.8a.2.2 0 0 0 .17-.06.2.2 0 0 0-.26-.28.2.2 0 0 0 0 .14.22.22 0 0 0 0 .14.2.2 0 0 0 .1.06zm-.8.8a.2.2 0 0 0 .17-.06.2.2 0 0 0 0-.28.2.2 0 0 0-.26 0 .2.2 0 0 0 0 .28.2.2 0 0 0 .2.06zm-.8.82a.2.2 0 0 0 .16-.07.2.2 0 0 0 .05-.14.2.2 0 0 0 0-.2.2.2 0 0 0-.3 0 .18.18 0 0 0-.1.1.2.2 0 0 0 0 .1.17.17 0 0 0 .1 0zm-.8.8a.2.2 0 0 0 .15-.06.18.18 0 0 0 .04-.14.2.2 0 0 0-.1-.15.22.22 0 0 0-.3 0 .18.18 0 0 0-.08.14.2.2 0 0 0 0 .1.2.2 0 0 0 .1 0zm-.8.8a.2.2 0 0 0 .2-.2.2.2 0 0 0-.05-.15.2.2 0 0 0-.3 0 .22.22 0 0 0-.06.15.24.24 0 0 0 0 .14.23.23 0 0 0 .1.06zm-.8.8a.2.2 0 0 0 .15-.06.2.2 0 0 0 .04-.14.2.2 0 0 0-.1-.14.2.2 0 0 0-.3 0 .2.2 0 0 0-.08.14.2.2 0 0 0 0 .14.2.2 0 0 0 .1.06zm-.8.8a.2.2 0 0 0 .15-.05.2.2 0 0 0 .03-.14.18.18 0 0 0-.05-.1.2.2 0 0 0-.2 0 .18.18 0 0 0-.1.2.22.22 0 0 0 .1.2.18.18 0 0 0 .2.1zm-.8.8a.18.18 0 0 0 .16-.05.17.17 0 0 0 0-.14.18.18 0 0 0 0-.1.2.2 0 0 0-.3 0 .18.18 0 0 0-.04.2.2.2 0 0 0 .06.2.2.2 0 0 0 .1.1zm-.84.8a.22.22 0 0 0 .14-.04.2.2 0 0 0 0-.3.2.2 0 0 0-.3 0 .18.18 0 0 0-.06.14.2.2 0 0 0 .2.2zm-.77.82a.2.2 0 0 0 .1-.06.2.2 0 0 0 .02-.14.24.24 0 0 0-.1-.15.2.2 0 0 0-.3 0 .2.2 0 0 0-.1.14.23.23 0 0 0 0 .2.22.22 0 0 0 .1.1zm-.8.8a.2.2 0 0 0 .1-.06.2.2 0 0 0 0-.14.22.22 0 0 0-.03-.14.2.2 0 0 0-.3 0 .22.22 0 0 0-.03.14.2.2 0 0 0 .3.2zm-.9.8a.2.2 0 0 0 .2-.2.2.2 0 0 0-.08-.13.2.2 0 0 0-.3 0 .2.2 0 0 0-.1.1.18.18 0 0 0 0 .1.2.2 0 0 0 .1 0zm-.8.82a.2.2 0 0 0 .2-.06.2.2 0 0 0 0-.15.2.2 0 0 0 0-.13.2.2 0 0 0-.3 0 .22.22 0 0 0-.08.14.2.2 0 0 0 0 .14.2.2 0 0 0 .1.06zm-.8.8a.2.2 0 0 0 .1-.06.2.2 0 0 0 .07-.14.2.2 0 0 0-.05-.14.2.2 0 0 0-.3 0 .22.22 0 0 0-.1.15.24.24 0 0 0 0 .14.22.22 0 0 0 .1 0zm-.8.8a.2.2 0 0 0 .1-.06.18.18 0 0 0 .07-.14.18.18 0 0 0-.06-.14.2.2 0 0 0-.3 0 .2.2 0 0 0 0 .14.18.18 0 0 0 .05.14.18.18 0 0 0 .14.06zm-.8.8a.2.2 0 0 0 .1-.05.2.2 0 0 0 .07-.2.2.2 0 0 0-.06-.2.2.2 0 0 0-.3 0 .2.2 0 0 0 .18.3zm-.8.8a.2.2 0 0 0 .1-.04.22.22 0 0 0 .06-.15.23.23 0 0 0-.07-.14.2.2 0 0 0-.34.2.2.2 0 0 0 .05.2.2.2 0 0 0 .18.1zm-.8.8a.2.2 0 0 0 .1-.04.22.22 0 0 0 .1-.15.2.2 0 0 0-.08-.14.2.2 0 0 0-.3 0 .16.16 0 0 0-.1.2.2.2 0 0 0 .2.2zm-.8.82a.18.18 0 0 0 .1-.06.2.2 0 0 0 .07-.14.18.18 0 0 0-.07-.16.2.2 0 0 0-.3 0 .2.2 0 0 0-.03.14.23.23 0 0 0 .03.14.2.2 0 0 0 .16.08zm-.85.8a.2.2 0 0 0 .2-.2.2.2 0 0 0-.06-.13.2.2 0 0 0-.3 0A.2.2 0 0 0 7 29a.2.2 0 0 0 .05.14.2.2 0 0 0 .13.03zm-.8.84a.2.2 0 0 0 .14-.06.2.2 0 1 0-.3 0 .2.2 0 0 0 .16.06zm-.8.77a.22.22 0 0 0 .13-.05.22.22 0 0 0 .07-.15.23.23 0 0 0-.05-.14.2.2 0 0 0-.3 0 .2.2 0 0 0-.04.14.2.2 0 0 0 .05.14.2.2 0 0 0 .15.1zm-.8.8a.2.2 0 0 0 .13-.05.2.2 0 0 0 .1-.14.18.18 0 0 0-.06-.14.2.2 0 0 0-.3 0 .2.2 0 0 0 0 .3.22.22 0 0 0 .1.04zm-.8.83a.2.2 0 0 0 .12-.07.2.2 0 0 0 .05-.14.2.2 0 0 0-.4-.2.2.2 0 0 0-.1.1.18.18 0 0 0 0 .1.2.2 0 0 0 .2.1zm-.86.8a.18.18 0 0 0 .13-.07.2.2 0 0 0 0-.13.22.22 0 0 0-.1-.14.2.2 0 0 0-.3 0A.2.2 0 0 0 3 33a.22.22 0 0 0 .05.14.2.2 0 0 0 .1.05zm-.8.8a.2.2 0 0 0 .14-.06.2.2 0 0 0 .03-.14.18.18 0 0 0-.06-.14.2.2 0 0 0-.3 0 .22.22 0 0 0-.1.14.2.2 0 0 0 .03.14.22.22 0 0 0 .13.06zm-.8.8a.2.2 0 0 0 .13-.05.2.2 0 0 0 0-.14.2.2 0 0 0-.1-.1.2.2 0 0 0-.3 0 .18.18 0 0 0-.1.2.2.2 0 0 0 0 .2.22.22 0 0 0 .1.1zm-.8.8a.2.2 0 0 0 .12-.05.22.22 0 0 0 .06-.15.2.2 0 0 0-.08-.14.2.2 0 0 0-.3 0 .2.2 0 0 0-.04.13.2.2 0 0 0 .2.2zm-.76.8a.2.2 0 0 0 .13-.06.18.18 0 0 0 .05-.13.18.18 0 0 0-.07-.1.2.2 0 0 0-.2 0 .2.2 0 0 0 0 .2.22.22 0 0 0 .1.2.2.2 0 0 0 .2.1zM31.3 1a.2.2 0 0 0 .14-.06.17.17 0 0 0 .06-.13.2.2 0 0 0-.06-.1.22.22 0 0 0-.3 0 .18.18 0 0 0-.04.2.18.18 0 0 0 .06.2.2.2 0 0 0 .14.1zm-.8.8a.2.2 0 0 0 .2-.2.18.18 0 0 0-.06-.13.2.2 0 0 0-.28 0 .2.2 0 0 0 0 .28.17.17 0 0 0 .14.06zm-.82.82a.2.2 0 0 0 .16-.06.2.2 0 0 0 .06-.14.2.2 0 0 0-.06-.14.2.2 0 0 0-.28 0 .2.2 0 0 0 0 .3.2.2 0 0 0 .13.04zm-.8.8a.2.2 0 0 0 .16-.06.2.2 0 0 0 .05-.14.18.18 0 0 0-.1-.14.2.2 0 0 0-.2 0 .18.18 0 0 0-.1.13.18.18 0 0 0 0 .2.2.2 0 0 0 .2.1zm-.8.8a.2.2 0 0 0 .14-.05.2.2 0 0 0 .07-.17.18.18 0 0 0 0-.14.2.2 0 0 0-.3 0A.2.2 0 0 0 28 4a.22.22 0 0 0 .06.14.2.2 0 0 0 .15.08zm-.8.78a.2.2 0 0 0 .14 0 .16.16 0 0 0 .06-.13.23.23 0 0 0-.06-.15.22.22 0 0 0-.3 0 .2.2 0 0 0 0 .28.2.2 0 0 0 .16 0zm-.8.84a.2.2 0 0 0 .14-.06.2.2 0 0 0 .06-.14.25.25 0 0 0-.06-.15.2.2 0 0 0-.28 0 .18.18 0 0 0-.06.1.23.23 0 0 0 .05.1.22.22 0 0 0 .15 0zm-.8.8a.22.22 0 0 0 .13-.05.22.22 0 0 0 .1-.2.2.2 0 0 0-.1-.2.22.22 0 0 0-.3 0 .2.2 0 0 0-.1.1.2.2 0 0 0 .1.1.2.2 0 0 0 .2 0zm-.8.8a.2.2 0 0 0 .2-.2.2.2 0 0 0-.1-.14.2.2 0 0 0-.28 0 .2.2 0 0 0 0 .3.18.18 0 0 0 .17.04zm-.82.8a.2.2 0 0 0 .15-.06.18.18 0 0 0 .1-.18.2.2 0 0 0 0-.15.2.2 0 0 0-.2 0A.2.2 0 0 0 24 8a.18.18 0 0 0 .05.13.2.2 0 0 0 .12.12zm-.8.8A.2.2 0 0 0 23.4 9a.2.2 0 0 0 .06-.14.2.2 0 0 0-.06-.15.2.2 0 0 0-.28 0 .22.22 0 0 0-.06.2.2.2 0 0 0 .05.2.2.2 0 0 0 .2.1zm-.8.82a.2.2 0 0 0 .14-.06.22.22 0 0 0 .06-.14.2.2 0 0 0-.06-.14.2.2 0 0 0-.28 0 .23.23 0 0 0-.07.15.22.22 0 0 0 .06.14.2.2 0 0 0 .2.1zm-.8.8a.2.2 0 0 0 .14-.06.2.2 0 0 0 0-.28.2.2 0 0 0-.3 0 .2.2 0 0 0 .15.34zm-.82.8a.22.22 0 0 0 .14-.05.2.2 0 0 0 .06-.1.2.2 0 0 0-.06-.1.2.2 0 0 0-.28 0 .2.2 0 0 0-.06.2.2.2 0 0 0 .05.2.22.22 0 0 0 .2.1zm-.8.8a.2.2 0 0 0 .14-.05.2.2 0 0 0 0-.2.2.2 0 0 0-.35.2.18.18 0 0 0 .06.2.18.18 0 0 0 .2.1zm-.8.82a.2.2 0 0 0 .14-.08.16.16 0 0 0 .06-.13.23.23 0 0 0-.06-.15.2.2 0 0 0-.3 0 .2.2 0 0 0-.04.14.18.18 0 0 0 .06.14.2.2 0 0 0 .14.08zm-.8.8a.2.2 0 0 0 .13-.06.2.2 0 0 0 0-.14.18.18 0 0 0-.1-.14.2.2 0 0 0-.3 0 .22.22 0 0 0-.06.15.23.23 0 0 0 .1.1.2.2 0 0 0 .2 0zm-.82.8a.2.2 0 0 0 .15-.06.2.2 0 0 0 0-.28.2.2 0 0 0-.3 0 .22.22 0 0 0-.1.14.2.2 0 0 0 .2.2zm-.8.82a.2.2 0 0 0 .16-.07.22.22 0 0 0 0-.14.24.24 0 0 0 0-.2.22.22 0 0 0-.3 0 .2.2 0 0 0-.05.1.2.2 0 0 0 .06.1.2.2 0 0 0 .2 0zm-.84.8a.2.2 0 0 0 .14-.06.2.2 0 0 0 .06-.15.18.18 0 0 0-.06-.2.22.22 0 0 0-.3 0 .2.2 0 0 0-.04.1.2.2 0 0 0 .06.1.2.2 0 0 0 .14 0zm-.77.8a.2.2 0 0 0 .2-.2.18.18 0 0 0 0-.14.2.2 0 0 0-.3.14.22.22 0 0 0 .1.14.2.2 0 0 0 .2.06zm-.8.8a.2.2 0 0 0 .2-.2.2.2 0 0 0 0-.14.2.2 0 0 0-.3 0 .2.2 0 0 0 0 .14.2.2 0 0 0 .1.14.22.22 0 0 0 .2.06zm-.8.8a.2.2 0 0 0 .2-.2.22.22 0 0 0 0-.13.2.2 0 0 0-.3 0 .2.2 0 0 0 0 .14.18.18 0 0 0 .1.2.2.2 0 0 0 .2.1zm-.8.8a.2.2 0 0 0 .2-.04.2.2 0 0 0 0-.15.2.2 0 0 0 0-.1.2.2 0 0 0-.3 0 .2.2 0 0 0 0 .2.2.2 0 0 0 .1.2.2.2 0 0 0 .1.1zm-.8.82a.2.2 0 0 0 .2-.06.22.22 0 0 0 .1-.14.2.2 0 0 0 0-.12.2.2 0 0 0-.3 0 .18.18 0 0 0 0 .15.2.2 0 0 0 .1.14.22.22 0 0 0 .2 0zm-.8.8a.2.2 0 0 0 .2-.06.22.22 0 0 0 .1-.14.18.18 0 0 0 0-.14.2.2 0 0 0-.3 0 .2.2 0 0 0 0 .15.2.2 0 0 0 .1.14.2.2 0 0 0 .2.05zm-.8.8a.2.2 0 0 0 .2-.06.2.2 0 0 0 .1-.14.2.2 0 1 0-.4 0 .2.2 0 0 0 .2.2zm-.8.8a.2.2 0 0 0 .2-.05.2.2 0 0 0 .1-.14.22.22 0 0 0 0-.14.2.2 0 0 0-.3 0 .17.17 0 0 0 0 .1.2.2 0 0 0 .1.1.18.18 0 0 0 .1 0zm-.8.8a.2.2 0 0 0 .2-.04.2.2 0 0 0 0-.3.2.2 0 0 0-.2 0 .17.17 0 0 0 0 .14.2.2 0 0 0 0 .15.2.2 0 0 0 .1.06zm-.8.82a.2.2 0 0 0 .2-.05.2.2 0 0 0 .1-.2.2.2 0 0 0 0-.2.2.2 0 0 0-.2 0 .2.2 0 0 0-.1.1.2.2 0 0 0 0 .1.2.2 0 0 0 .1 0zm-.8.8a.2.2 0 0 0 .2-.2.2.2 0 0 0 0-.14.2.2 0 0 0-.3.14.22.22 0 0 0 0 .14.2.2 0 0 0 .1.06zm-.8.8a.22.22 0 0 0 .2-.04.2.2 0 0 0 0-.3.2.2 0 0 0-.3 0 .2.2 0 0 0 0 .3.2.2 0 0 0 .2.05zm-.8.8a.2.2 0 0 0 .2-.2.18.18 0 0 0 0-.13.2.2 0 0 0-.2 0 .18.18 0 0 0 0 .2.2.2 0 0 0 .1.2.2.2 0 0 0 .1.1zm-.8.8a.2.2 0 0 0 .2-.04.2.2 0 0 0 .1-.14.24.24 0 0 0 0-.15.2.2 0 0 0-.3.2.2.2 0 0 0 .1.2.2.2 0 0 0 .1.1zm-.8.82a.2.2 0 0 0 .2-.06.2.2 0 0 0 .1-.14.2.2 0 0 0-.1-.16.2.2 0 0 0-.3 0 .2.2 0 0 0 0 .15.2.2 0 0 0 .1.14.2.2 0 0 0 .2 0zm-.8.8a.2.2 0 0 0 .2-.05.2.2 0 0 0 .1-.1.18.18 0 0 0 0-.1.2.2 0 0 0-.3.2.2.2 0 0 0 .1.2.2.2 0 0 0 .1.1zm-.8.84a.22.22 0 0 0 .2-.05.2.2 0 0 0 .1-.15.2.2 0 0 0-.3-.14.2.2 0 0 0 0 .28.2.2 0 0 0 .2.06zm-.8.77a.2.2 0 0 0 .2-.06.2.2 0 0 0 .1-.1.22.22 0 0 0 0-.1.22.22 0 0 0-.3 0 .2.2 0 0 0 0 .2.18.18 0 0 0 .1.2.2.2 0 0 0 .2.1zm-.8.8a.2.2 0 0 0 .2-.2.2.2 0 0 0 0-.13.22.22 0 0 0-.3 0 .2.2 0 0 0-.1.14.2.2 0 0 0 0 .15.2.2 0 0 0 .2.05zm-.8.83a.2.2 0 0 0 .2-.07.2.2 0 0 0 0-.14.2.2 0 0 0-.1-.2.2.2 0 0 0-.3 0 .2.2 0 0 0 0 .1.23.23 0 0 0 .1.1.22.22 0 0 0 .1.1zM27.3 1a.18.18 0 0 0 .15-.06.17.17 0 0 0 .06-.13.2.2 0 0 0 0-.1.2.2 0 0 0-.3 0 .22.22 0 0 0 0 .2.2.2 0 0 0 .1.2.2.2 0 0 0 .2.1zm-.8.8a.18.18 0 0 0 .14-.05.2.2 0 0 0 .06-.14.18.18 0 0 0-.06-.1.2.2 0 0 0-.28 0 .22.22 0 0 0-.06.2.23.23 0 0 0 .05.2.2.2 0 0 0 .15.1zm-.8.82a.2.2 0 0 0 .14-.06.2.2 0 0 0 .06-.14.2.2 0 0 0-.07-.14.2.2 0 0 0-.28 0 .2.2 0 0 0-.06.14.2.2 0 0 0 .2.2zm-.8.8a.2.2 0 0 0 .1-.06.2.2 0 0 0 .05-.14.18.18 0 0 0-.05-.14.2.2 0 0 0-.28 0 .18.18 0 0 0-.06.13.22.22 0 0 0 .07.2.18.18 0 0 0 .16.1zm-.8.8a.2.2 0 0 0 .13-.05.2.2 0 0 0 .06-.17.18.18 0 0 0-.1-.14.2.2 0 0 0-.3 0 .17.17 0 0 0-.1.13.2.2 0 0 0 0 .1.2.2 0 0 0 .1.1zm-.8.78a.2.2 0 0 0 .13 0 .2.2 0 0 0 .06-.14.2.2 0 0 0-.1-.14.2.2 0 0 0-.4.14.2.2 0 0 0 0 .14.2.2 0 0 0 .1 0zm-.82.84a.18.18 0 0 0 .14-.06.2.2 0 0 0 .06-.14.23.23 0 0 0-.06-.15.22.22 0 0 0-.3 0 .2.2 0 0 0-.04.1.18.18 0 0 0 .06.1.17.17 0 0 0 .14 0zm-.8.8a.22.22 0 0 0 .13-.05.22.22 0 0 0 .1-.2.2.2 0 0 0 0-.2.22.22 0 0 0-.3 0 .2.2 0 0 0 0 .1.2.2 0 0 0 .1.1.2.2 0 0 0 .2 0zm-.8.8A.2.2 0 0 0 21 7.4a.2.2 0 0 0 .06-.16.2.2 0 0 0-.06-.14.2.2 0 0 0-.28 0 .2.2 0 0 0-.06.14.18.18 0 0 0 .06.14.2.2 0 0 0 .15.06zm-.8.8a.2.2 0 0 0 .13-.05.2.2 0 0 0 .1-.2.18.18 0 0 0 0-.2.2.2 0 0 0-.2 0 .2.2 0 0 0 0 .1.2.2 0 0 0 .1.1.2.2 0 0 0 .1.1zm-.82.8A.22.22 0 0 0 19.4 9a.18.18 0 0 0 .06-.14.18.18 0 0 0-.06-.15.2.2 0 0 0-.34.2.2.2 0 0 0 .06.2.2.2 0 0 0 .14.1zm-.8.82a.2.2 0 0 0 .2-.2.2.2 0 0 0-.07-.15.2.2 0 0 0-.3 0 .2.2 0 0 0-.1.2.18.18 0 0 0 0 .2.2.2 0 0 0 .1.1zm-.8.8a.22.22 0 0 0 .13-.05.2.2 0 0 0 0-.1.2.2 0 0 0-.1-.1.2.2 0 0 0-.3 0 .2.2 0 0 0 0 .3.2.2 0 0 0 .1.1zm-.8.8a.2.2 0 0 0 .14-.05.22.22 0 0 0 0-.1.23.23 0 0 0 0-.1.2.2 0 0 0-.3 0 .2.2 0 0 0-.05.2.2.2 0 0 0 .2.2zm-.86.8a.2.2 0 0 0 .14-.04.18.18 0 0 0 .06-.14.2.2 0 0 0-.06-.15.2.2 0 0 0-.28 0 .2.2 0 0 0-.06.14.18.18 0 0 0 .06.14.2.2 0 0 0 .14.1zm-.76.82a.2.2 0 0 0 .14-.08.2.2 0 0 0 .06-.14.2.2 0 0 0-.06-.14.2.2 0 0 0-.3 0 .2.2 0 0 0-.04.14.23.23 0 0 0 .05.14.22.22 0 0 0 .1.08zm-.8.8a.22.22 0 0 0 .14-.05.22.22 0 0 0 .06-.15.2.2 0 0 0-.06-.14.2.2 0 0 0-.3 0 .2.2 0 0 0 .16.34zm-.8.8a.2.2 0 0 0 .14-.06.2.2 0 0 0 0-.28.22.22 0 0 0-.3 0 .22.22 0 0 0-.05.14.2.2 0 0 0 .06.14.2.2 0 0 0 .1.06zm-.82.82a.2.2 0 0 0 .18-.07.2.2 0 0 0 0-.14.22.22 0 0 0 0-.2.22.22 0 0 0-.3 0 .2.2 0 0 0-.05.1.2.2 0 0 0 .06.1.2.2 0 0 0 .2 0zm-.82.8a.2.2 0 0 0 .2-.2.2.2 0 0 0-.06-.15.2.2 0 0 0-.3 0 .2.2 0 0 0 0 .27.2.2 0 0 0 .16.07zm-.78.8a.2.2 0 0 0 .14-.1.2.2 0 0 0 .06-.14.18.18 0 0 0-.06-.14.2.2 0 0 0-.3 0 .2.2 0 0 0-.04.14.18.18 0 0 0 .06.14.2.2 0 0 0 .14.1zm-.82.8a.2.2 0 0 0 .15-.05.2.2 0 0 0 .07-.15.2.2 0 0 0-.06-.14.2.2 0 0 0-.3 0 .2.2 0 0 0-.04.14.2.2 0 0 0 .05.14.2.2 0 0 0 .14.06zm-.8.8a.2.2 0 0 0 .15-.05.2.2 0 0 0 .05-.14.2.2 0 0 0-.34-.1.2.2 0 0 0-.06.2.2.2 0 0 0 .07.2.18.18 0 0 0 .13.1zm-.8.8a.18.18 0 0 0 .14-.05.2.2 0 0 0 .06-.14.2.2 0 0 0-.06-.1.2.2 0 0 0-.28 0 .2.2 0 0 0-.06.2.2.2 0 0 0 .06.2.2.2 0 0 0 .14.1zm-.8.8a.2.2 0 0 0 .14-.04.2.2 0 0 0 .06-.14.2.2 0 0 0-.06-.12.2.2 0 0 0-.28 0 .2.2 0 0 0-.06.15.2.2 0 0 0 .05.13.2.2 0 0 0 .15.03zm-.8.82a.2.2 0 0 0 .2-.2.2.2 0 0 0-.06-.14.2.2 0 0 0-.28 0 .22.22 0 0 0-.06.15.23.23 0 0 0 .05.14.22.22 0 0 0 .15.05zm-.8.8a.2.2 0 0 0 .2-.2.22.22 0 0 0-.07-.14.2.2 0 0 0-.3 0 .22.22 0 0 0-.05.14.2.2 0 0 0 .06.14.2.2 0 0 0 .15.06zm-.82.8a.2.2 0 0 0 .15-.05.2.2 0 0 0 .05-.14.2.2 0 0 0-.34-.14.22.22 0 0 0-.06.1.2.2 0 0 0 .06.1.2.2 0 0 0 .14 0zm-.8.8a.2.2 0 0 0 .14-.04.2.2 0 0 0 0-.3.2.2 0 0 0-.28 0 .18.18 0 0 0-.06.14.2.2 0 0 0 .07.15.17.17 0 0 0 .13.06zm-.78.82a.2.2 0 0 0 .14-.06.2.2 0 0 0 .06-.14.2.2 0 0 0-.08-.14.2.2 0 0 0-.3 0 .2.2 0 0 0-.04.14.2.2 0 0 0 .05.13.2.2 0 0 0 .17.07zm-.83.8a.2.2 0 0 0 .14-.06.2.2 0 0 0 .1-.14.2.2 0 0 0 0-.14.22.22 0 0 0-.3 0 .2.2 0 0 0 0 .14.22.22 0 0 0 .1.14.2.2 0 0 0 .2.06zm-.8.8a.22.22 0 0 0 .13-.04.22.22 0 0 0 .07-.15.2.2 0 0 0-.35-.14.2.2 0 0 0-.06.2.2.2 0 0 0 .06.2.2.2 0 0 0 .14.1zm-.8.8a.22.22 0 0 0 .13-.04.22.22 0 0 0 .06-.15.2.2 0 0 0-.05-.14.2.2 0 0 0-.2 0 .2.2 0 0 0 0 .3.2.2 0 0 0 .2.1zm-.8.8a.2.2 0 0 0 .13-.04.2.2 0 0 0 .1-.14.22.22 0 0 0-.1-.15.2.2 0 0 0-.3 0 .2.2 0 0 0-.04.2.18.18 0 0 0 .06.2.2.2 0 0 0 .14.1zm-.77.82a.2.2 0 0 0 .1-.06.16.16 0 0 0 .05-.13A.2.2 0 0 0 .1 28a.2.2 0 0 0-.3 0 .2.2 0 0 0-.05.14.2.2 0 0 0 .06.14.18.18 0 0 0 .2.08zM23.3 1a.2.2 0 0 0 .13-.05.2.2 0 0 0 .06-.14.2.2 0 0 0-.1-.1.22.22 0 0 0-.3 0 .2.2 0 0 0-.1.2.23.23 0 0 0 0 .2.22.22 0 0 0 .1.1zm-.8.8a.2.2 0 0 0 .13-.05.2.2 0 0 0 .06-.14.18.18 0 0 0-.1-.1.2.2 0 0 0-.3 0 .2.2 0 0 0-.1.2.2.2 0 0 0 0 .2.22.22 0 0 0 .1.1zm-.8.82a.2.2 0 0 0 .12-.05.2.2 0 0 0 .07-.15.2.2 0 0 0-.4-.14.2.2 0 0 0-.1.14.22.22 0 0 0 0 .14.2.2 0 0 0 .1.06zm-.82.8a.22.22 0 0 0 .12-.05.2.2 0 0 0 .06-.15.17.17 0 0 0-.06-.14.2.2 0 0 0-.35.13.2.2 0 0 0 .06.2.2.2 0 0 0 .2.1zm-.8.8a.22.22 0 0 0 .13-.05.2.2 0 0 0 .1-.17.22.22 0 0 0 0-.14.2.2 0 0 0-.3 0A.2.2 0 0 0 20 4a.18.18 0 0 0 .06.14.2.2 0 0 0 .14.08zm-.8.78a.22.22 0 0 0 .13 0 .18.18 0 0 0 .1-.14.22.22 0 0 0 0-.15.2.2 0 0 0-.2 0 .18.18 0 0 0 0 .2.23.23 0 0 0 .1.2.24.24 0 0 0 .2 0zm-.8.84a.2.2 0 0 0 .2-.2.18.18 0 0 0-.07-.14.2.2 0 0 0-.2 0 .18.18 0 0 0 0 .14.2.2 0 0 0 .1.14.18.18 0 0 0 .2.06zm-.82.8a.2.2 0 0 0 .2-.2.2.2 0 0 0-.06-.14.2.2 0 0 0-.3 0 .2.2 0 0 0-.05.14.2.2 0 0 0 .06.14.2.2 0 0 0 .2.06zm-.8.8a.2.2 0 0 0 .2-.2.18.18 0 0 0-.06-.14.2.2 0 0 0-.28 0 .18.18 0 0 0-.06.13.22.22 0 0 0 .07.15.18.18 0 0 0 .12.06zm-.86.8a.2.2 0 0 0 .25-.24.2.2 0 0 0-.06-.15.2.2 0 0 0-.4.15.2.2 0 0 0 0 .14.2.2 0 0 0 .1.1zm-.75.8A.2.2 0 0 0 15.4 9a.2.2 0 0 0 .05-.14.2.2 0 0 0-.06-.14.2.2 0 0 0-.3 0 .22.22 0 0 0-.1.15.23.23 0 0 0 0 .13.23.23 0 0 0 .1.05zm-.8.82a.2.2 0 0 0 .2-.2.2.2 0 0 0-.07-.14.2.2 0 0 0-.3 0 .2.2 0 0 0-.04.14.22.22 0 0 0 .05.14.2.2 0 0 0 .1.06zm-.82.8a.2.2 0 0 0 .15-.06.22.22 0 0 0 .05-.14.2.2 0 0 0-.05-.14.2.2 0 0 0-.35.14.2.2 0 0 0 .2.2zm-.8.8a.22.22 0 0 0 .17-.05.2.2 0 0 0 0-.2.2.2 0 0 0-.3 0 .2.2 0 0 0-.05.2.22.22 0 0 0 .05.2.22.22 0 0 0 .13.1zm-.83.8a.2.2 0 0 0 .14-.04.2.2 0 0 0 .06-.14.2.2 0 0 0-.35-.14.2.2 0 0 0-.05.14.2.2 0 0 0 .06.14.2.2 0 0 0 .14.05zm-.78.82a.2.2 0 0 0 .14-.08.2.2 0 0 0 0-.28.2.2 0 0 0-.3 0 .18.18 0 0 0-.05.14.2.2 0 0 0 .1.14.18.18 0 0 0 .2.08zm-.8.8a.2.2 0 0 0 .2-.2.18.18 0 0 0-.06-.14.2.2 0 0 0-.3 0 .2.2 0 0 0-.04.14.22.22 0 0 0 .05.14.2.2 0 0 0 .15.06zm-.82.8a.22.22 0 0 0 .15-.05.23.23 0 0 0 .07-.15.22.22 0 0 0-.06-.14.22.22 0 0 0-.3 0 .22.22 0 0 0-.05.14.2.2 0 0 0 .1.14.2.2 0 0 0 .2.06zm-.8.82a.2.2 0 0 0 .2-.07.2.2 0 0 0 0-.14.22.22 0 0 0 0-.2.22.22 0 0 0-.3 0 .2.2 0 0 0-.05.1.2.2 0 0 0 .06.1.2.2 0 0 0 .1 0zm-.8.8a.2.2 0 0 0 .14-.06.2.2 0 0 0 .06-.14.18.18 0 0 0-.05-.1.2.2 0 0 0-.28 0 .2.2 0 0 0-.06.15.2.2 0 0 0 .1.14.2.2 0 0 0 .2 0zm-.8.8a.2.2 0 0 0 .14-.1.23.23 0 0 0 .06-.1.24.24 0 0 0-.06-.15.22.22 0 0 0-.3 0 .2.2 0 0 0-.04.15.18.18 0 0 0 .06.14.2.2 0 0 0 .14.06zm-.8.8a.2.2 0 0 0 .13-.05.2.2 0 0 0 .07-.15.2.2 0 0 0-.06-.14.2.2 0 0 0-.3 0 .22.22 0 0 0-.04.14.2.2 0 0 0 .05.14.22.22 0 0 0 .15.06zm-.8.8a.2.2 0 0 0 .2-.2.22.22 0 0 0-.06-.13.2.2 0 0 0-.3 0 .2.2 0 0 0-.05.13.18.18 0 0 0 0 .14.2.2 0 0 0 .1.07zm-.8.8a.18.18 0 0 0 .13-.05.2.2 0 0 0 .07-.14.2.2 0 0 0-.06-.1.2.2 0 0 0-.28 0 .2.2 0 0 0-.06.2.2.2 0 0 0 .06.2.2.2 0 0 0 .13.1zm-.8.82a.2.2 0 0 0 .14-.06.2.2 0 0 0 0-.3.2.2 0 0 0-.34.15.22.22 0 0 0 .05.2.2.2 0 0 0 .15.1zm-.82.8a.2.2 0 0 0 .14-.34.2.2 0 0 0-.34.14.18.18 0 0 0 .06.14.2.2 0 0 0 .14.06zm-.8.8a.18.18 0 0 0 .14-.06.2.2 0 0 0 .05-.14.2.2 0 0 0-.06-.15.22.22 0 0 0-.2 0 .2.2 0 0 0 0 .14.22.22 0 0 0 .1.2.2.2 0 0 0 .2.1zm-.8.8a.2.2 0 0 0 .2-.2.24.24 0 0 0-.06-.13.2.2 0 0 0-.3 0 .2.2 0 0 0-.05.1.2.2 0 0 0 .06.1.2.2 0 0 0 .14 0zm-.82.8a.2.2 0 0 0 .15-.05.2.2 0 0 0 .1-.14.2.2 0 0 0-.1-.14.2.2 0 0 0-.2 0 .2.2 0 0 0 0 .2.2.2 0 0 0 .2 0zm-.76.82a.2.2 0 0 0 .1-.06.2.2 0 0 0 .06-.14A.2.2 0 0 0 .1 24a.2.2 0 0 0-.28 0 .22.22 0 0 0-.06.15.2.2 0 0 0 .06.14.2.2 0 0 0 .18 0zM19.28 1a.2.2 0 0 0 .14-.05.2.2 0 0 0 .06-.14.2.2 0 0 0-.06-.1.2.2 0 0 0-.28 0 .2.2 0 0 0-.06.2.22.22 0 0 0 .05.2.24.24 0 0 0 .15.1zm-.8.8a.2.2 0 0 0 .13-.05.18.18 0 0 0 .1-.14.24.24 0 0 0 0-.1.22.22 0 0 0-.3 0 .2.2 0 0 0 0 .2.2.2 0 0 0 .1.2.2.2 0 0 0 .2.1zm-.8.82a.2.2 0 0 0 .2-.2.2.2 0 0 0-.07-.14.2.2 0 0 0-.2 0 .23.23 0 0 0 0 .14.2.2 0 0 0 .2.2zm-.82.8a.2.2 0 0 0 .14-.06.2.2 0 0 0 .05-.14.2.2 0 0 0-.05-.14.2.2 0 0 0-.3 0 .2.2 0 0 0-.05.14.2.2 0 0 0 .06.14.2.2 0 0 0 .2.06zm-.8.8a.2.2 0 0 0 .14-.05.2.2 0 0 0 .06-.17.18.18 0 0 0-.06-.14.2.2 0 0 0-.28 0 .2.2 0 0 0-.06.14.18.18 0 0 0 .06.14.2.2 0 0 0 .14.08zm-.8.78a.2.2 0 0 0 .2-.2.2.2 0 0 0-.35-.15.2.2 0 0 0 0 .3.18.18 0 0 0 .2.05zm-.8.84a.2.2 0 0 0 .13-.06.2.2 0 0 0 0-.14.2.2 0 0 0-.1-.14.2.2 0 0 0-.3 0 .2.2 0 0 0-.1.14.23.23 0 0 0 0 .14.22.22 0 0 0 .1.06zm-.82.8a.22.22 0 0 0 .14-.05.2.2 0 0 0 .07-.2.2.2 0 0 0-.35-.2.2.2 0 0 0-.06.1.2.2 0 0 0 .06.1.2.2 0 0 0 .14 0zm-.8.8a.2.2 0 0 0 .2-.2.23.23 0 0 0-.04-.14.2.2 0 0 0-.3 0 .18.18 0 0 0-.05.13.18.18 0 0 0 .06.14.2.2 0 0 0 .2.07zm-.84.8a.2.2 0 0 0 .14-.05.2.2 0 0 0 .1-.2.2.2 0 0 0-.06-.2.2.2 0 0 0-.3 0 .2.2 0 0 0-.04.1.2.2 0 0 0 .06.1.2.2 0 0 0 .1.1zm-.77.8a.2.2 0 0 0 .14-.04.2.2 0 0 0 .06-.14.2.2 0 0 0-.06-.14.2.2 0 0 0-.3 0 .2.2 0 0 0-.04.14.23.23 0 0 0 .05.14.22.22 0 0 0 .15.05zm-.8.82a.2.2 0 0 0 .2-.2.2.2 0 0 0-.06-.14.2.2 0 0 0-.28 0 .2.2 0 0 0-.1.15.17.17 0 0 0 0 .13.2.2 0 0 0 .1.06zm-.8.8a.2.2 0 0 0 .2-.2.2.2 0 0 0-.06-.14.2.2 0 0 0-.35.14.2.2 0 0 0 .06.14.2.2 0 0 0 .14.06zm-.8.8A.22.22 0 0 0 9 11.4a.23.23 0 0 0 0-.14.2.2 0 0 0 0-.14.2.2 0 0 0-.28 0 .2.2 0 0 0-.06.14.18.18 0 0 0 .06.14.2.2 0 0 0 .1.06zm-.83.8a.2.2 0 0 0 .14-.05.2.2 0 0 0 .06-.1.2.2 0 0 0-.06-.1.2.2 0 0 0-.28 0 .18.18 0 0 0-.06.2.2.2 0 0 0 .06.2.2.2 0 0 0 .14.1zm-.8.82a.2.2 0 0 0 .15-.08.2.2 0 0 0 .06-.14.18.18 0 0 0 0-.14.2.2 0 0 0-.3 0 .2.2 0 0 0 0 .28.18.18 0 0 0 .2.08zm-.8.8a.23.23 0 0 0 .15-.05.22.22 0 0 0 .06-.15.2.2 0 0 0 0-.14.2.2 0 0 0-.3 0 .2.2 0 0 0 .2.34zm-.8.8a.2.2 0 0 0 .14-.06.2.2 0 0 0 .05-.14.18.18 0 0 0-.1-.14.2.2 0 0 0-.3 0 .22.22 0 0 0-.1.14.2.2 0 0 0 0 .14.22.22 0 0 0 .1.06zm-.8.82a.2.2 0 0 0 .13-.06.2.2 0 1 0-.3-.28.2.2 0 0 0-.04.13.2.2 0 0 0 0 .1.2.2 0 0 0 .1 0zm-.8.8a.22.22 0 0 0 .14-.06.2.2 0 0 0 .06-.14.2.2 0 0 0-.06-.15.2.2 0 0 0-.3 0 .2.2 0 0 0 0 .28.2.2 0 0 0 .16.06zm-.8.8a.23.23 0 0 0 .13-.1.23.23 0 0 0 .06-.15.2.2 0 0 0-.1-.14.2.2 0 0 0-.3 0 .2.2 0 0 0-.1.2.24.24 0 0 0 0 .1.22.22 0 0 0 .2.1zm-.82.8a.18.18 0 0 0 .14-.06.2.2 0 0 0 .06-.14.22.22 0 0 0-.07-.15.2.2 0 0 0-.2 0 .2.2 0 0 0 0 .14.2.2 0 0 0 .1.1.2.2 0 0 0 .2 0zm-.8.8a.22.22 0 0 0 .13-.04.22.22 0 0 0 .1-.15.22.22 0 0 0 0-.1.2.2 0 0 0-.3 0 .2.2 0 0 0 0 .3.2.2 0 0 0 .2.1zm-.8.8a.2.2 0 0 0 .13-.04.22.22 0 0 0 .1-.15.2.2 0 0 0-.3-.1.2.2 0 0 0 0 .2.2.2 0 0 0 .1.2.2.2 0 0 0 .1.1zm-.78.82a.22.22 0 0 0 .14-.06.2.2 0 0 0 .06-.15.2.2 0 0 0-.1-.1.2.2 0 0 0-.27 0 .2.2 0 0 0-.06.2.2.2 0 0 0 .05.2.2.2 0 0 0 .18.1zM15.26 1a.2.2 0 0 0 .14-.05.2.2 0 0 0 .06-.14.2.2 0 0 0-.06-.1.2.2 0 0 0-.28 0 .2.2 0 0 0-.06.2.2.2 0 0 0 .06.2.2.2 0 0 0 .14.1zm-.8.8a.2.2 0 0 0 .2-.2.18.18 0 0 0-.06-.13.2.2 0 0 0-.3 0 .2.2 0 0 0-.04.14.22.22 0 0 0 .05.2.2.2 0 0 0 .2.1zm-.8.82a.2.2 0 0 0 .2-.2.23.23 0 0 0-.07-.14.2.2 0 0 0-.3 0 .23.23 0 0 0-.1.14.22.22 0 0 0 0 .14.2.2 0 0 0 .1.06zm-.82.8a.23.23 0 0 0 .16-.05.25.25 0 0 0 0-.15.2.2 0 0 0-.34-.14.2.2 0 0 0 .18.34zm-.84.8a.2.2 0 0 0 .14-.05.2.2 0 0 0 .1-.17.2.2 0 0 0-.06-.14.2.2 0 0 0-.34.14.18.18 0 0 0 .06.14.2.2 0 0 0 .1.08zm-.76.78a.2.2 0 0 0 .14 0 .2.2 0 0 0 .06-.14.18.18 0 0 0-.06-.14.2.2 0 0 0-.28 0 .2.2 0 0 0-.06.14.23.23 0 0 0 .05.14.22.22 0 0 0 .1 0zm-.8.84a.2.2 0 0 0 .13-.06.2.2 0 0 0 .06-.14.18.18 0 0 0-.06-.14.2.2 0 0 0-.3 0 .2.2 0 0 0-.04.14.2.2 0 0 0 .2.2zm-.8.8a.22.22 0 0 0 .13-.05.2.2 0 0 0 .07-.2.23.23 0 0 0-.07-.2.2.2 0 0 0-.3 0 .2.2 0 0 0-.05.1.2.2 0 0 0 .06.1.2.2 0 0 0 .15 0zm-.82.8a.2.2 0 0 0 .18-.2.18.18 0 0 0 0-.14.2.2 0 0 0-.28 0 .2.2 0 0 0-.06.14.2.2 0 0 0 .06.14.2.2 0 0 0 .1.06zm-.82.8a.18.18 0 0 0 .14-.05.2.2 0 0 0 0-.3.2.2 0 0 0-.3 0 .2.2 0 0 0-.02.1.2.2 0 0 0 .05.1.2.2 0 0 0 .13.1zm-.8.8A.22.22 0 0 0 7.37 9a.2.2 0 1 0-.3-.28.2.2 0 0 0 0 .27.22.22 0 0 0 .15 0zm-.8.82a.2.2 0 0 0 .15-.06.2.2 0 0 0 .06-.14.22.22 0 0 0 0-.14.2.2 0 0 0-.3 0 .22.22 0 0 0 0 .14.23.23 0 0 0 .1.14.22.22 0 0 0 .2.06zm-.8.8a.2.2 0 0 0 .2-.2.2.2 0 0 0-.05-.14.2.2 0 0 0-.35.14.2.2 0 0 0 .06.14.2.2 0 0 0 .14.06zm-.8.8a.2.2 0 0 0 .2-.2.2.2 0 0 0-.06-.14.2.2 0 0 0-.28 0 .2.2 0 0 0-.06.14.18.18 0 0 0 .06.14.18.18 0 0 0 .14.06zm-.8.8a.2.2 0 0 0 .14-.05.2.2 0 0 0 .06-.1.2.2 0 0 0-.05-.1.2.2 0 0 0-.35.2.2.2 0 0 0 .06.2.22.22 0 0 0 .14.1zm-.8.82a.2.2 0 0 0 .13-.08.2.2 0 0 0 .06-.14.18.18 0 0 0-.1-.14.2.2 0 0 0-.3 0 .18.18 0 0 0-.1.14.2.2 0 0 0 .1.14.18.18 0 0 0 .1.08zm-.8.8a.2.2 0 0 0 .13-.07.18.18 0 0 0 .06-.1.2.2 0 0 0-.1-.1.2.2 0 0 0-.3 0 .2.2 0 0 0-.1.2.2.2 0 0 0 0 .2.2.2 0 0 0 .1.1zm-.82.8a.22.22 0 0 0 .14-.05.23.23 0 0 0 .07-.15.2.2 0 0 0-.4-.14.2.2 0 0 0 0 .28.2.2 0 0 0 .1.06zm-.8.82a.2.2 0 0 0 .15-.07.2.2 0 0 0 .07-.14.22.22 0 0 0-.05-.2.22.22 0 0 0-.3 0 .2.2 0 0 0-.05.1.2.2 0 0 0 .06.1.2.2 0 0 0 .12 0zm-.78.8a.2.2 0 0 0 .14-.06.2.2 0 0 0 .03-.14.18.18 0 0 0-.06-.1.2.2 0 0 0-.2 0 .2.2 0 0 0 0 .14.2.2 0 0 0 .1.14.2.2 0 0 0 .2 0zM11.25 1a.2.2 0 0 0 .14-.05.22.22 0 0 0 0-.14.22.22 0 0 0-.1-.1.2.2 0 0 0-.3 0 .2.2 0 0 0-.1.2.2.2 0 0 0 .1.1.18.18 0 0 0 .2.1zm-.8.8a.2.2 0 0 0 .2-.2.18.18 0 0 0-.07-.13.2.2 0 0 0-.3 0 .2.2 0 0 0-.04.14.22.22 0 0 0 .05.2.2.2 0 0 0 .1.1zm-.8.82a.2.2 0 0 0 .12-.05.2.2 0 0 0 .07-.15.2.2 0 0 0-.06-.14.2.2 0 0 0-.34.14.2.2 0 0 0 .05.14.2.2 0 0 0 .1.06zm-.82.8A.2.2 0 0 0 9 3.36a.2.2 0 0 0 0-.14.2.2 0 0 0-.34-.14.2.2 0 0 0-.06.14.18.18 0 0 0 .06.14.2.2 0 0 0 .17.06zm-.83.8a.2.2 0 0 0 .14-.05.2.2 0 0 0 .1-.17.2.2 0 0 0-.07-.14.2.2 0 0 0-.28 0 .2.2 0 0 0-.1.14.18.18 0 0 0 0 .14.18.18 0 0 0 .1.08zM7.22 5a.2.2 0 0 0 .14 0 .2.2 0 0 0 .06-.14.2.2 0 0 0-.35-.14.2.2 0 0 0-.07.1.2.2 0 0 0 .08.18.2.2 0 0 0 .14 0zm-.8.84a.2.2 0 0 0 .14-.06.2.2 0 0 0 .06-.14.2.2 0 0 0-.35-.14.2.2 0 0 0-.05.14.22.22 0 0 0 .05.14.2.2 0 0 0 .15.06zm-.82.8a.2.2 0 0 0 .16-.06.2.2 0 0 0 .06-.14.2.2 0 0 0-.06-.14.22.22 0 0 0-.3 0 .2.2 0 0 0-.05.14.2.2 0 0 0 .1.14.2.2 0 0 0 .2.06zm-.8.8a.22.22 0 0 0 .15-.05.23.23 0 0 0 .05-.2.2.2 0 0 0-.05-.2.2.2 0 0 0-.28 0 .18.18 0 0 0-.06.1.24.24 0 0 0 .1.1.22.22 0 0 0 .2 0zm-.8.8a.18.18 0 0 0 .14-.05.2.2 0 0 0 0-.3.2.2 0 0 0-.3 0 .2.2 0 0 0-.04.1.2.2 0 0 0 .05.1.2.2 0 0 0 .15.1zm-.8.8A.22.22 0 0 0 3.34 9a.2.2 0 0 0 0-.3.2.2 0 0 0-.3 0 .2.2 0 0 0-.04.15.2.2 0 0 0 .06.15.2.2 0 0 0 .14.05zm-.8.82a.2.2 0 0 0 .14-.06.2.2 0 0 0 .06-.14.2.2 0 0 0-.06-.14.2.2 0 0 0-.3 0 .2.2 0 0 0-.04.14.22.22 0 0 0 .05.14.2.2 0 0 0 .15.06zm-.8.8a.2.2 0 0 0 .13-.05.22.22 0 0 0 .06-.1.2.2 0 0 0-.1-.1.2.2 0 0 0-.4.2.2.2 0 0 0 0 .2.2.2 0 0 0 .1.1zm-.82.8a.22.22 0 0 0 .14-.05.22.22 0 0 0 .08-.1.23.23 0 0 0-.05-.1.2.2 0 0 0-.3 0 .23.23 0 0 0-.05.2.2.2 0 0 0 .06.2.2.2 0 0 0 .12.1zm-.78.8a.2.2 0 0 0 .14-.04.2.2 0 0 0 .06-.14.2.2 0 0 0-.06-.15.2.2 0 0 0-.28 0 .22.22 0 0 0-.06.15.18.18 0 0 0 .06.14.2.2 0 0 0 .14.05zM7.23 1a.2.2 0 0 0 .14-.05.2.2 0 0 0 .06-.14.18.18 0 0 0-.06-.1.2.2 0 0 0-.3 0A.2.2 0 0 0 7 .8a.2.2 0 0 0 .06.15.2.2 0 0 0 .17.05zm-.8.8a.2.2 0 0 0 .13-.05.2.2 0 0 0 .06-.14.18.18 0 0 0-.06-.1.2.2 0 0 0-.3 0 .2.2 0 0 0-.04.2.23.23 0 0 0 .05.2.22.22 0 0 0 .15.1zm-.8.82a.2.2 0 0 0 .13-.06.18.18 0 0 0 .06-.14.2.2 0 0 0-.35-.14.2.2 0 0 0-.06.14.2.2 0 0 0 .3.2zm-.83.8a.2.2 0 0 0 .2-.05.22.22 0 0 0 0-.15.22.22 0 0 0 0-.14.2.2 0 0 0-.3 0 .2.2 0 0 0-.05.14.18.18 0 0 0 .06.14.2.2 0 0 0 .1.06zm-.8.8a.2.2 0 0 0 .14-.05A.2.2 0 0 0 4.2 4a.2.2 0 0 0-.05-.14.2.2 0 0 0-.3 0A.2.2 0 0 0 3.8 4a.2.2 0 0 0 .2.22zM3.2 5a.2.2 0 0 0 .15 0 .2.2 0 0 0 .06-.14.2.2 0 0 0 0-.14.2.2 0 0 0-.3 0 .22.22 0 0 0 0 .1.2.2 0 0 0 .1.18.2.2 0 0 0 .2 0zm-.8.84a.24.24 0 0 0 .14-.05.24.24 0 0 0 .06-.2.18.18 0 0 0-.06-.2.2.2 0 0 0-.3 0 .2.2 0 0 0-.04.1.23.23 0 0 0 .05.1.22.22 0 0 0 .15 0zm-.8.8a.2.2 0 0 0 .2-.2.2.2 0 0 0-.06-.14.2.2 0 0 0-.3 0 .23.23 0 0 0-.05.14.2.2 0 0 0 0 .14.2.2 0 0 0 .1.06zm-.8.8a.2.2 0 0 0 .2-.2.2.2 0 0 0-.07-.14.2.2 0 0 0-.28 0 .2.2 0 0 0-.06.14.18.18 0 0 0 0 .14.2.2 0 0 0 .1.06zm-.8.8a.2.2 0 0 0 .13-.05A.2.2 0 0 0 .2 8a.2.2 0 0 0-.07-.1.2.2 0 0 0-.3 0A.2.2 0 0 0-.2 8a.2.2 0 0 0 .04.13.22.22 0 0 0 .16.1zM3.2 1a.2.2 0 0 0 .15-.05A.2.2 0 0 0 3.4.8a.22.22 0 0 0-.04-.13.2.2 0 0 0-.3 0A.22.22 0 0 0 3 .8a.2.2 0 0 0 .06.15.2.2 0 0 0 .15.05zm-.8.8a.2.2 0 0 0 .15-.05.2.2 0 0 0 .06-.14.2.2 0 0 0 0-.1.2.2 0 0 0-.3 0 .2.2 0 0 0 0 .2.2.2 0 0 0 .1.2.2.2 0 0 0 .2.1zm-.8.82a.2.2 0 0 0 .15-.06.2.2 0 0 0 .06-.14.2.2 0 0 0 0-.14.22.22 0 0 0-.3 0 .2.2 0 0 0 0 .3.18.18 0 0 0 .2.04zm-.8.8a.2.2 0 0 0 .14-.06.2.2 0 0 0 .06-.14.2.2 0 0 0-.06-.14.2.2 0 0 0-.3 0 .2.2 0 0 0-.05.14.2.2 0 0 0 0 .14.2.2 0 0 0 .1.06zm-.8.8a.2.2 0 0 0 .13-.05A.22.22 0 0 0 .2 4a.2.2 0 0 0-.07-.12.2.2 0 0 0-.3 0A.2.2 0 0 0-.2 4a.2.2 0 0 0 .05.14.2.2 0 0 0 .15.08zM44.14 36.4a.2.2 0 0 0 .15-.05.2.2 0 0 0 0-.14.2.2 0 0 0-.1-.1.2.2 0 0 0-.4.2.18.18 0 0 0 0 .2.18.18 0 0 0 .1.1zm-4 0a.2.2 0 0 0 .14-.05.22.22 0 0 0 .06-.14.22.22 0 0 0-.07-.1.2.2 0 0 0-.28 0 .22.22 0 0 0-.1.2.22.22 0 0 0 0 .2.2.2 0 0 0 .1.1zm-4.04 0a.22.22 0 0 0 .16-.05.2.2 0 0 0 .05-.14.2.2 0 0 0 0-.1.2.2 0 0 0-.3 0 .2.2 0 0 0 0 .2.2.2 0 0 0 .1.2.2.2 0 0 0 .2.1zm-4 0a.2.2 0 0 0 .14-.06.18.18 0 0 0 .05-.13.2.2 0 0 0-.1-.1.2.2 0 0 0-.3 0 .2.2 0 0 0-.1.2.22.22 0 0 0 0 .2.2.2 0 0 0 .1.1zm-4.02 0a.2.2 0 0 0 .15-.06.18.18 0 0 0 .05-.13.2.2 0 0 0-.06-.1.2.2 0 0 0-.28 0 .2.2 0 0 0-.06.2.18.18 0 0 0 .07.2.17.17 0 0 0 .13.1zm-4.02 0a.2.2 0 0 0 .15-.05.2.2 0 0 0 .1-.14.18.18 0 0 0 0-.1.2.2 0 0 0-.2 0 .2.2 0 0 0 0 .2.2.2 0 0 0 .2.2zm-4.06 0a.2.2 0 0 0 .15-.05.2.2 0 0 0 .05-.14.22.22 0 0 0-.05-.1.2.2 0 0 0-.35.2.2.2 0 0 0 .06.2.22.22 0 0 0 .14.1zm-4 0a.2.2 0 0 0 .14-.34.2.2 0 0 0-.28 0 .2.2 0 0 0-.06.15.2.2 0 0 0 .06.2.2.2 0 0 0 .14.1zm-4 0a.2.2 0 0 0 .15-.05.24.24 0 0 0 .06-.14.22.22 0 0 0 0-.1.2.2 0 0 0-.3 0 .2.2 0 0 0 0 .2.2.2 0 0 0 .1.2.2.2 0 0 0 .2.1zm-4 0a.23.23 0 0 0 .15-.05.22.22 0 0 0 .06-.14.24.24 0 0 0 0-.1.22.22 0 0 0-.3 0 .24.24 0 0 0 0 .2.22.22 0 0 0 .1.2.2.2 0 0 0 .2.1zm-4 0a.2.2 0 0 0 .14-.05.2.2 0 0 0 .06-.14.2.2 0 0 0-.05-.1.2.2 0 0 0-.3 0 .2.2 0 0 0-.05.2.2.2 0 0 0 .06.2.2.2 0 0 0 .14.1z"/><path class="cls-3" d="M48.1 36.4a.2.2 0 0 0 .14-.06.18.18 0 0 0 .05-.13.18.18 0 0 0-.1-.1.2.2 0 0 0-.3 0 .22.22 0 0 0-.1.2.22.22 0 0 0 0 .2.2.2 0 0 0 .1.1zm-.02-4a.2.2 0 0 0 .14-.07.2.2 0 1 0-.3-.33.2.2 0 0 0-.04.14.23.23 0 0 0 .05.14.22.22 0 0 0 .15.1zm0-4.04a.2.2 0 0 0 .14-.07.16.16 0 0 0 .06-.2.2.2 0 0 0-.35-.2.2.2 0 0 0-.05.1.2.2 0 0 0 .06.1.18.18 0 0 0 .14.1zm.02-4.02a.2.2 0 0 0 .13-.05.2.2 0 0 0 .06-.2.2.2 0 0 0-.1-.2.2.2 0 0 0-.3 0 .2.2 0 0 0-.1.1.2.2 0 0 0 0 .1.2.2 0 0 0 .1 0zm0-4.02a.22.22 0 0 0 .13-.06.2.2 0 0 0 .06-.15.2.2 0 0 0-.1-.1.2.2 0 0 0-.4.2.2.2 0 0 0 0 .2.2.2 0 0 0 .1.1zm0-4.02a.2.2 0 0 0 .14-.06.2.2 0 0 0 .06-.14.18.18 0 0 0-.06-.1.2.2 0 1 0-.14.3zm0-4.03a.2.2 0 0 0 .15-.05.2.2 0 0 0 .06-.14.2.2 0 0 0 0-.15.2.2 0 0 0-.3 0 .22.22 0 0 0 0 .15.18.18 0 0 0 .1.14.2.2 0 0 0 .2.05zm.02-4.03a.2.2 0 0 0 .14-.05.2.2 0 0 0 .06-.2.2.2 0 1 0-.4 0 .2.2 0 0 0 .05.1.22.22 0 0 0 .15.1zm0-4.02a.22.22 0 0 0 .14-.05.22.22 0 0 0 .06-.17.2.2 0 0 0-.06-.14.2.2 0 0 0-.3 0 .2.2 0 0 0-.04.13.2.2 0 0 0 .06.1.2.2 0 0 0 .14.1zM0 .2A.2.2 0 0 0 .1.14.18.18 0 0 0 .18 0 .2.2 0 0 0 .1-.15a.2.2 0 0 0-.27 0A.2.2 0 0 0-.23 0a.22.22 0 0 0 .06.14A.2.2 0 0 0 0 .2zm44.14 0a.2.2 0 0 0 .15-.06.22.22 0 0 0 0-.14.2.2 0 0 0-.1-.14.2.2 0 0 0-.3 0 .2.2 0 0 0-.1.14.2.2 0 0 0 0 .14.2.2 0 0 0 .1.06zm-4 0a.2.2 0 0 0 .13-.06.22.22 0 0 0 .06-.14.22.22 0 0 0-.07-.15.2.2 0 0 0-.28 0 .2.2 0 0 0-.06.14.22.22 0 0 0 .08.1.22.22 0 0 0 .13 0zM36.1.2a.22.22 0 0 0 .16-.06.22.22 0 0 0 .05-.14.2.2 0 0 0 0-.15.2.2 0 0 0-.3 0A.2.2 0 0 0 36 0a.2.2 0 0 0 .1.1.2.2 0 0 0 .1.02zm-4 0a.2.2 0 0 0 .14-.06.18.18 0 0 0 .05-.14.2.2 0 0 0-.1-.15.2.2 0 0 0-.3 0 .2.2 0 0 0-.1.14.22.22 0 0 0 .1.1.22.22 0 0 0 .1 0zm-4.02 0a.2.2 0 0 0 .15-.06.18.18 0 0 0 .05-.14.2.2 0 0 0-.06-.15.2.2 0 0 0-.28 0 .2.2 0 0 0-.06.14.18.18 0 0 0 .07.1.18.18 0 0 0 .13 0zm-4.02 0a.2.2 0 0 0 .15-.06.22.22 0 0 0 .1-.14.2.2 0 0 0 0-.15.2.2 0 0 0-.2 0A.2.2 0 0 0 24 0a.22.22 0 0 0 .05.1.22.22 0 0 0 .12 0zM20 .2a.2.2 0 0 0 .2-.06.2.2 0 0 0 .05-.14.22.22 0 0 0-.05-.15.22.22 0 0 0-.3 0 .2.2 0 0 0-.05.14.2.2 0 0 0 .06.1.22.22 0 0 0 .1 0zm-4 0a.2.2 0 0 0 .18-.06.2.2 0 0 0 .06-.14.2.2 0 0 0-.07-.15.22.22 0 0 0-.28 0 .2.2 0 0 0-.1.15.2.2 0 0 0 0 .14.2.2 0 0 0 .1.06zm-4 0a.2.2 0 0 0 .16-.06.24.24 0 0 0 .06-.14.2.2 0 0 0-.06-.14.2.2 0 0 0-.3 0 .2.2 0 0 0-.05.14.2.2 0 0 0 .1.14.2.2 0 0 0 .2.06zm-4 0a.24.24 0 0 0 .15-.06A.22.22 0 0 0 8.2 0a.25.25 0 0 0-.05-.15.23.23 0 0 0-.3 0A.24.24 0 0 0 7.8 0a.22.22 0 0 0 .06.14A.22.22 0 0 0 8 .2zm-4 0a.2.2 0 0 0 .12-.06.2.2 0 0 0 .06-.14.2.2 0 0 0-.05-.14.2.2 0 0 0-.3 0A.2.2 0 0 0 3.8 0a.2.2 0 0 0 .06.14A.2.2 0 0 0 4 .2zm44.1 0a.2.2 0 0 0 .14-.06.18.18 0 0 0 .06-.14.2.2 0 0 0-.06-.15.2.2 0 0 0-.28 0 .2.2 0 0 0-.06.14.22.22 0 0 0 .1.1.2.2 0 0 0 .1 0z"/></pattern></defs><title>robot_left_arm</title><g id="body_butt" data-name="body butt"><path class="cls-4" d="M47.85 116.7a13.47 13.47 0 0 1-24.85-.1"/><path class="cls-5" d="M47.85 116.7a13.47 13.47 0 0 1-24.85-.1"/><path class="cls-6" d="M22.22 116.2a20.82 20.82 0 0 1-20.8-20.8V58.16a4 4 0 0 1 .07-.72 34.24 34.24 0 0 1 68.3 0 4 4 0 0 1 0 .72V95.4A20.82 20.82 0 0 1 49 116.2H22.2z"/><path class="cls-3" d="M35.65 26.75a32.82 32.82 0 0 1 32.77 30.88 2.54 2.54 0 0 1 .06.54V95.4a19.38 19.38 0 0 1-19.38 19.37H22.22A19.38 19.38 0 0 1 2.82 95.4V58.16a2.54 2.54 0 0 1 .07-.54 32.82 32.82 0 0 1 32.7-30.88m0-2.83A35.67 35.67 0 0 0 0 57.3a5.37 5.37 0 0 0-.07.9v37.2a22.24 22.24 0 0 0 22.2 22.23h26.9a22.24 22.24 0 0 0 22.2-22.2V58.17a5.37 5.37 0 0 0-.06-.9 35.67 35.67 0 0 0-35.6-33.35z"/></g><g id="Antenna"><circle id="Antenna_dots_Path_" data-name="Antenna dots &lt;Path&gt;" class="cls-7" cx="35.45" cy="10.69" r="10.69"/><path class="cls-8" d="M35.65 23.8v-6.4"/><circle class="cls-9" cx="35.44" cy="10.69" r="4.9"/></g><g id="Left_lower_arm_hand" data-name="Left lower arm hand"><path class="cls-9" d="M78.87 114.82l4.46-21.67"/><circle class="cls-10" cx="77.92" cy="118.42" r="4.9" transform="rotate(-78.36 77.926 118.42)"/></g><path class="cls-9" d="M69.9 68.4l13.43 24.65" id="Left_upper_arm" data-name="Left upper arm"/><path id="Face-mouth" class="cls-11" d="M11.42 57.4A9.53 9.53 0 0 0 21 66.9h29.4a9.53 9.53 0 0 0 9.54-9.53V51.3a.84.84 0 0 0 0-.27c-.84-8.57-11.38-15.37-24.3-15.37S12.22 42.48 11.48 51a.84.84 0 0 0 0 .27v6.27"/><g id="Eyes"><circle class="cls-12" cx="25.97" cy="52.47" r="3.59"/><circle class="cls-12" cx="51.34" cy="52.47" r="3.59"/></g></svg>