<?xml version="1.0" encoding="utf-8"?>
<!-- Generator: Adobe Illustrator 19.1.0, SVG Export Plug-In . SVG Version: 6.00 Build 0)  -->
<svg version="1.1" id="Layer_1" xmlns="http://www.w3.org/2000/svg" xmlns:xlink="http://www.w3.org/1999/xlink" x="0px" y="0px"
	 viewBox="0 0 250.4 268.4" style="enable-background:new 0 0 250.4 268.4;" xml:space="preserve">
<style type="text/css">
	.st0{fill:#353333;stroke:#000000;stroke-width:5;stroke-linecap:round;stroke-linejoin:round;stroke-miterlimit:10;}
	.st1{fill:#FFFFFF;stroke:#605D5D;stroke-width:4.05;stroke-linecap:round;stroke-linejoin:round;stroke-miterlimit:10;}
	.st2{fill:none;stroke:#605D5D;stroke-width:4.05;stroke-linecap:round;stroke-linejoin:round;stroke-miterlimit:10;}
	.st3{fill:#353333;stroke:#000000;stroke-width:4.86;stroke-linecap:round;stroke-linejoin:round;stroke-miterlimit:10;}
	.st4{fill:#E5E5E5;stroke:#000000;stroke-width:1.7707;stroke-linecap:round;stroke-linejoin:round;stroke-miterlimit:10;}
	.st5{fill:#E5E5E5;}
	.st6{fill:#E5E5E5;stroke:#000000;stroke-width:2;stroke-linecap:round;stroke-linejoin:round;stroke-miterlimit:10;}
	.st7{fill:none;stroke:#000000;stroke-width:1.7707;stroke-linecap:round;stroke-linejoin:round;stroke-miterlimit:10;}
	.st8{fill:none;stroke:#000000;stroke-width:2;stroke-linecap:round;stroke-linejoin:round;stroke-miterlimit:10;}
</style>
<path id="main_1_" class="st0" d="M56.7,131.3c0,0-9.2-2.9-12.4,0.8c-1.9,2.2-2.3,16.9-2.5,26.7c-0.5,26,4.6,106.3,4.6,106.3h160.9
	l0.9-104.1c0,0,2.8-25.2-2.2-30.8c-1.7-1.9-13.1-3-16.3,0c-21.7,14-46.4,25.3-64.8,25.7C117,156.1,73.6,142.7,56.7,131.3z"/>
<path class="st1" d="M99.6,170.3c0,0-3.5,60.7,0,71.9"/>
<path class="st2" d="M158,251.2c0,0,1.9-48.6,1.5-70.4c-0.1-7.7-5.2-14.9-6.2-17.9"/>
<path id="left_sleeve_1_" class="st3" d="M60.7,157.7c-2.1,12.1-20.4,85.4-20.4,85.4S5,239.4,4.5,235.8s25.8-90.3,39.6-102.3"/>
<path id="right_sleeve_1_" class="st3" d="M190.8,158.5c2.1,12.1,20.4,85.4,20.4,85.4s35.3-3.8,35.8-7.3
	c0.5-3.5-21.7-83.2-39.6-102.3"/>
<g id="_fill_2_">
	<path class="st4" d="M57.8,118.1c-5.1-5.1-5.7-10.7-1.5-16.9c-2.5-2.7-5.9-4.9-6.1-8.8c-0.1-3.2,1.8-6,4.1-8.8
		c-3.7-1.9-6.2-4.8-6.2-8.7c-0.1-4.3,4.2-6.3,6.5-9.4c-3.3-3.8-3.2-7.7-0.6-11.6c2.5-3.8,6-2.6,9.5-1.4c2.1-2.9,3.3-6.5,7.2-7.1
		c3.2-0.5,12.1-3.9,14.8-1.4c2.3-3.2,12.4-5.3,16-4.1c4.8-3.8,13.3-5.5,18.4-2.7c6.9-2.9,16-2,22.7,3.2c2.6-1.6,11.4-3.9,21.5-2.1
		c6.1-3.7,19.1-1.5,21.2,4.8c1.3,3.9,7,2.1,9.1,5.3c3.6,0.6,2.8,7.4,3.6,9.1c4.5-3.3,12.4-9.8,16.8-13.6c-0.3-3.4,1.8-7.6-0.6-10.2
		c-4-4.5-7-6.3-16.6-6.2c-0.9-3.5-0.6-10-4.3-11.8c-3.8-1.8-6.8-4.5-10-7.1c-2-1.6-10.7-2.5-17.4,2.3c-6.3-4.3-18.3-2.8-20.5-2
		c-6.4-5.6-18.4-7.5-25.7-1.7c-10.5-4.4-13.5-5-21,0.4c-4.6-1.4-18.7-0.4-22.7,6.1c-8.7-2.1-21.9,7.7-22.6,13.1
		c-6,2.8-10.4,0.8-10.7,8.6c-4.7,3.8-6.6,9-3.8,15.4c-4.7,5.9-14.1,10.9-3.7,24.4C31.8,82,33,88.5,36.2,94.9"/>
	<path class="st5" d="M51.4,34.3c-7.8,6.8-6.1,60.2-21.7,74.7c0.6,5.2-3.6,12.7-2.1,16.9c1.6,4.4-7.2,12.1-4.6,15.3
		c2.4,2.9-13.1,12.9-9.5,14.7c11.6,5.6,45.4-2.2,45.5-2.2c14.1,1.5,14.2-8.6,13.2-19.8c-0.7-7.6-7.5-35.6-8.4-43.2
		c-1.3-10.7,5.8-12.6,2.8-21.9c0,0,5.8-4.8,6-8c1.3-0.7,7-5.8,12.9-10.1c5,0.8,13.3-2.6,18.2-6.9c2.1,0.9,6.7,7.5,15.3,1.8
		c8.7,4.1,19.2,3.8,22.9,0c2.5,4.1,15.3,8.8,21.3,4.1c1.8,4,6.7,7.6,10.5,5.9c3.8,5.2,2.1,5.4,8.3,6.9c-5.1,5,8,12.4,8.3,13.1
		c-4.2,5.8-3.9,11.6-0.2,17.5c-5.8,12.3-0.4,20.9-0.4,20.9s-4.3,7.3-4.4,11.8c-0.3,9.7,5.5,11.9,5.5,11.9s-12.7,9.4-3.2,20.1
		c6.7,5.3,16.4-0.7,18.8-1.8c9.3-5.1,25.3-18.7,25.7-19.7c0.1-0.3,1.7-5.4,1.8-5.9c0.5-5.5-11.9-33.7-18.5-83.5
		c-0.1-0.7-46.1-13.9-46.2-14.6"/>
	<path class="st4" d="M57,152.8c4.7,4.7-44.8,5.6-43.4,1.6"/>
	<path class="st4" d="M58.3,138.7c-7.1,1.6-21.4-0.3-28.5,0.3c-5.3,0.5-10.7,0.5-14.5,4.9"/>
	<path class="st4" d="M99.9,11.7c-2,11.9-0.7,14.2,0.9,21.2"/>
	<path class="st4" d="M222.4,82.8c5.8,5.9,7,13.7,3.4,17.4c3.9,4.6,5.1,10.1,3.6,16.4c-7.5,6-19,15.9-28.3,19.9"/>
	<path class="st4" d="M196.9,26.7c-0.7,7.7-4.6,8.2-7.3,15.2"/>
	<path class="st4" d="M199,93.2c5.6,5,6.9,11.7,2.9,17.9c-1.7,2.6-1.9,4.6-0.3,6.9c4,6.1,3.1,11.7-1.7,17.5
		c5.6,5.7,6.2,13.6,4.5,21.8"/>
	<path class="st4" d="M59.1,118.5c-1.5,1.3-3.1,1.9-5.1,2.2c-6.6,1.2-20,2.8-26.3,5.2c-4.6,1.7-6.3,7.4-5.2,13.1"/>
	<path class="st4" d="M225.8,100.2c-6.4,4.4-17,12.1-24.7,14"/>
	<path class="st4" d="M145.4,14.6c0.5,6.7-1.1,13.1-1.7,19.7"/>
	<path class="st4" d="M13.5,154.2c0.3-0.2-2.1-5.4,0.9-9.8"/>
	<path class="st4" d="M214.8,43.9c8.7,1.5,9.6,11.9,7.8,18.5c-0.6,2.3,0.9,4.3,1.5,6.3c0.7,2.5,1,5.2,0.8,7.3
		c-0.3,3.4-1.2,6.8-5.6,8.8c-6.2,2.8-11.9,6.6-18.5,8.3"/>
	<path class="st4" d="M121.6,13.8c0.1,6.1-0.7,12-1.7,18"/>
	<path class="st4" d="M54.8,102.7c-5.1-1.3-15.5,1.9-19.4,3.7c-3,1.3-6.6,2.8-8.3,6.6c-2,4.4-1.7,8.6,0.1,12.9"/>
	<path class="st4" d="M59.1,118.5c-2.1,6.3-5.7,11.2,0.6,21.7c-4.2,3.4-5.4,7.6-2.7,12.6"/>
	<path class="st4" d="M198,57.5c6,2,9.5,11.2,4.8,15.5c-0.7,0.7-1.7,1.1-2.8,1.7c4.2,4.5,3,9.4,1,14.1c-0.5,1.1-1.5,2.1-1.6,3.5"/>
	<path class="st4" d="M221.2,63.6c-4.1,4.5-11.2,8.3-17.6,9"/>
	<path class="st4" d="M49.7,92.8c-2.4,1.3-12,1.6-14.4,3c-5.2,3-6.1,7.9-5.6,13.3"/>
	<path class="st4" d="M55.7,32.5c0.4,5.2,2.4,9.8,4.3,14.6"/>
	<path class="st4" d="M83.8,37.2c-0.5-1.4-4.9-9.9-5.7-17.4"/>
	<path class="st4" d="M165,32.9c0,0,2-14.2,1.8-18.3"/>
	<line class="st4" x1="42.4" y1="51.7" x2="48" y2="59"/>
	<line class="st6" x1="39.3" y1="74.6" x2="45.3" y2="74.6"/>
	<path class="st5" d="M28.3,124.7c-7.9,8.6,4.2,12.6-5.1,13.8c-17.7,9.9-8.6,18.4-2.2,17.6"/>
</g>
<g>
	<path class="st7" d="M57.8,118.1c-5.1-5.1-5.7-10.7-1.5-16.9c-2.5-2.7-5.9-4.9-6.1-8.8c-0.1-3.2,1.8-6,4.1-8.8
		c-3.7-1.9-6.2-4.8-6.2-8.7c-0.1-4.3,4.2-6.3,6.5-9.4c-3.3-3.8-3.2-7.7-0.6-11.6c2.5-3.8,6-2.6,9.5-1.4c2.1-2.9,3.3-6.5,7.2-7.1
		c3.2-0.5,12.1-3.9,14.8-1.4c2.3-3.2,12.4-5.3,16-4.1c4.8-3.8,13.3-5.5,18.4-2.7c6.9-2.9,16-2,22.7,3.2c2.6-1.6,11.4-3.9,21.5-2.1
		c6.1-3.7,19.1-1.5,21.2,4.8c1.3,3.9,7,2.1,9.1,5.3c3.6,0.6,2.8,7.4,3.6,9.1c4.5-3.3,12.4-9.8,16.8-13.6c-0.3-3.4,1.8-7.6-0.6-10.2
		c-4-4.5-7-6.3-16.6-6.2c-0.9-3.5-0.6-10-4.3-11.8c-3.8-1.8-6.8-4.5-10-7.1c-2-1.6-10.7-2.5-17.4,2.3c-6.3-4.3-18.3-2.8-20.5-2
		c-6.4-5.6-18.4-7.5-25.7-1.7c-10.5-4.4-13.5-5-21,0.4c-4.6-1.4-18.7-0.4-22.7,6.1c-8.7-2.1-21.9,7.7-22.6,13.1
		c-6,2.8-10.4,0.8-10.7,8.6c-4.7,3.8-6.6,9-3.8,15.4c-4.7,5.9-14.1,10.9-3.7,24.4C31.8,82,33,88.5,36.2,94.9"/>
	<path class="st7" d="M57.5,153.5c15.7,2.4,15.8-8,14.7-19.6c-0.7-7.6-7.5-35.6-8.4-43.2c-1.3-10.7,5.8-12.6,2.8-21.9
		c0,0,5.8-4.8,6-8c1.3-0.7,7-5.8,12.9-10.1c5,0.8,13.3-2.6,18.2-6.9c2.1,0.9,6.7,7.5,15.3,1.8c8.7,4.1,19.2,3.8,22.9,0
		c2.5,4.1,15.3,8.8,21.3,4.1c1.8,4,6.7,7.6,10.5,5.9c3.8,5.2,2.1,5.4,8.3,6.9c-5.1,5,8,12.4,8.3,13.1c-4.2,5.8-3.9,11.6-0.2,17.5
		c-5.8,12.3-0.4,20.9-0.4,20.9s-4.3,7.3-4.4,11.8c-0.3,9.7,5.5,11.9,5.5,11.9s-12.7,9.4-3.2,20.1c6.7,5.3,16.4-0.7,18.8-1.8
		c9.3-5.1,25.3-18.7,25.7-19.7c0.1-0.3,1.7-5.4,1.8-5.9c0.5-5.6-0.2-9.9-4.7-14"/>
	<path class="st7" d="M57,152.8c4.7,4.7-44.8,5.6-43.4,1.6"/>
	<path class="st7" d="M58.3,138.7c-7.1,1.6-21.4-0.3-28.5,0.3c-5.3,0.5-10.7,0.5-14.5,4.9"/>
	<path class="st7" d="M99.9,11.7c-2,11.9-0.7,14.2,0.9,21.2"/>
	<path class="st7" d="M222.4,82.8c5.8,5.9,7,13.7,3.4,17.4c3.9,4.6,5.1,10.1,3.6,16.4c-7.5,6-19,15.9-28.3,19.9"/>
	<path class="st7" d="M196.9,26.7c-0.7,7.7-4.6,8.2-7.3,15.2"/>
	<path class="st7" d="M199,93.2c5.6,5,6.9,11.7,2.9,17.9c-1.7,2.6-1.9,4.6-0.3,6.9c4,6.1,3.1,11.7-1.7,17.5
		c5.6,5.7,6.2,13.6,4.5,21.8"/>
	<path class="st7" d="M59.1,118.5c-1.5,1.3-3.1,1.9-5.1,2.2c-6.6,1.2-20,2.8-26.3,5.2c-4.6,1.7-6.3,7.4-5.2,13.1"/>
	<path class="st7" d="M225.8,100.2c-6.4,4.4-17,12.1-24.7,14"/>
	<path class="st7" d="M145.4,14.6c0.5,6.7-1.1,13.1-1.7,19.7"/>
	<path class="st7" d="M13.5,154.2c0.3-0.2-2.1-5.4,0.9-9.8"/>
	<path class="st7" d="M214.8,43.9c8.7,1.5,9.6,11.9,7.8,18.5c-0.6,2.3,0.9,4.3,1.5,6.3c0.7,2.5,1,5.2,0.8,7.3
		c-0.3,3.4-1.2,6.8-5.6,8.8c-6.2,2.8-11.9,6.6-18.5,8.3"/>
	<path class="st7" d="M121.6,13.8c0.1,6.1-0.7,12-1.7,18"/>
	<path class="st7" d="M54.8,102.7c-5.1-1.3-15.5,1.9-19.4,3.7c-3,1.3-6.6,2.8-8.3,6.6c-2,4.4-1.7,8.6,0.1,12.9"/>
	<path class="st7" d="M59.1,118.5c-2.1,6.3-5.7,11.2,0.6,21.7c-4.2,3.4-5.4,7.6-2.7,12.6"/>
	<path class="st7" d="M198,57.5c6,2,9.5,11.2,4.8,15.5c-0.7,0.7-1.7,1.1-2.8,1.7c4.2,4.5,3,9.4,1,14.1c-0.5,1.1-1.5,2.1-1.6,3.5"/>
	<path class="st7" d="M221.2,63.6c-4.1,4.5-11.2,8.3-17.6,9"/>
	<path class="st7" d="M49.7,92.8c-2.4,1.3-12,1.6-14.4,3c-5.2,3-6.1,7.9-5.6,13.3"/>
	<path class="st7" d="M55.7,32.5c0.4,5.2,2.4,9.8,4.3,14.6"/>
	<path class="st7" d="M83.8,37.2c-0.5-1.4-4.9-9.9-5.7-17.4"/>
	<path class="st7" d="M165,32.9c0,0,2-14.2,1.8-18.3"/>
	<line class="st7" x1="42.4" y1="51.7" x2="48" y2="59"/>
	<line class="st8" x1="39.3" y1="74.6" x2="45.3" y2="74.6"/>
</g>
</svg>
