<?xml version="1.0" encoding="utf-8"?>
<!-- Generator: Adobe Illustrator 19.1.0, SVG Export Plug-In . SVG Version: 6.00 Build 0)  -->
<svg version="1.1" id="Layer_1" xmlns="http://www.w3.org/2000/svg" xmlns:xlink="http://www.w3.org/1999/xlink" x="0px" y="0px"
	 viewBox="0 0 154.9 247.1" style="enable-background:new 0 0 154.9 247.1;" xml:space="preserve">
<style type="text/css">
	.st0{fill:#44B3B8;}
	.st1{fill:#62C9D8;}
	.st2{display:none;}
	.st3{display:inline;fill:#44B3B8;}
	.st4{display:none;fill:#59B9C1;}
	.st5{fill:#62C9D8;stroke:#003767;stroke-width:1.1745;stroke-miterlimit:10;}
</style>
<g>
	<g>
		<path class="st0" d="M105.3,229.2c-5.6,10.9-15.8,17.9-28.9,17.9c-13.2,0-22.6-7.3-28-17.8"/>
		<g>
			<path class="st1" d="M154.6,110.9c-13,7.6-64.8,42.2-79.5,48.2c-12.5-6.7-64.6-40.2-74.8-45.8c-0.1,0.4-0.3,64.8-0.3,64.8
				c0,25.1,20.4,45.5,45.5,45.5h63.1c25.1,0,46.2-20.8,46.2-45.9C154.9,177.6,154.7,111.3,154.6,110.9z"/>
		</g>
		<g class="st2">
			<path class="st3" d="M154.3,127.5c-13,7.6-66.6,37-80.3,43.8c-12.5-6.7-63.8-37.6-74-43.2c-0.1,0.4-0.1,13.5-0.1,13.5
				c0.2,0.7,75.3,44.9,75.3,44.9c-0.3,0.1,79.3-45.2,79.2-45.6C154.4,141.1,154.3,127.9,154.3,127.5z"/>
		</g>
	</g>
	<path class="st4" d="M41.3,163.4c-5.7,0.2-18.5-2.2-22.8-3.9l-1.4,29.8c0,0.9,0.5,1.6,1.4,1.8l8,2.2c0.1,0,10.5,1.5,10.5,1.5
		c1.6,0.3,3.1-0.9,3.1-2.5L41.3,163.4z"/>
	<path class="st0" d="M45.2,126c0,0,21.1,7.6,32.9,4.7c11.7-2.9,28.2-4.1,28.2-4.1v8.2c0,0-23.5,13.5-27,12.9
		c-3.5-0.6-31.7-9.4-33.5-10C44,137.1,45.2,126,45.2,126z"/>
	<polygon class="st0" points="153.9,108.3 99.8,129.5 100.2,131.1 153.6,110.7 	"/>
	<polygon class="st0" points="45.5,129.3 0,108.3 0.3,109.8 45.5,131.3 	"/>
	<path class="st5" d="M22.9,25.6c0,0-6.6,1.2-7,5.9c-0.5,4.7,2.3,17,2.3,17s4.2-5.2,6.2-5.9c8.1-2.8,44.3-8.1,49.9-7.9
		c22,0.9,50.2,2.6,50.2,2.6l3.2,4.1c9.1-1.5,7.8-5.4,8.2-7c1-4-2.2-13,1.5-13.8c3.6-0.8,1.5-2.7,2.4-6.1c0.9-3.4,0.1-7.1,0.1-7.1
		s-34.3-5.2-53.6-7.1C67-1.5,9,4,8.5,8.7C8.1,13.3,10,19.1,22.9,25.6z"/>
</g>
</svg>
