<svg xmlns="http://www.w3.org/2000/svg" viewBox="0 0 543.5 175.9"><defs><clipPath id="clip-path"><path class="cls-1" d="M175.5 87.9A87.6 87.6 0 1187.9.3a87.57 87.57 0 0187.6 87.6z"/></clipPath><style>.cls-1{fill:none}.cls-2{fill:#fff}.cls-3{clip-path:url(#clip-path)}</style></defs><g id="Layer_2" data-name="Layer 2"><g id="Layer_1-2" data-name="Layer 1"><path class="cls-2" d="M333.3 32.5c0 1.5-.5 2.4-1.5 2.5-7.7.9-13 2.3-15.9 4.3s-4.4 5.8-4.5 11.4l-2 109c0 1.2-.7 1.8-2.2 1.8a5.83 5.83 0 01-3-1.5L208.9 52.3l-1.3 85.5a7.08 7.08 0 00-.1 1.4c0 4.7 1.5 8 4.4 9.9s8.3 3.4 16 4.3c1 .1 1.5 1 1.5 2.5 0 1.7-.5 2.6-1.5 2.6q-4.8 0-13.2-.6c-5.2-.4-9.3-.6-12.1-.6-3.1 0-7.2.2-12.5.6q-7.65.6-11.7.6c-1 0-1.5-.9-1.5-2.6 0-1.5.6-2.4 1.7-2.5 7.6-.9 12.9-2.4 15.7-4.3s4.3-5.7 4.5-11.3l3.2-87.1v-.8c0-5-1.4-8.5-4.3-10.5s-8.3-3.5-16.2-4.4c-.9 0-1.3-.8-1.3-2.5s.5-2.5 1.5-2.5c2.2 0 5.2.2 9.1.6a74 74 0 007.8.6 61.43 61.43 0 007.8-.6 63 63 0 018-.6l89.1 99.6V50.7q0-7.8-4.5-11.1c-3-2.1-8.5-3.7-16.6-4.6-1-.1-1.5-1-1.5-2.5 0-1.7.5-2.6 1.5-2.6 3.3 0 7.8.2 13.3.6q7.8.6 12 .6c3.1 0 7.2-.2 12.5-.6q7.65-.6 11.7-.6c.9 0 1.4.9 1.4 2.6zm144.8 62.6q0 28.5-19.1 46t-51.5 17.5c-2.7 0-8.2-.1-16.5-.4-8.5-.2-14.2-.4-17-.4-11.5 0-22.6.2-33.5.7-1 0-1.5-.9-1.5-2.6 0-1.5.5-2.4 1.5-2.5a47.41 47.41 0 0011.7-2.5 11.12 11.12 0 005.7-4.1c1.1-1.7 1.6-4.8 1.6-9.1V51.1q0-6.45-1.5-9c-1-1.8-2.9-3.2-5.6-4.2a53.45 53.45 0 00-11.9-2.5c-1 0-1.5-.8-1.5-2.5s.5-2.5 1.5-2.5c7.2.5 18.4.7 33.5.7 2.8 0 8.5-.1 17-.3 8.3-.2 13.7-.3 16.5-.3q31.65 0 51.1 18.1t19.5 46.5zm-20.4 0c0-16.8-4.8-30.8-14.4-41.9s-21.6-16.7-36-16.7h-.6l-17.4.4c-7.3.2-10.9 3.8-10.9 10.7v93.8c0 7 3.6 10.6 10.9 10.6l17.4.6c14.4 0 26.4-5.5 36.3-16.4 9.8-11.1 14.7-24.7 14.7-41.1zm85.8 60.9c0 1.7-.5 2.6-1.5 2.6q-6.15 0-14.7-.6-8.1-.6-13.8-.6t-13.8.6c-5.7.4-10.7.6-14.9.6-1 0-1.5-.9-1.5-2.6 0-1.5.5-2.4 1.5-2.5 7.5-.9 12.5-2.3 15.2-4.2s4-5.7 4-11.5V50.7c0-4.3-.5-7.4-1.6-9.1s-3-3.1-5.7-4.2a59.87 59.87 0 00-11.9-2.5c-1 0-1.5-.8-1.5-2.5s.5-2.5 1.5-2.5c4.2 0 9.2.2 14.9.6q8.1.6 13.8.6t13.8-.6q8.55-.6 14.7-.6c1 0 1.5.8 1.5 2.5s-.5 2.5-1.5 2.5a47.32 47.32 0 00-11.8 2.5 10.42 10.42 0 00-5.6 4.1c-1 1.7-1.6 4.8-1.6 9.2v87.1c0 4.3.5 7.3 1.6 9s2.9 3.1 5.6 4.2a58.6 58.6 0 0011.8 2.5c.9.1 1.5.9 1.5 2.5z"/><g class="cls-3"><path class="cls-2" d="M38.1 160.4zm11.8 4.6l.1.2.5.3.5.2.5.3.5.2.4.3.7.2.6.2.3-.1-.1-.2-.2-.2-.4-.4-.5-.4-.6-.3-.5-.5-.7-.5h-.4l.4.4.5.4.5.3v.2l-.3-.1-.5-.1-.6-.1z"/></g><g class="cls-3"><path class="cls-2" d="M49.6 164.7l.5.2.4.1-.1-.2-.2-.2-.5-.2h-.4l.3.1zm2.1-2.4l.5.2.1-.1h.4l-.4-.3v.3l-.4-.3zm3.5 0l.3.3h.6l-.7-.3zm-22-52.3l-.2-.5-.3-.3-.1-.3-.3-.3-.2-.2-.3-.2-.3-.1-.1.2h-.3l-.3.1h-.4l-.2-.3-.2-.1-.1-.3-.2-.3-.3-.3-.1-.4-.1-.4-.1-.3.2-.3v-.3l.1-.4v-.4l.1-.5.1-.2.1-.6-.1-.1-.2-.3-.2-.3-.3-.2-.1-.1-.3-.1-.3-.2-.3.1-.3-.1-.3-.2h-.4l-.2-.2-.2-.3.3-.1.2-.5v-.3l.2-.7.1.4.2-.3.1-.5V99l.2-.4.1-.3.3-.3v-.3l-.1-.2-.3-.1-.2-.2h-.9l-.3-.1-.1.1-.2.4v.3l-.2.2v.4h-.2l-.2.1v.3h-.3v-.2l-.3-.2-.3.1-.3-.1h-.4l-.2-.1-.1-.3-.2-.3-.3-.2-.1-.4-.1-.4v-.4l-.2-.3-.1-.4v-.4l.1-.1-.2-.5v-.4l.1-.3.1-.3v-.5l.1-.3.2-.4.1-.3.2-.3v-.4l.1-.4v-.4l.1-.4.2-.2.3-.2.3-.1h.3l.2-.1.2-.1v-.4l.2-.1-.1.4.3-.1h.2l.3.1.2.2.3.2.3-.1.2.4v.3l.2.1.3.1.2-.1.2.2.1.2.1-.1-.2-.4v-.1l.2-.1.1-.2h-.3l-.2-.1-.1-.1.1-.3.3.3.3-.1.2.1.3.2.1-.2.1.3.2.2h.6l.2.3.2.3v.3l.3.1.3-.1h.3l.2.3.1.6.1.1.1.5-.1.3-.1.3h.2l-.1.4v.2l.1.4.1.4.1.4.1.4.1.3.2.1.2-.1.2-.4.1-.4.1-.5v-.5l-.1-.6v-.2l-.1-.5v-.5l-.1-.4v-.5l.1-.4.2-.3.2-.4.4-.3.3-.1.3-.2.3-.2.2-.2.3-.2.3.1.3-.3.3-.2.3.1.2-.2-.3-.1.4-.2.2.1.1-.2.1-.3-.3-.1-.3-.1h.3l.2-.1.2.2v-.4l-.1-.3-.1-.4v-.3l.2-.4-.3-.4.3.2V85l.2-.3h.3l-.2.2-.1.3-.2.4.3.2-.1.2.1.1-.1.3-.2.4.2-.1.1-.4.3-.3.2-.2-.1-.6v-.5l.2.2v.4l.4-.2.3-.4.2-.4-.1-.3.2-.2.4-.1.3-.1.3.1.3.1.3-.1.1-.3.2.3.2-.1v.2l.4-.1.1-.3-.1.3-.3-.2v-.4l-.1-.2.2-.2v-.2l.2-.3.3-.3v-.1l.3-.1.4-.1.3-.3.1.2.4-.1h.3l.4-.2.1-.3.4.1h.4l.6-.3-.2.3.5.1-.5.2-.3.1-.4.2-.3.4v.4l.3.3.4-.2.3-.3.3-.2h.3l.5-.1.6-.1h.6l.1-.3.4-.1.5-.3-.4-.4.2-.5-.1-.2-.3.4-.4.3-.1.4-.3-.1-.4.1-.4-.2-.3-.5-.3-.2-.1-.6.1-.6.1-.3H45l-.2-.6.6.1h.3l.4-.2.1-.3-.2-.4-.3-.2-.5-.1h-.4l-.5.1-.4.1-.4.2-.4.2-.4.4-.3.2-.3.3-.4.1.3-.3.3-.3.3-.3.2-.2.4-.4.4-.2.5-.4.4.2.2-.5.4-.2.4-.1.4.1.4.1h.4l.3.2.4.1.4.1.2.2.5.1.5.1.4-.3.3-.3.4-.3.5-.1h.7l.4-.3.4-.1v-.8l.2-.4-.3-.7-.4-.1.1-.4-.6-.3.6-.2-.2-.4-.6-.2-.1-.4-.6-.3.1-.5-.4-.3-.2-.5.2-.5.4-.4-.2-.4.1-.3-.2-.5-.1-.6v-.7l-.2-.7v-.6l-.1-.5-.4.4-.3.2.1.4-.4.5-.5.2-.3.3-.7.1-.1-.7-.3-.2-.1-.6.1-.4.3-.6v-.5l.3-.5-.3-.2-.4-.1-.3-.4.3-.4-.3-.4-.2-.5-.2-.4h-.7l-.3-.1-.4-.4-.4-.3-.5.3-.2.5.2.4-.3.4-.4.5.1.3-.1.7-.2.5-.4.4-.4-.1-.2.4.1.5.3.3-.1.7-.1.5-.1.7-.3.8-.4.3-.5.4-.6.2-.4.1v1.1l-.2.6-.2.5.1.6-.5.5-.6.2v.3l-.3-.5v-.4l-.1-.5-.1-.5-.2-.6.3-.5.1-.4v-.5l.5-.8-.3-.4-.5-.2-.5-.2-.3-.6-.4-.3-.2-.3-.1-.6-.3-.6-.4-.3-.3-.6h-.4l-.4.1.2-.4.1-.5.2-.4.1-.8-.3-.2-.3-.1v-.5l.3-.6.4-.6.3-.5.3-.4.5-.5.5-.4.4-.1.3-.6h1l.2-.6.7-.6.7.2.6-.4.6-.6.3-.6.9-.7-.1-.5h.6v.4l.5.5.7-.4.8-.4.5-.7-.4-.5.4-.7.6-.2.5-.8-.6-.4.2-.5-.4-.5-.5-.2-.4.8-.4.7-.4.9-.7.2-.3.6-.4.1v-.9l.4-.7.3-.6.1-.8-1 .8.1-.9.1-.6-.2-.6.7-.3.2-.9v-.5l.1-.8.2-.8.5-.4.2-.5.4-.1.5.1.6-.5.6-.5.4-.3-.1-.4-.6-.5-.9-.1-.5.5-.3.7-.4.8-.4.6-.5.7-.5.2-.7.7-.6.7-.1 1 .3.8-.6.5-.2.7-.8.5h-.1l-.5.6-.2-.6.4-.8.8-.2.2-1-.1-.9-.7.6-.6.2.2.9-.5.3-.5.7-.6-.1-.4-.5-.3-.6-.3-.7.1-1h-1.2l-.5.3.2.5-.4.5-.3-.5-.1-.5h-.6l-.6-.1-.2-.4-.4-.3.4-.3h.4l.2-.7-.2-.6-.4-.3-.1-.5-.2-.6v-.7l-.4-.4-.6.5-.2-.2.6-.8-.8.6-.1-.4.4-.7.2-.9-.7.6h-.4l.3-.6-.6.1-.6.1-.5.2v-.5l-.3-.1-.5.3-.4.4v-.5l.1-.6v-.6L28 39l.1-.4V38l-.2-.2-.2-.1v-.6l-.2-.2.1-.7-.2-.3-.2-.3.3-.6-.2-.4.3-.5v-.5l-.7.2-.2-.2-.6.1-.2-.1-.5.2-.6.5-.4.3-.3-.2-.2-.2-.5.5-.3.6-.2.7-.5.7-.2.6-.4.6-.3.2-.1-.4.3-.4v-.2H21l-.4.2-.1.3v.3l-.4.3-.2.4-.1.5.2.3-.1.4.3-.1h.3l-.4.4-.4.6-.4.4-.2-.2-.4.2.1-.4h-.3l-.2.3-.5.4-.6.5-.2.6-.4.6-.3.6-.2.6.1.2.3-.2-.3.7-.3.3-.3.5h.2l.2.3-.3.7.3-.3v.3l.1.1-.4.5-.4.6-.3.1-.3.2-.4.1-.4.3-.1-.1h-.2l-.4.2H13l-.3.1-.2.2h1.4l.3.1.3-.3h.2l.4-.1.3-.3.4-.2h.4l.3-.2.3-.3v-.4l.2-.3h.3l.4-.3.4-.4.4-.2.4-.1.1.1-.3.3-.3-.1-.5.6-.4.4v.3l-.3.2.2.2.4-.2.3-.2.1.3.5-.4.4-.7v.4l.2.2-.1.4-.1.6v.6l.2.2.3.2v.5l.1.3.3-.1-.3.6v.5l-.1.6v.9l-.3.6-.1.6-.2.6-.2.7.4-.7.2-.6.4-.5v-.6l.1.2.3-.4-.1.5-.3.3-.2.6-.3.4.3-.1.3-.3-.1.4-.1.5-.1-.4-.4.2-.2.6h.1l-.2.4-.1.4-.1.4v.4l-.1.5.4-.6.1-.7.2-.6v.3l.1.2-.2.3-.1.5-.1.4v.4h.3l-.3.4-.1.3-.3.2-.1.6v.4l-.1.7.1.4-.2.6-.1.4-.1.3.1.5.1.4.1.4.1.5v.5l.1.3h.3l-.2.4v.9l-.2.1v.4l-.3.4v-.1H18l.3-.3-.1-.3-.2-.2-.2-.5-.1.2v.3l-.1.5-.1.5-.2.4v.3l.2.3-.3-.2-.1.3-.2.4-.2.4-.1.4-.3.5-.2.4-.3.5-.1.5-.1.3-.1.5-.2.4-.2.4-.1.2.1.3-.1.4v.3l-.2.4.1.3.1.4-.2.2.2.2v-.2l.1.2-.1.1v.4l-.1-.3-.1.3v.4l.2.1-.2.3-.1.2.1.4v.5l.1.5-.1.4.2.4.2.3.2.2.1.1-.1.3.2.1.1.4v.5l-.1.4.1.5-.1.4.1.3-.1.2.1.3-.1.4.1.1-.1.5.2.3.1.4.1.4v.7l-.3.1-.2-.2.2.3v.4l.1.2.1.3.2.1.1.3.1.4.1.4-.1.4-.1.2.2.4.1.4.1.4.2.4.1.6.3-.2-.1-.4-.1-.6-.2-.1-.1-.4h.2l-.2-.4.1-.3-.1-.5v-.4l-.1-.5v-.5l-.1-.3v-.5l-.1-.4-.1-.5v-.4l-.1-.3-.1-.3.1-.4v-.4l.1-.3.1-.3.2.4h.1l.1.3.1.2v.9l-.1.3.1.4v.5l.1.5.2.5.2.2-.1.4.2.5v.3l.1.1.1.3-.1.3-.1.2.2.3.2.3.1.6.1.3.2.4.1.5.1.4.1.4.1.3v.6l.1.3v.2l-.2.2.1.2-.2.1.1.5.1.5.3.3.2.4.1.4.3.4.3.2h.1l.2.4.2.4.2.3.2.2.3.4.2.2.2.3.3.3.3.2.2.2.3.3.4-.1h.2l.3.1.2.2.2.2.2.3.1.2.2.4.2.4.2.3.2.3.3.3.3.1.2.3.1.2.2.1.3.3.2.1.4.1.1-.1.1.4-.2-.1.2.4.2.3.2.4.2.3.2.4v.3l-.1.2.1.4.2.1.1.2.2-.2.1.3.3.4.2.3-.1.3.3.2.2.2h.1l.3.2.3.2.1.3.3.1v.4h.6l-.2-.4-.1-.2.3-.1.2-.1.2-.2h.2l.2.3.1.4h.2l-.1.2.1.5.3.4.1.4z"/></g><g class="cls-3"><path class="cls-2" d="M32.7 110.8v1.5l-.1.3.2.3-.2.3-.1.3-.4-.1-.2.3.1.3h-.3l.1.3-.3.1-.4.1v.4l-.3.2v.3l-.3.1.1.5v.4l.2.2.2.5.1-.4.2.1-.1.2-.1.3-.2.1-.3.1-.3.2v.3l.2.3.2.5-.2.1.2.3.3.3.2.3.2.3.1.4.3.4.3.4.1.4.1.4.1.4.3.5.2.4.2.4.1.3.2.3.2.3.2.6v.3l.3.4.2.3.2.3.5.4.3.2.3.3.4.4.3.1.3.4.3.2.3.4.2.2.3.3.1.4.1.4.1.5v.3l.1.3v1.1l-.1.2.1.4v.6l.1.4.1.3-.1.2.1.4-.1.4v.9l-.1.3.1.3.2.5-.2.1v.3l.2.4.1.4v.2l.2.2-.1.5.1.3-.1.2.1.3-.1.3-.1.3-.1.3v.3l-.1.1.1.3h-.2v.3l.2.4.1.2.1.4.2.3-.2.3.1.4v.2l.2.3.1.3.3.1v-.2l.4.2-.1.2.2.2-.1.1.1.4-.1.2.2.3v.3l.1.1-.2.2.2.2-.1.3-.1-.2-.1-.2v-.2l-.1-.2.1-.1-.3-.3-.2.1v.3l.2.3v.1l-.1.3.2.2-.2-.1.1.2-.3.2.1.2.2-.1.4.3h.2v.6l.2.4-.4-.5h-.2v.2l.1.3.1.4.2.2.1.3.3.1-.1.1.2.5.2-.4v.2l.2.3-.2-.1.1.3-.1.2h.4v-.2l.2.4.1.2-.5-.2.2.3.3.3.1-.1.3.3.3.1v.2l.3.2.4.3.2-.1.2-.2.2.1v.2H43l.2.2.5.3h.1l-.1-.4-.1-.3h.6l-.1-.1.3.1.4.1-.4-.4-.2-.3-.3-.3v-.4l.2-.1h.3l-.1-.3v-.4l.2-.1.3-.1.2-.2v-.3l-.1-.2-.5-.2-.4-.3-.3-.3-.1-.3v-.3l.2-.1.3-.1.4.1-.1-.2.2-.1-.1-.3-.1-.3.1-.2.3-.1-.5-.2.3-.1.3.2.3.1v-.2l-.3-.3h-.4l-.3-.2-.1-.4-.2-.4.1-.1.4.2.3.2.5.2.4-.1v-.2l-.2-.2.1-.3v-.2l-.2-.3v-.3l.2.2.5.1.4.1.3.1h.8l.3-.1.3-.1.1-.2.2-.2.1-.3-.1-.4-.3-.1-.2-.3.1-.3-.3-.3-.6-.3-.1-.3v-.2l.4.4.5.1.2.2.4.2h.4l.4.2h.4l.3-.1.2-.2v-.2l.3-.2.2-.2.1-.4.2-.1.3-.2.3-.1.2-.3.1-.3.1-.3.2-.3.2-.3.3-.2.1-.1.1-.3v-.3l-.1-.3v-.5l-.1-.3.3-.3.2-.2.4-.2.2-.2.4-.1.3-.1.3.1.3-.3.3.1-.2-.3.5.1.4.1h.7l.4.1-.1-.3.4-.1.3-.1v-.4l.1-.3.3-.3.1-.3.3-.3.1-.2v-.7l.2-.2v-.8l.1-.3v-.4l-.1-.3-.1-.4.1-.3.1-.4.3-.2.3-.2.3-.4.1-.3.3-.4.2-.1.3-.2.2-.2.3-.3.2-.2.1-.3.2-.4.1-.4-.1-.4-.1-.4-.2-.4-.2-.4-.4-.2h-.4l-.3-.1-.3-.3-.3-.2-.3-.3-.2-.2-.4-.3-.4-.3-.4-.3-.3-.1-.4.1-.3-.1-.4-.2h-.4l-.3-.3-.4-.1-.4.1h-.4l.1-.3-.1-.3-.2-.3h-.3l-.2-.2-.4-.2-.4-.2-.4-.3-.4-.1-.3.1-.2.5-.2-.2.2-.3.1-.4-.4-.2h-.4l-.3-.1-.3.1v.4l-.2.5-.1-.6-.5.1.1-.4.1-.3.3-.2.3-.2.3-.3v-.5l-.4-.1-.1-.5-.3-.6v-.4l-.3-.4-.2-.2-.4-.3-.3-.4-.3-.2-.3-.2-.2-.1-.4-.2-.3-.1-.3-.1h-.4l-.3-.1-.4-.1-.2-.3-.2-.2-.3-.4h-.3v-.3l-.1-.3-.3-.3-.3-.3-.4-.4h-.5l.1-.4-.1-.4-.4-.2-.2-.2h-.3l-.1-.3-.3-.4.6.1-.4-.1-.4-.1-.4-.1-.4.2h-.3l-.4-.1-.3-.2v-.3h-.6l-.4-.1-.3-.1-.2-.2v-.4l-.2-.2-.4-.2-.2-.1-.1-.5-.3.1.1.4-.2.1h-.6v.5l.2.5-.1.4h-.3l-.1-.3-.1-.3.2-.3.1-.2-.1-.4-.1-.4h.3l.2-.3-.1-.2-.2-.1-.2.1-.2.2-.3.1-.2.1-.3.1-.4-.2-.2.2-.2-.2-.3.1-.2.2v.7h-.3l-.2.2-.3.3v.5z"/></g><g class="cls-3"><path class="cls-2" d="M38.8 145v.3l.1.2.1.5.3.1.1-.2-.2-.3.1-.2-.1-.2zm5.8 8.3h-.1l-.3-.1v.1l-.3-.1.1.4.2.1h.3l.1.2h-.3l.2.4-.2-.1-.3-.4-.1.3-.2-.2-.5-.3-.3-.2-.5-.3-.5-.4-.4-.2.1.2.4.2.3.2-.1.1.4.2v.2l.4.1.2.3.2.1.2.2.5.3.4.2h.3l.1.2.4.3h.3l.5.3-.3-.3.5.1.4-.1.5.1h.1v-.1l-.4-.1-.3-.2-.3-.2-.5-.3-.4-.3-.2-.3-.1-.2zm4.2.6l.5.4.2-.1.2.1.2.2h.4l.1-.1h.4l-.1-.2-.4-.2H50l-.5-.2h-.4l.2.2-.1.1zm-6-42.8l.4.1.1-.1.1-.4H43v.4zm-4.7-3zm-5.3-6.2l.2.1.2.3.2.2.2-.1.2.1.2.1v-.3l-.3-.2-.3-.1-.2-.2h-.3zm-2.4-3.7v.2l.1.1h.2l-.1-.3-.1-.2z"/></g><g class="cls-3"><path class="cls-2" d="M29.4 97.7l.4.2.1-.2.3.1.3-.1.2-.2.2.2.4.2H31l.2.3.3.2.4.1.2.3.2.1.3.3h.3l.1.2v.3l.2.4.5.1v.3l-.2.2-.2.1.4.1.3.1h.3l.3.2.4.1h.5v-.2h-.2l-.2-.3-.3-.2h-.2l.1-.3-.2-.2-.3-.1-.3-.4-.2-.2-.3-.3-.2-.3-.3-.2-.3-.1-.2-.4-.2-.1-.2-.3-.3-.1-.3-.2-.3-.1h-.6l-.2-.1-.4.1-.2.2v.2zm5.7 4.9l.4.3h.5l.2.2h.3l.3.2.2.4.2-.2v-.2l.4-.1v.2l.3.1.3-.1.4.1.2.3.2-.2-.2-.4-.6-.3.3-.1-.3-.1-.1-.3-.4-.2-.3-.1-.4-.2-.2.1-.4-.3-.3-.1-.2.1.3.1.1.3v.3l.2.4-.3.1-.3-.1-.2-.2-.3-.1zm4.6 1.6l.3.1h.3l.2.1.2-.1-.2-.3-.4-.1-.4-.1zm-6.1-7.7v.2l-.2.2.2.4.1.5.2-.3-.2-.3.1-.3-.1-.4zm3.1-8.2l-.1.2-.3.1.3-.1zm1.8-4.3l.5.1h.4l.4-.1-.2-.2h-.9zm7.8-7.4l.4.3v.4l.3.2.4.2.4.1-.2-.4-.2-.3-.3-.2-.4-.2zm-.6 3.2l.1.3.3.4.4.3.1-.3.4-.1-.5-.1-.4-.1-.3-.2v-.4zM41 59.6l.4.1.7-.4v-.1l-.3-.1-.4.1zm1.7.4l-.3.7.1.4.4-.4.2-.5zM40 67.1h.3l-.5.4.3.1.3-.2-.2.5.4-.6-.1-.4zm-2.3 3.2l.2.3.3.3v-.5l-.1-.1zm11.2 9v.5l.5-.1.5.2.4.1.5.1.4.2-.1.3-.3.2.3.2.4-.5h.3l.3.2-.3.4.4-.2-.1.4.4.1.2-.4.2-.5h-.4l.3-.5-.2.1-.3.3-.1-.2.2-.3.5-.4h-.5v-.4l.4-.4-.3-.2-.4-.1h-.4l-.3-.4.3-.2-.3-.3-.6.3.4-.5.2-.3.4-.5.3-.5-.3-.1-.5.2-.2.3-.3.4-.4.5-.3.6-.4.4-.3.4.2.2-.4.2zm-8.7-22.1l.6.2-.2.6.4.1.6-.4.4-.3.4.1.2.5.2.5.6-.4-.3-.4v-.6l-.1-.6-.3-.6-.2-.7.2-.7-.7.4-.4.4-.4.8-.3.7zm6.9-3.6l-.1.7.6.1.5-.3.3-.5v-.5l-.6-.2z"/></g><g class="cls-3"><path class="cls-2" d="M44.9 45.9v.8l-.1.8v.7l.4.8.5.2.7.5.5.1.4.8.5-.1.7-.6v.6l.3 1-.6.9.8-.3v.8l.4.6-.2.8-.1.6-.5.3-.6.5-.6.3.2.8-.7.3-.6-.2-.6-.5-.3.4-.3.1-.4.5.1.6.7.2.5-.2.4.3.4.4.3.4.3.4-.2.6.3.5.3.3.4.4v.3l.4.5.4.3.5.3.2-.5-.3-.6-.2-.6-.2-.5v-.6l.4.5.3.5.5.6.6.2.4-.9-.2-.6.2-.7-.1-.5-.4-.7v-.7l.4-.9.6.9v.8l.4.6.4-.6h.7l.3-.6.6-.7-.2-.5-.3-.6-.3-.6-.3-.7-.7-.2-.4-.8.3-.6.7-.1-.3-.8.5-.5-.1-.9-.4-.6-.3-1.1-.3-.5-.6-.3.4-.8.1-.5-.7-.1-.3-.5-.3-.2-.8.3-.4-.1-.7.3.6-.8.1-.7.5-.7.1-.5h-.6l-.9.3-.8.5-.5.7-.3.6-.3.7-.1-.7.3-.6.4-.6.5-.6.5-.3.8-.2-.5-.3-.6-.2-.6.2-.8.5-.6.5-.5.6z"/></g><g class="cls-3"><path class="cls-2" d="M50.3 44.3l-.4.5-.2.7.4.4.5-.1.6.4.3-.4.2-.7-.3-.5-.5-.2zm-4.6-4.2l.3.4.3.5.6-.8.1-.7-.3-.1zm2.5-3.2l-.4.6-.2.8.8.2v.5l-.3.7-.6.6-.5.8.5.7.6.3.6.4.6.2.7-.4.4.6h.8l.6-.6.4-.6-.4-.6-.6-.2-.5-.4-.9.1-.6-.5-.2-.6.4-.3-.2-.4.2-.6-.6-.2-.1-.6zm4.5-4.9l-.1.7-.4.8-.6.5-.5.8-.1.8.9.4.8-.5.9-.7.7-.3.6-.7-.4-.4.7-.7.2-.5-.6-.5.1-.7.6-.9-.5-.2-.7.8-.9.5z"/></g><g class="cls-3"><path class="cls-2" d="M56.3 29.8l-.7 1v.9l.8.3h.9l.8.3 1.2.1-1.1.3h-1.1l-.7.3-.4-.6-1.1.9.3.5-.6.8-.3.8h-.6l-1.3.8.4.7-.9-.2-.5.7.1.4-.5.1-.8.3-.5.7.5.3.9.5.5-.1.4.3.6-.1-.2.6 1-.1.9-.6-.1-.9 1-.3.2-.6h.9l.9-.8.5-.9 1-.7 1.1-.2 1.1-.7.8-.7 1.2-.5 1.3-.7.4-.5.9-.5.8-.4.3-.5-.5-.4-.1-.6-.7-.5-.5-.6-.8-.2h-.7l-.6-.3-1.3-.2-1.1.6-1.1.2-.8.2-.3.5-.7-.3zm-5.1 1.8l.3.5.3-.9zm-2.9.3l-.2.4.3.5-.7.4-.1.5.3.5.4.2-.3.8.6-.1.5.1.5.2.5-.5.2-.5-.1-.9-.6.7-.7.7-.2-.3.3-.6.6-.7.1-.7-.5-.3v-.4l-.4-.3zm.5 3.9l.3.6.5.4.6-.2.2-.4-.8-.4zm-2.5-1.3l-.6.8.3.3.3-.6.3-.5zM45 36.3l-.3.8-.4.5-.1.8.7-.1-.4 1 .7.4.8-.7.4-.7.5-.6-.2-.7-.4-.3-.6.3-.5.7.1-.7.1-.6zm-1.7 2.3l.3.2.2-.7zm-1.9 3.5l-.1.5-.2.6.3.2v.8l-.2.8.7-.2h.7l.6-.8.4-.9-.3-.5.8-.6.3-.8-.6.1-.4-.3-.5.1-.4.4-.2.8-.4-.3zm3.6-9.8l.5.2v.3l.5.2.4-.2-.1-.6-.8-.2zm-1 .2l-.1.5h.3l.4-.5zm.3.6l-.4.6.3.3.7-.1.7-.7-.3-.1h-1zm-4.5 2.3l.1.3.4-.3.6-.5-.6.1zm-.2-1.8l-.3.7.3.2.3.3.7-.3.6-.4v.6l.9-.4.5-.6.6-.3.1-.6-.7.3-.3-.3-.6.1-.6.2-.8.4zm.2 2.6l.2.4.1.4.6-.2-.1.6-.6.1-.1.4.2.4h.4l.7-.2.5-.1.6.4.4.1.6-.6.6-.6-.2-.5-.1-.7.5-.8-.5.2-.6.4v.3l-.4.4-.2.6-.5-.4.3-.6.1-.5-.1-.7-.3-.3-.6.4-.8.6zM35.2 41l.1.6-.5.4v.5l.4.4.5.3.1.6-.6.1-.5-.3-.4-.2-.5.9.2.6.4.2-.4 1 .5.2.6.2h1.3l.7-.2v.6l.2.6.6.1.6-.2.2-.6.4.1.5-.6-.4-.5-.2-.7v-.7l.6-.7.3-.9.3-.6.8-.6.5-.4.1-.6-.5-.2-.8.6-.7.6-.2-.8h-.5l-.1-.5-.8.3.5-.9-.3-.2-.6.2h-.5l-.6.2-.3.4-.5.2z"/></g><g class="cls-3"><path class="cls-2" d="M34.1 39.2l-.1.8-.4.9.6-.1.4.2.8-.5.8-.8.7-.2.7-.2.8-.1v-.8l.2-.8-.5-.3-.1-.7-.7.1-.6-.1-.6 1-.7.6-.7.5zm-23.6 8.4l-.1.2-.1.1.1-.1zm-.1.6l.1.1V48zm.2.2l.1.1.2-.2-.2.2zm.7.9l.3-.1h.1l.1-.3z"/></g><g class="cls-3"><path class="cls-2" d="M11.7 49.2l.2.1h.1l.2-.3-.1-.2-.1.3zm7-10.9l-.3.3.1.2-.2.6h.2V39l.2-.4zm-2.5 4.6l-.2.3v.3h.2l.1-.2.1-.2-.1-.2zm-.7 6.1l-.2.7h.2l.3-.3.2.1.2-.4v-.2l.3-.1.1-.3-.4.1-.3.2zm2.6 8.7l-.3.6v.4l-.2.5-.1.6.1.6.1-.6v-.4l.2-.2.2-.6.3-.4-.2-.2zm-.4 4.6l-.1.7.1.4.1.4-.1.2.1.3v.4l.2.1-.1.2.1.5.1.3h.3v-.6l-.1-.6v-.5l.1-.6-.2-.4-.2-.4-.1-.4zM57.5 38l.2.6.5.1-.2.7.4.5h-.7l-.7.3.2.5.4.5-.6.2.2.6.6.6.7-.3.8.2.7.2.5.7.6.5-.3.5.1.7.1.9-.3.8.1.8-.2.7-.5.8v.7l-.5.7.1.5.6.1.5-.4v.9l.4.4v.8l-.7-.6-.6-.2-.5.8-.4.9.4.6.8-.1.7-.5-.1.9-.4 1-.8-.1-.6.5-.5.8-.3.8-.1.7-.2.7.4.8v.8l-.2.8.2.5-.1.5.2 1.1v.5l.2.7.1.8.4.8.7.2.5.3.2.6.7.5.4-.1.4-.6.2-.6.3-.6.4-.6-.1-.9.7-.4.5-.5.3-.7.2-.6-.1-1 .5.2.4-.5.7-.1.8.1.9-.4.6-.4.5-.4.5-.5.3-.6.6-.5.5-.4.8.2.7-.3.8-.2.7-.3.6-.3.6-.5.7-.4.5-.5-.7-.2-.7-.4-.7.3v-.4l.7-.3v-.8l.6-.2v.5l.1.7.4.3.7-.1.2-.8.1-.6-.4-.7-.4-.6-.5-.6.6.4.7.4.2-.5V51l-.5-.2.5-.3.3-.3h.7l.1-.6-.6-.3 1.2-.4.3-.6-.6-.1.5-.9.1-.9-.2-.9-.6-.2.1-.7.6-.4.8.4.3-.6-.2-1-.3-.7.4-.9-.1-.8.6-.5.3-.8.5-.9.7-.9.7-.7 1.2-1.1-.5-.8-1.2-.4-.8.7-.5-.3-.6.6-.8.4-.9.3.6-.9.8-.6.3-.3v-.6h-.8l-.1.6-.7.1.2-.8-1.6-.2.7-.3.9.1 1.3-.1 1-.5-.5-.7-.8-.4-.1-.6-.7-.8-1.4-.2-1.4-.4-1.4.4-1.7.3-1.2.7-.7.8-1-.3-.8 1-.7-1-2 .2-1.3.5-.1.7-.5.6-.6-.3-.8.4-1 .6-.9.8 1 .2-.2.7-1 1H60l-.9.3-.9.1zm16.6 24l.4.2.5-.2.4.3-.5.4-.8.4.8.1.3.6-.5.6 1 .1.6.4.7.2.8-.4.5-.1.6-.4.8-.3.6-.6v-.8l-.5-.4v-.8l-.5.1-.3-.4-.4.4-.5.2-.4-.2-.5.1-.3.3-.3-.4-.2.7-.6.2v-.8l-.4-.5-.4-.2v.4l-.4-.1-.1.5z"/></g><g class="cls-3"><path class="cls-2" d="M79.2 47l-.1.7.5-.1zm41.5 89.1v.6l.2.2v.9l.3.3.3.1.3.1.3-.1.3-.2.4-.2h.3l.2-.3.2-.3.1-.4.2-.2.1-.3v-.3l.1-.3.2-.3.1-.3.2-.3v-.3l.2-.3.1-.4.2-.3.2-.5.1-.3.1-.4v-.3l.2-.2.1-.3-.1-.5.3.2.2-.4v-.4l-.1-.5-.1-.3-.1-.4-.1-.3-.2-.3-.3.3-.1.4v.3l-.3.2-.4.1.1.3-.3.2v.3h-.2l-.4.4-.3.3-.3.2-.4.2-.4.2h-.3l-.2.6-.2.4v.4l.1.3v.3l.2.4-.1.3-.3.3-.1.3-.3.4zm34.1-26.7zm.7.7l.1.2.2.2v-.3l-.2-.3zm.7 1.3l.1.3.1.2.1-.2-.1-.4zm-10.6-2.2v.7l.2.5.1.2.3-.1.3-.2.2-.4.1-.3v-.5l-.2-.2-.2-.3-.2-.3-.2-.3-.4-.2.2.3-.2.4v.7zM160 94v.4l.1.3h.2l.2-.1.2-.3.1-.3v-.5l.1-.3v-.3l-.2.2-.3.1-.1.2-.2.3zm4.2-6.4v.4l.2.4.1.1.1.2v-.4l.1-.5v-.4l-.1-.5v-.8l-.2-.1-.1.4-.1.4v.8zm1.3-10.2l.2.4.2-.1-.1-.3.2.2.1.3-.1.3.1.3.1.4.2-.1.1-.4-.1-.4v-.9l-.2-.3-.1-.3-.2.2-.1-.2-.1.2-.1.4zm.9-.9l.1.4h.2v-.6l.1-.3.1.1v-.3l.1-.3-.2-.3-.1.1-.2.2v.3l-.1.1v.6z"/></g><g class="cls-3"><path class="cls-2" d="M165.7 76.1l.1.4.2-.3h.1l.1-.4.1-.2.1-.3.1-.2.2-.4h.1l.2-.2v.4l.1.4.2.3.1-.1v-1l-.1-.2-.1-.3.3.1.2-.2v-.6l.2.4-.1-.6.1-.2v-.3l.1.6.1-.4-.1-.3.1-.3-.2-.3-.1-.5-.1-.3-.1-.5-.2-.4v-.3l.1-.1-.1-.3-.1-.4-.1-.5-.2-.4-.2-.3-.2-.3-.1-.3h-.2l.1.3.1-.1.1.2-.1.2-.2-.2.1.6.1.3.1.3.2.4.1.4v.5l.1.5v1l-.1.3-.1.4-.1-.2v-.5l-.1.4.1.4v.7l.1.4v.2l-.2-.1-.1.3-.2.3-.2.2-.2.2v.8l-.1.4zm0-9.4l.1.2.1.2.2.5.1-.3v-.4h-.1l-.2-.1-.1-.2.1-.1.2.1v-.3l.1-.2.2.1h.3l-.1-.3-.1-.4v-.4l.2-.1v-.4l.1-.3-.1.2-.1-.2-.1-.1-.2-.5v.4l-.1.1h-.2l-.3-.1-.1-.1-.3-.3-.2-.2v.3l.2.4.2.4.1.3v.3l.2.3v.3l-.1.1h-.1l.1.3zm.8-2.7zm-7-8l.3.2-.1-.6h-.3zm2.1-10.4l-.1-.7-.2-.2v.3zm-.2 10.7l.4.5.2.6.2.4.3.3.2.3.2.5.3.4.2.5.2.4.1.4.2.2.2.4.1.4.3.6.1.4.3.5-.1-.5v-.3l.1-.1.2.2-.2-.4-.1-.1-.2-.3-.2-.1-.1-.2-.3-.5-.1-.5-.1-.3-.1-.3.2-.2.2.1-.2-.3-.3-.4-.3-.4-.3-.5-.3-.4-.3-.4-.2-.5-.3-.5-.3-.4-.3-.5-.2-.2-.1.2.3.3.1.3zm-11-28.2l.5.7.3.3-.2-.4zm-124.5.6l-.1.3.3.1.5-.6v-.4zm118.5 5.6l.5.1.4-.3-.4-.4-.8-.3-.1.3zm-1.1-.9l.5.4v-.3l-.3-.3zm-.8-3l.8.4.7.1.2-.3-.5-.6-.5.1-.4.3zm-1.1 2.2l.9.5.3-.1v-1h.4l-.2-.5-.3-.7-.4-.3h-.4l-.1.1-.7-.2.5.8-1-.2.1.6zM128.5 35l.1-.6.7-.4.2-.5-.7-.8-.8-.4-.8-.3v.5l.4.8.5 1zm-5.5-2.6l.9.6.8.1.8.6h.9l.7.1.3-.4-.7-.6-.5-.9-.7-.4-.7-.1-.7-.5-.3-.5-.7-.3-.6-.4-.1.9.4.8zm-7.6 18.7l.8.5.7.4.8.1h.8l.3-.4-.8-.3-.5-.6-.5-.7-.2-.8v-.7l.1-.8.1-.7.1-.8.2-.8.1-.8.4-.7.4-.7.6-.5.5-.6.4-.6-.4-.9-.6-.1-.5.6-.1.7-.6.5-.9.2-.5.8-.2.6-.1.5-.6.6.2.5v1.1l-.2.8.5.5-.4.5-.1.8.3.5-.3.5zm0 4.5l.5-.4.1-.5-.8-.3-.2.5zM111.2 36l.6-.2.3-.7h.9l.1-.4-.5-.9.6.1.3-.5-.7-.8-.3.7.1.5-.8.5.3.8-.8.1zm-1.4-1.3l1 .2.6-.5-.5-.3v-.8l-.6-.8-.3.8.4.8-.6.1zm.2 1.2l.6-.2-.6-.3zm-3.6 0l.6.3.5-.1.2.5.7.1.5-.3-.2-.5.1-.6-.4-.2-.6.6-.2-.4-.5-.2zM93.2 39l.1.8.4 1.3.7.9.9-.1-.6.6.3.8.6.9 1 .9v-1l.3-.9.2-1-.1-.8.5-.4.3.8.6.5-.3.9.9.3.9-1-.9-.6-.6-.6-.4-.7-1.2-.6-.3-1.1 1 .7 1.3.2.7-.6.4-.9-.2-.6-.9-.1-.8-.3-.7.6-.6-.7-.7.6.1.7-.7-.2-.3.8-.7-.3zm-9.5 33.8l.6-.5.2-.6-.6.4v.4zm11.2 2.5l.3.4h.4v-.4l-.3-.2zm.9-.4l.1.6.4.1.4-.2-.2-.2.3-.3-.2-.5-.4.3zm0 1l.2.3.4-.1.1-.2-.3-.1zm4.4-3.3l.2.5.3-.3-.1-.5.3-.3-.5.2zm2.3-1.2l.2.3.3-.3.3-.3-.5-.1zm.2-.7l.1.2.4-.2-.4-.2zM84.6 81.3l.4.1.4-.3.6.2.1-.5.4-.1.5.2.5-.2h1l.6-.2.3-.4-.5-.1.2-.5.5-.2.1-.5-.1-.4-.5-.1h-.2l-.2.2-.2-.1.2-.3-.1-.4-.2-.3-.1-.3-.2-.5-.4-.2-.2-.5-.1-.6-.2-.4-.5-.2h-.4l.3-.3.3-.3.2-.6.2-.3-.1-.4h-1.4l.2-.5.5-.3-.1-.4-.6.1h-.6l-.2.5-.2.4-.1.4-.4-.2-.2.2.3.3h.4l-.3.6v.4l.4-.2-.1.5-.4.4h.4v.4l.3-.5.3.4-.3.7.2.4.5-.2.5-.2-.2.5.3.3h.3l-.3.5v.5l-.3.1-.7-.1.1.2-.2.4h.4v.6l-.3.2-.5.2.2.3.4-.1.3.1.4.3.5-.3-.3.5h-.7l-.3.4-.3.4z"/></g><g class="cls-3"><path class="cls-2" d="M81.5 79l.1.4.3.3.6-.1.5-.1.6-.4.6-.1.1-.4.1-.5v-.5l-.1-.5.5-.4-.2-.5-.2-.4-.4-.2-.5-.1-.5.2-.3.5.3.2-.2.3h-.9l-.1.3.3.2-.3.3.3.4h.3l-.3.5-.2.6zm13.2 10l-.1.4.1.3.4.4.1-.5.1-.3-.1-.3v-.5l-.1.3zm-.3 1.5v.3l.2.5v.4l-.1.5.3.3.3-.3h.3l.1-.4v-1.2l-.4-.4-.3.3-.2.1zm3.1 2.7l.3.4h.2l.5.3.3.1.3.3h.5l.1-.3-.2-.3.2-.5.2-.4-.5.2-.5.1h-.4l-.4-.1h-.3zm6.3-.2l.4.3v.4l.1.2h.3l.2.3.2-.4.4.3-.3-.5-.1-.4.4.1-.3-.5-.4-.2-.4-.1-.3.2zm1.9 2.2h.7l.3.2.5-.1.4-.1.1-.2-.4.2v-.3l-.4.1-.3-.1-.3.1-.1-.1-.4-.1zm6.3-.5l.1.3h.5l.3-.1.1-.2.3-.1-.1-.2.4-.4-.5.2-.3.1-.3.1-.1.2zm-21.9-2.8l.3.1.3.2.3-.4-.4-.2zm18.6 2.1v.3l.3-.2.1-.4zm-1.5-2.6l.2-.1v.2zm.1.6zm52.9 38.5h.2v.2h.2l.2-.2.2-.1.2-.2.2-.2.2-.4.2-.1.2-.3.1-.2.3-.3.2-.1.2-.2.3-.1.2-.2.1-.1.3-.3.1-.5.3-.3.2-.2.3-.4.1-.3.2-.1.3-.2.1-.2.3-.3.2-.3.2-.2.2-.2.2-.1.1-.2h.1l.1.1.1-.2h.2l.1-.1v.1l-.1.3h.1v.4l-.1.2v.3l-.1.2.2-.4.2-.4.2-.3.2-.3.2-.5.2-.3-.2.5-.2.4-.1.4-.2.3-.1.2-.1.2.1-.2.1-.1.2-.3.2-.4v.2l-.1.2-.1.3-.2.3.2-.3.1.1-.1.2v.3l-.1.2-.1.2v.3l.1-.1-.1.2.2-.2.1-.1v-.1l.1.1.2-.4.2-.3.2-.4-.1.4.2-.3-.2.3v.1l.3-.5.2-.3.2-.4.1-.2.1-.3.2-.1.1-.4.2-.3.1-.4.2-.4.1-.4.3-.5.1-.3.2-.5.2-.4.1-.4.2-.4.1-.3.2-.4.1-.4.2-.4.1-.4.1-.3.2-.5.1-.4.1-.4.1-.3.1-.3.1-.3.1-.4.1-.4.1-.3v-.6l.1-.2v-.2h-.1v-.4l.1-.4v-.1l-.1.3v-.9l.1-.3h-.1v-.1l-.1-.2-.1.1h-.1l.1-.3v-.5l.1-.3-.1-.2v-.2l.1-.4v-.3l.1-.3-.1-.2-.1-.1-.1.3v-2.1h-.1l-.1.4v.4l-.1.3-.1.4v.2l-.1.5-.1.3v.7l-.1.4-.1.4-.1.4-.1.4-.1.3-.1.4-.2.2-.1-.2v-.2l-.1.1h-.1l-.1-.1-.1-.1-.2.2v-.3h-.1l-.1-.1.1-.4.1-.3v-.3l.1-.3.2-.2v-.4l.1-.4h-.1l-.1.4-.1-.2-.1.3-.2.1h-.2l-.1.1-.2-.1-.2.1.1.2-.1.4-.2.2-.2.2-.2.5-.2.3v.3l-.1.2-.1.4-.2.4.1.1-.1.3-.1-.1-.1.1-.3.4.1-.3-.1-.1-.1-.2-.2.1-.1.3-.2.2-.1.3-.2.2-.1.3-.2.4-.1.4-.1.3h-.2l-.1.4.1.2-.2.4-.1-.2v-.3l-.2.5-.2.4v.4l-.2.4-.2.5-.1.3-.2.3-.3.2-.2.3-.2.2-.3.3-.1.2-.3.3-.2.2-.2.1-.2.3-.2.3-.2.3-.2.3-.2.3-.2.3v-.3l-.2.4-.1.4v.2l-.1.3-.2.4v.3l-.1.4.1.2v.2l-.1.4-.1-.1v.3l-.2-.1v.3l.1.1v.4l-.1.3.1.2.1.3-.1.3-.1.3v1.1l-.1.4-.2.4v.2l-.2.3-.2.2z"/></g><g class="cls-3"><path class="cls-2" d="M169 110.6l.2-.2.3-.4-.1-.1-.2.2h-.1zm-2 15.3v.1l.1-.2.2-.3h-.1l-.1.2zm.5 1.2l-.2.4-.1.4-.1.2-.1.3-.1.3-.1.2.1-.1.2-.4.2-.4v.1l.2-.4.2-.4.1-.2.2-.3.1-.4v-.1l-.2.3-.2.3-.1.2zm-13.1-19.6l.1.3.1.3.2.2.3.2h.2l.1.2.2.2.2.3.2.1.3.1v.2l.1.3.1.5h.3v.2l.3.2v.2l.2.4v.2l.2.3.2.3.2.1.1.2.2.2.3.2.3.1.1.2h.2l.1-.1.2-.2.2.1v-.4l.1-.4v-.8l.1-.4-.1-.2-.1-.1-.3.1-.1-.3-.1-.1-.1-.4-.2.1-.2-.1.1-.4.1-.3-.3-.2-.2.1.1-.3h-.2l-.2-.2h-.3l-.2-.2-.3.2-.2-.3-.2-.3-.2-.1h-.3l-.2-.2-.2-.2-.1-.2-.2-.2-.4.2-.3.1-.2-.1zm5 6.2h.5v.2l.2-.1.3-.1.2.1.2-.1.2-.2.3-.1.2-.1.1.1.3-.1.2-.1.2-.1h.2l.3-.3h.3l.2-.1v-.3l.1-.4-.3.1-.2.2-.2.1v-.3l-.2-.1-.2.1h-.4l-.2.4-.2.1-.2.1-.2.1-.2.1-.1-.2h-.6l-.2.2-.3.1-.1.4z"/></g><g class="cls-3"><path class="cls-1" d="M163.3 112.4h.2l.1.2.3-.5h-.2zm.7.1l.2-.1.2-.1.2-.2.2-.2.2-.2.2-.2.2-.2h.2l.2-.2h.1l.2-.2.2-.1.2-.3.2-.2.3-.4-.3.2-.2.4h-.1l-.3.2h-.3l-.2.3-.2.3-.2-.1-.2.2h-.3l.1.3h-.2l-.2.2h-.2l-.2.2zm3.2-2.7l.3-.3h-.2zm.6-.8l.2-.1.1-.4-.2.3zm-2.7 3l.1.2.2-.1h.1l.1.1.2-.3-.1-.2h-.2l-.2.1zm1.7-.6l.2-.2.2-.2.2-.5.2-.4.1-.3.2-.2.2-.3.1-.4-.1.2-.2.2-.2.2-.2.3-.1.3-.2.3-.2.2-.1.3zm2.8-3.9l.1-.4v-.3l-.1.3zm.9-1.6l.2-.4v-.8l-.1.4v.4zm-11.1 4.5h.3l.1.1-.1.3h.4v-.3h-.1l-.1-.3-.1-.3-.3.2zm1.1.2h.2l.1-.4h-.2zm2.3 1.4l.2-.1s.2-.2-.2.1zm-1.7-4.6l.1.4.1.2v.3l.2.1.1.3v.3l.1.4v.4l.3-.1.2-.2.2-.2v.5l.2-.2.2-.1.2-.3h.3l.2-.2.1.2v.3l.2-.3.2-.3.2-.3.1-.4.2-.6-.2-.2.2-.5.2-.3.1-.4v-.4l.1-.4.1-.3.2-.1.2-.3-.1-.1-.2-.1-.2-.2.1-.3-.1-.2-.1-.3.1-.4v-.4l.3-.3-.2-.2.2-.3.2-.3h-.2l-.2-.1h-.2v-.4h-.2l-.1-.1-.2.3-.1.4-.1.3-.2.6v.3l-.3.2-.2.3-.2.5-.2.4-.1.4-.2.3-.2.2-.3.2v.5l-.1.5-.2.1-.3.1-.2-.1-.2.4zm4.2 0v.5l.3-.2v.8l-.1.4v.3l.1-.1.3-.2-.1-.3.1-.4v-1l.1-.4.2-.1v.2l-.1.4.1.2.2.1-.1.4h.2l.1-.3v.5l.1.2.2-.4v-.4l-.1-.2-.1-.3-.2-.1.2-.3-.1-.2-.1-.2-.1-.2.2-.4.1-.3.2-.4.2-.2-.1-.2-.2.3-.2.3-.2.1-.2.4-.1.2-.1-.3h-.2v-.4l.1-.5.2-.1h.1l.1-.2.2-.2.2-.1.2-.2h.2l.2-.2.2-.3.2-.5v-.4l-.1.2-.2.4-.1.3-.2.1-.2.2h-.2l-.2.1-.2.1h-.2v.5l-.3.2v.3l-.1.3v.4l-.1.3-.1.3v.9zm3.2-5.1l.1.2v.6l.1.2.2.1-.2-.3v-.6l.2-.2-.1-.1.1-.3v-.4l-.1.4-.2-.3.1-.3-.1.3-.1.3zm-.5 3.4l.1.2h.2l.1-.3-.1-.2-.1.1zm.6-.6h.2l.2-.2h.2l.2-.2h.2v-.3l-.1-.1-.2.1h-.1l-.2.2-.2.2zm-1.1 0zm1-.9l.3-.2-.2-.1zm1-1.9h.1l.2-.2-.2-.1zm1.5-1.2l.2.3.1-.2-.1-.2z"/></g><g class="cls-3"><path class="cls-2" d="M169.7 102.9h.1l.2-.1v.3l.1.1.2-.1.1-.3.2-.3-.1.4-.1.2-.2.3-.1.1-.1.2h.1l.1.1v.2l.1.3.1-.2.1-.4.1.1h.3l.2-.1h.3l.2-.1.1.1.1.1v.7l.1.3-.2.2-.1.3-.1.6.2-.2.1-.4.2-.1.2-.3v.2l.1.1.1.1.1-.1.1-.1.2-.1.1-.3.1-.3v-.2l.1-.2v-.3l.2-.4.1-.1h.2v-.1l.1.3v.2l.1.1.1.1v.2l.1-.1.1-.1.1-.1.1-.1v.1l.1-.2.1-.3-.1.1h-.1l.1-.3-.1.1h-.1l.1-.3-.1.3-.1-.3v-.4h-.1l-.1-.2v-.2l.1-.2.1-.2.1-.3-.2-.2-.1.3-.1-.1-.1.1v-.6h-.1l-.2-.1h-.1l-.1-.1-.1.1h-.2l-.2.1h-.2l-.1.1-.2.1h-.1l-.2-.1h-.1l-.2.4-.1.4-.1.2-.1.4-.1.3-.1.4-.1.1-.1-.1-.1-.3h-.1l-.1-.3.1-.4-.1-.4-.2.2-.1-.1-.2.2-.1.3-.2.3zm-4.8-9.5l.1.4.1.3.1.3.2.1v-.2l.1.1v.6h.2l.2-.4h.2l.2.3-.1-.3v-.2h.2l.2.4h.1l.1-.2-.1-.2-.1-.1.1-.2h-.5l-.1.3h-.2l-.1-.3-.2-.4v-.4l.2-.5v-.4l.1-.4-.2-.1-.1-.4V91l-.1.3-.2.1-.1-.1-.2.1v.8l.1.3v.5l.1.4zm-.4 6.4l.3-.4v-.3l.2-.4v-.4l.2-.2.1-.4-.1-.5-.1.6-.1.5-.1.3-.2.4-.1.4zm.9-4.5l.2.2.1.4.1.1.1-.3v-.4l-.2-.1h-.1zm1.6-.4v.3l.3.1-.1.3-.1.1v.4h.1l.1.4.1-.2-.1-.2v-.4l.2-.1-.1-.4v-.4l-.1-.2-.2.2zm-.8 2.1l.2-.2h.1l.1.3-.2.3.1.3.2.1.1-.3-.1-.3h.1l.1-.3.1.2.2-.2v-.3l-.2.1v-.3l-.1-.4v.4l-.1.3v-.4l-.2.1v-.5l-.2.2-.1-.1-.2.1.1.2v.7zm.2 2.4v.2l.1-.3.1-.4.1-.1v.2l.1-.1.2-.3h.1l.1.1-.1.3.1.4.1.1.2.1.1-.1.1.1.1-.4-.1-.2-.1-.2.1-.2.1-.3.1.2.1.4v-.5l.1-.3-.1-.3-.1-.4V97l-.2-.3-.2-.1.1.5-.1.2h-.1l-.1.4-.1.2-.1.3-.1-.2-.1-.1-.2.2v.4l-.2.2-.1.3zm7.9 1.2v.2l.1-.1v.1l.1-.1.1-.1.1-.2.1-.3.1-.5.1-.1v-.4l.1-.4v-.3l-.2.3.1.5-.1.1-.1.5-.1.1-.1.2-.1.2-.1.2zm-.3-1.9z"/></g><g class="cls-3"><path class="cls-2" d="M174.9 97.8l.1.1.1.1h.1v.1l-.1-.1-.1-.1zm.6.8v.6l.1.1v-.5l-.1-.3zm.3 1zm0-.6l-.1-.1zm.3 0l-.1-.1zm.2.4l-.1-.2zm-.3.4v.3l.1-.1v-.1l.1-.3h-.1zm.2.1v.2l.1-.2v-.2zm.2 1.5v.6l.1-.3v-.3c-.1 0-.1.3-.1 0zm-.1.6zm-.8 4.1l-.1.3v.5l.1-.2v-.6zM0 98.4v.5l.1.3-.1-.3v-.5zm2.2-21.2zm.1 0v.2l.1-.2-.1-.1zm.1.8v.4l.1-.4zm.1.6zm.1.3v.2l-.1.2h.1v-.4zm0 .8l-.1.2v.1l-.1.4v.4l.1-.1v-.1l.1.1v-1zm111 18.2l-.6.2-.4.1-.2-.2-.2.3-.3-.1.1-.3h-.5l-.4.1-.4.3-.4.2-.3.1-.5-.1h-.4l-.4-.1-.3-.1h-.4l-.4-.1-.4.1-.3-.3h-.4l-.4-.1h-.4l-.2-.4-.4-.1h-.5l-.4.1-.4.2-.4.4-.2.3.1.2.1.4-.1.4-.2.2-.3.2-.4-.1-.4-.2-.5-.3-.6-.1-.5-.1-.3-.1-.2-.2v-.5l-.5-.1-.4-.2-.4-.1h-1.1l-.3-.1-.5-.2-.1-.4-.3.1-.3-.1-.1-.4.2-.2.3-.3.2-.4-.1-.4-.2-.1-.2-.6.3-.1.2-.4-.5.2-.2-.4h-.8l-.3.3-.3.1-.6-.2-.3.2-.5-.1-.3.2-.4.1-.3-.2-.4-.1h-.4l-.3.1h-.4l-.3.2-.5.1h-.6l-.4.3-.3.3h-.4l-.3.1-.2.3-.6.2-.3.1-.4-.2-.3.1h-.8l-.5-.3-.2-.3-.4.1-.2.4-.1.4-.2.4-.2.3-.4.3-.5.2-.3.1-.3.4-.3.3v.3l-.2.4-.3.1v.8l.2.3-.2.5-.3.3-.3.4-.4.1-.3.4-.5.2h-.5l-.3.4-.1.4-.2.3-.4.1-.2.2-.1.4-.2.4-.2.4-.3.4-.3.3-.2.3-.2.5-.2.4-.2.2-.1.4-.1.3.3.3.3.4v.4l-.3.2.3.4.1.4v.4l-.1.4-.1.4-.1.4-.1.5-.2.3-.2.3-.3.1.3.3.2.4v.4l-.1.4v.4l.4.2.3.2h.3l.1.5.3.1.2.4.2.3.3.2.3.3.3.3.1.4v.3l.2.3.3.4.4.2.4.2.3.3.5.3.4.4.4.2.3.3.5.3.4.1.3.1.4-.3h.5l.3-.2.4-.1h.5l.3-.1h.4l.6.1.4.1.4.2.3-.2.4-.1.3-.1.4-.1.4-.3h.6l.1-.2.5-.2h.8l.4-.1h.5l.4.1.4.3.1.5.2.5.4.2h.4l.4-.1h.8l.3-.1h.4v.4h.3l.2.3.3.3-.1.4-.1.4-.1.3-.2.3.2.1-.2.3v.7l-.4.3.2.3.1.4.3.3.2.3.4.2.3.3.2.2.3.2.2.3.3.3.1.2v.3l.2.2v.3l.2.2.2.3v.4l.3.3.1.3-.4.4.2.1.1.4.2.2.2.3.1.4-.1.4-.2.3-.2.3-.3.1-.3.3-.1.4-.1.4-.1.4-.1.3-.2.4v.3l-.1.3v.3l.1.3.2.5.2.1.2.3.2.3.2.4.1.4.3.2.1.3.3.3.1.2-.1.3.1.4v.6l.2.4v.6l.2.3.1.4v.3l.3.3.1.2.4.2.2.3.1.4.2.3.1.3.2.3.2.2.2.4.1.4-.2.2h-.2l.3.4.1.2v.3l.2-.1.3.2.3.2.4-.1.3-.1.4-.2h.5l.3-.1.4-.2.4.1.3-.2.4.1h.4l.2-.1.5-.1.2-.2h.5l.3-.1.3-.3.5-.2.3-.2.2-.3.4-.3.2-.2.3-.3.4-.3.2-.3.2-.3.3-.3.2-.3.3-.3.4-.2.1-.4.2-.4.1-.3.1-.3v-.2l-.3-.1.3-.4.4-.2.2-.1.5-.3.4-.1.3-.2.2-.4v-.6l.1-.4-.1-.2-.2-.5v-.4l-.3-.2.1-.3.4-.3.2-.2.2-.3.4-.1.3-.4.2-.3.3-.3.4-.2.3-.2.5-.1.2-.3.4-.3.3-.2.2-.4.2-.3.1-.3-.1-.4v-.4l-.1-.3.1-.5v-.2l-.1.3.2-1v-.4l-.3-.2-.2-.1-.1-.3-.2-.4v-.8l.2-.4-.3-.3-.3-.3.1-.4.1-.4.2-.3.2-.3.3-.5.2-.4v-.4h.3l.3-.4.3-.2.2-.4.2-.3.3-.4.3-.4.2-.3.3-.3.3-.2.3-.3.3-.3.4-.2.3-.3.3-.3.2-.3.3-.4.2-.3.3-.3.2-.4.2-.3.2-.3.3-.3.1-.5.1-.3.2-.4.2-.3.1-.4.1-.3.2-.3.2-.5v-.4l.1-.3.1-.5v-.6h-.4l-.3.4-.4.2-.4.2h-.3l-.4.2-.4.1-.4.3-.4.1h-.4l-.3.3-.4.2h-.4l-.2-.2-.2-.3-.3-.2-.2-.1.3-.3-.1-.3-.3-.3-.3-.3-.3-.3-.4-.2-.3-.3-.3-.1-.5-.1-.2-.4h-.2l-.2-.3-.1-.4-.1-.4-.2-.4-.2-.3-.4-.2-.3-.2-.3-.4v-.3l-.1-.5v-.7l-.3-.3v-.4l-.2-.1-.4-.2-.2-.2-.2-.3-.1-.3v-.3l-.2-.3-.2-.4-.2-.3-.3-.3-.1-.4-.3-.4-.1-.3-.1-.3-.2-.3-.2-.3-.3-.3-.2-.3v-.4l-.3-.3.2-.2.2.4.2.4.2.3.1.2.3.3.3.2.1-.1v-.4l.2-.5.2-.5z"/></g><g class="cls-3"><path class="cls-2" d="M128.1 56.4l-.8-.4.5-.6.1-.6v-.6l-.2-.6-.1-.6-.7-.5-1.4-3-.7-.5-.2-1.4-.2-.5-.8-.2-.1-.4-.5-.5-.3.4.1 1.5.3.7.1.7-.3.7.2.6.5.6v.6l.2.5.6.1.5.7.5.2.1.8-.6-.2-.5-.4-.6-.1-.6-.3-.5.1-.7-.4h-.7l-.9-.3-.8-.5v.6l.4.3.6.2.8.9-.1.4-.3.2.2.5h-.4l-.3-.9-.4.4-.3.6h-.6l-.4.2-.1.5-.5-.4-.3-.7-.7.9-.5.4-.3.4-.9.8.3.8-.4.4-.5.1-.4-.4-.6-.1.2-.7.5-.2-.3-.6-.5-.3-.6.1-.7-.1.7.5.2.9v.7l.4.2.2.7-.2.5-.5-.2h-.5l-.3.5-.5.4-.3.6.8 1.1h-.7l-1.1-.4-.5-.1-.1.5.5.5h.4l.2.6-.7.1-.7-.5-.7-.2-.4-1.9-1.2-.8-.5-.7.6.4.7.2.6.2 1.2.1.6.2.7-.2.5-.5.2-.5-.1-.7-.4-.6-2.5-1.5-.7-.2-.8-.2h-.8l-.1-.5-.6-.2-.4.3-.7-.1-.8-.4.7.1.6-.6-1.3-.6-.8-.2-.3.9-.2-.6-.5.6-.1-1-.4.3-.2.6-.6-.4-.5.5-.3.6-.7.4h-.7l-.4.8-.5.3v.5l.4.1-.5.5-.1-.5-.3.4v-.7l-.4.5-.5.4.4.3-.7.3-.4.6.6-.5 1.2-.3-.6.8-.2.6-.4.6-.8 2.5-.5.5-.3.8-.7 1.2-.3-.4-.5 1-.7.2-.3.5-.9.9.2.4-.2.5.2 1 .3.5-.2.4.1.4.5-.1-.3.5-.1.5.3.3.6.3h.5l.5-.3.8-.9h.3l.2-.4.3.2.2.8.8 1.8.4.5-.1.4.2.5v.4l.9-.1-.1-.4.3-.5h.8l.2-.7.2-2.2.9-.8-.3-.2.4-.3.1-.3-.2-.5-.9-.7-.1-.6v-1.2l.5-1.1.8-.8.5-.4.1-.4.4-.5-.5-.3.3-.5-.1-.3.3-.3.2-.5.4.1h.4l.4-.2.5.4.1.7-.3.3-.3.7-1.2 1.9-.2.7.1.6.3.6-.1.7.1.4.8.6.6.1.6-.1 1.6-.8.7-.1.5.5.4-.2.4.5-.7-.1-.7.8-.6.1-.6-.2-1.1.3-.4.4.1.5.2.5h.4l.1 1.2-.3.3h-.3l-.3-.4-.4-.3-.4.2-.4 1 .2 1.2-.1.6-.5.4-.1.4-.3.3h-.4l-.3-.6-1.1.4-.4.4-.5.1-.6.3-.7-.2.3-.2-.3-.4-.2.3-.5.1-.6.5h-.4l.1-.3-.6-.3v-.3l-.4-.3.4-1.1.5-.2-.1-.4h-.3l.1-1.3-.5.1-.2.4-.5.1-.3.3-.1.4.1 1.1.4.3v.5l.2.4-.2.2.3.3-.3.3v.4l-.4-.2h-.4l-.3.3h-.6l-.4.2.1.5h.2v.3l-.2.3-.3-.2v-.5l-.3.1-.2.8-.5.7-1.3.7-.1.8-1 .4-.1.5-.4-.1-.3.1-.2-.5h-.4l.2.6.1.6-.8.1-.3-.4-1.2.3.1.6.3.1h.3l.4.3.5.1.4.5-.1.3.2.2.3.3.2.4-.2 1.6-.1.6-.2.2-.3.1-1-.2-.6.2-1-.3-1.1.1-.5-.3-.2.4-.5.1-.1.2.2.6v.4l.1.8-.3 1.4-.2.3-.1.5.2.3h.3l-.1.9-.1.4h.8l.3-.1h.3l.3.2.4.7.4.2.3-.4.4-.1.4-.1h1.3l.6-.8h.4l.1-.4.3-.3.4-.3-.4-.3V92l.9-1.4.8-.4.8-.5-.1-1.1.7-.5.9.3.4.2.4-.1.3-.3.8-.5.2-.3.3-.2 1 .3.1.5.2.4.4.4v.3h.4l.7.8.3.2h.5l.6.5.3.1.2.4.5.1.3 1.1-.1.2-.1.6h.2l.4-.5-.1-.3.4-.2v-.4l-.4-.2.1-.5.2-.3.6.2.1.3h.2l.2-.3-.4-.4-1.6-.7.2-.4-.6.1-.8-.5-.2-.2-.1-.4-.2-.4-.6-.5-.4-.3v-.3l.1-.4-.2-.2V86h.3l.4-.3.3.1-.1.2.1.3.2.3.2-.2v-.3l.5.3.1.4.2.2v.4l.5.2.1.2.5.1 1 .7 1.1.8v1.4l.3.2.7 1.1.4.4h.5l.6-.1.2.3h.4l.4.3v-.5l.4.1-.3-.1-.1-.3-.6-.4-.1-.3-.5-.6v-.6l.4.4.3-.1.1-.2-.2-.2.4-.1.2-.2h1l.3.3.3-.2-.2.4v.2l.8-.9 1-.2.4.3-.3.1.1.2-1.7.2-.3.3-.1.6.6-.1-.1.2.1.5.1.3h-.1l-.3-.2v.3l.7.3-.1.3.3.2-.2.3h.7l-.1.2h.5l.5.3.3.1.6-.3v-.4h.5l.5.2.2.3.4.1.3-.2h.3l.5-.7.5.2.3-.1.3-.3.1.2-.2.3.1.3-.1.3.2 1.1-.2.4-.4 1.9-.4.7.8 1.4v.4l-.2.9.4-.1 1.5 2 .4.8.7.4.5.7.1.4-.1.3.2.8.4.4.5.1.3.3.8 1.4.3.1.2.4.3.6v.7l.3.9.2.2-.1.3.3.4h.3l.7-.3.3-.1.2-.3.7-.1.3-.1.5-.5.4-.1.3-.2.2-.4.4-.2 1.8-1-.1-.2.1-.3.4-.3.6-.5.4-.1h.3l.2-.2.1-.5.6-.3.2-.1.1-.5.2-.2.5-.3-.1-.3v-.4l.2-.4.2-.1.3-.6.2-.3.3-.8-.3-.2-.5-.5-.7-.1-.4-.1-.6-.5-.1-1.1h-.2v.3l-1 1.2-.1.4-.3.1-.7.1-.3.3h-.4l-.1-.2h-.3l.2-.4v-.4l-.1-.4-.2-.3-.1.1-.1.4-.2.4-.4-.5.1-.3-.2-.4-.9-.8-.6-1.1-.3-.1.4-.2.3-.8"/></g><g class="cls-3"><path class="cls-2" d="M124.1 96.9l.5.3.2-.2.3.3.6.8.4.7h.5l.6.5h.3l.3.2.3-.1.3.1 1-.7.3-.1.3.2.2.8 1.6-.1 1.4-.1 1.1-.4.2-.2.6.1.9-.5h.3l.4.4.3.6.6.2.2.2.4.2.3-.1.4-.2-.1.4-.3.2-.3.1.2.4.2.2.3.2.4.1.3-.1.3-.2.2-.3.1-.9.2.1v.4l.2.6v.8l.3.6-.1.2.5 1.7.3.6.5.6.5 1.5.6.7.5 1.5.4.4h.3l.2-.2.1-.5.5-.4-.1-.4.2-.4.3-.1-.1-1.1.2-.8.1-.4-.3-1.3.1-.7h.4l.1-.4.4-.3.2-.2v-.4l1.1-1.6.5-1.1.4-.4.3-.7-.1-.3.1-.3.4-.4.1-.3.1.4 1.1-.7.5-1 .2.3.4.8.6.7.2-.1.2.3-.1.2.2.3.2-.1.3 1.2v.9l.2.1.4-.2.6-.9.1-.3.1.1.3.2.3 1.1.5 1.5v.5l.1.3v.3l-.1.3.1.8-.1.5.1.6.1-.2.8.8.2.4v.7l.2.2-.1.3.4.5.1.3.4.3.6.2.4-.2-.1-.3-.4-.5v-1.4l-.2-.3-.6-.4-.2-.2h-.3l-.2-.1-.2-.7-.1-.1-.1-.5-.3.2-.1-.8.3-1.5-.1-.9.2-.3h.3v.5l.5-.2.2.2.2.1.4.6.2.2.3-.2.1.2h.3l-.1.8.1.2.4-.7.2-.1.2-.4-.1-.5.3-.1.7-1.2.1-.3-.1-1.5-.4-1.1-.4-.4-.5-.3-.4-.4-.1-.3-.2-.1-.2-.4.1-.8.4-1.1.5-.9.2-.1.3.1.1-.1v.3l.2.5.2-.1.1-.2-.2-.2v-.3l1-1.3v-.4l.2.1v-.4l.3.2.1-.4.6-.5.1-.4.5-1.3v-.3l.2-.1.1-1.4-.1-.6h.1l.2-1.5.1-.1v-.2l-.1-.2V83l.1-.1-.1-.7h-.4l-.2.2h-.1l.2-.3.1-.4.1-.2-.1-.3-.3-.2.2-.1-.1-.3-.4-.2-.6-1.3-.6-.1v-.8l.2-.7v-.4l.3-.7.2.1-.1-.5-.5.2-.2-.1-.2.3v.5l-.2.1-.2-.1-.2-.3-.5-.2-.2-.2v-.7l.2.1.2-.3v-.6l.2-.6.1-.9.2-.1.3.3-.1 1 .3.2-.1.5.2-.5.1-.4.2-.6.2-.2h.6l.1 1.4.4.1.2-.2.2.1.2.3-.2.3.6.8-.1.4.4.8.1-.4.3-.6.2-.4-.1-.8-.5-1.1-.7-.8-.4-.2-.1-.4-.1-.1.2-.5.2-1-.3-.7v-.5l.1-.3v-.4l.1-.1-.1-.7.2-.2.1.3h.3l.1-.3.2-.8-.2-1v-1.7l-.3-1.6-.3-1.7-.3-1-.7-1.4-.4-1.4-.2-.1-.4-.9-.5-.2-.2-.2h-.2l-.2.2.1.6-.1.4-.1-.4-.2-.4-.1.2.1.5-.4-.8-.2.3h-.2l-.2-.2v-.5l-.1-1.7-.8-4.1.1-.4.4-.4h.2l-.1-.4h.3v-.3l.2-.1-.2-.5V48l.4-.1v-.2l.2.2.1.4.2.2.1-.2v-.7h.2l.1-.4-.3-.2-.1.1-.5-1.1-.7-1.7.1-.8h.2l-.1-.4.4.8.6.6-.6-1.6v-.2l-.6-1v-.4l.1.1.2.4 1 1.6.2.8.9 2.1.4 1.2v.6l.2.3.2.5v.3l.9 1.7 2.6 3.7-.2-1-.6-1.3-.1-.4.1-.2-.5-.9-.1-.4V50l.1-.1-.1-.3-.7-.7-.2-.5v-.3l.2.1-.1-.2-.3-.5h-.2l-.5-1h-.2l.1.2-.3-.3-.5-1.1-.6-.9V44h.2l-.3-.8.4.5-.4-1.3.1-.2.5.3-.4-.6-1.4-3.7v-.3l.3.1-.4-.6-1.4-1.3v.2l-.4-.4.1-.2-.4-.7-4-4.2h-.4l-.5.1v.4l-.4.7 1.1.9.3.5v.2l-.4-.3-.2.1-.4-.4.1-.2-.3-.3-.2.1.5.9-.2.1-.3.3v.5l-.2.4h-.3l-.5-.6-.5-.4-.4-.1-.5.4.1.5-.2.2v.4l-.4-.4-.4-.1-.1.2-.4-.2-.6-.6-.4.1-.3.4h-.5l-1.1.6.5.3-.3.3.2.4 1.1.8-.4.2-.3.5h-.4v.3l.1.4h-.3l-.7-.4.8 1.2.2.6h-.4l-.7-.4-.7-.5-.3-.7-.5-.7-.9-.4-1.4.1-.4.4.3.5.6.3-.3.4-.6.3h-.6l-.4-.6-.4.3h-.6l-.2.3-.1.4-.9-.7-.3-.5-.4.1v.3l.7.1.5.6-.3.2-.9-.2.1.5.5.2-.4 1-.4.2-.2-.8.2-.4-.3-3.1-.6-.8-.6-.5-.8-.4h-.5l-.6.1-.4.2.3.5-.4.2-.4-1-.5.2-.5.2v-.8l-1-.2.1 1.6.7.8-.7.3.6.5-.7.7-.3-.6-.4.7-.5.3v.6l-.8 1.2v1.4l.3.5.6.6-.6.3-.4.5-1.2.7.7.8.4.8.7.1.6.5-.4.4-.7-.5-.7-.2-.4.2-.5-.3-.1.5.8.3-.1.3-.5-.2-.2.3.5.6.8.1.4.3h-1.6l-.4-.8-.1-.6-.5-.8-.7-.3v.3l.5.2.3.5.1.6-.3.4.1.8.6.4.5.5.1.7.2.7.5.8.8-.1-.2.5.2.7.6.7-.2.7v.7l-.5 1M23.7 30.7l-1.1 1.1-2 2-.9 1h.1l.5-.4.3-.5.3-.1-.4.4-.4.5-.1.3h.2l-.1.4-.4.5-.2.5-.3.6-.1.4.4-.4.3-.2.5-.5v.3l.3-.2.3-.1.4-.7.4-.7.1-.5-.1-.3.4-.6.3-.5.4-.6.2-.6.3-.5zm64.8 140.1l.7-.2.7-.1.5-.3.6-.1h1l.5-.2h2.3l.7-.1h2.4l.7-.1h1.7l.7.1 1-.2.4-.2.9-.1.8-.2.9-.2.8-.2.4-.1.8-.1.1-.3.2-.2.5-.1.2.1.4.2.5.1.6-.1v.3l.5-.3.4-.2.1-.2.2-.2.8-.3.5-.3.9-.3.6-.2.8-.1.6-.2h.6l.3-.2.4-.1.1.2.5-.2.1-.4.3-.4.7-.2.5-.3.8-.2.8-.1.2.1h.6l-.2.1-.4.2h1.1v.1l.8-.3.4.1.4-.1.6-.2.6-.1.6-.1.6-.1.4-.1.5-.3-.2.4-.1.2v.2l-.5.3-.2.2-.3.3.1.2.5-.2-.1-.1.8-.4.7-.3.4-.1h.3l.5-.4.7-.3.4-.2.6-.4.4-.3.8-.4.7-.3.7-.5.6-.3.7-.4.7-.3.7-.3.3-.1.4-.2.6-.3.6-.3.3-.1.4-.2.5-.2.3-.1.4-.3h.2l.4-.3.3-.1.4-.2.2-.1.6-.5.6-.4.4-.2h.3l.2-.1h.2l.3-.1h.1l.4-.3.2-.1.3-.3.3-.3.4-.3.4-.3.4-.2h.1v.1l.2-.1.1-.1.4-.1.4-.3.4-.4.5-.4v.1l.3-.2.3-.4.2-.1.5-.4.1-.1-.2.2.1-.1v.1l.3-.3.5-.5.4-.4.3-.2.3-.4-1.4 1.4-3.1 2.7-2.9 2.4-2.8 2.1-2.7 1.8-2.6 1.7-2.5 1.5-2.4 1.3-2.3 1.2-2.2 1-2.1 1-2.1.8-1.9.8-1.9.6-1.8.7-1.8.5-1.7.5-1.6.4-1.6.5-1.6.3-1.6.3-1.4.3-1.5.3-1.4.2-1.4.2-1.4.2-1.4.1-1.3.2-1.3.1h-1.3l-1.3.1-1.4.1h-5.1l-1.3-.1-1.3-.1H82l-1.4-.1-1.3-.2-1.4-.1-1.3-.2-1.4-.2-1.5-.2-1.4-.3-1.5-.3-1.5-.3-1.6-.3-1.6-.5-1.6-.4-1.8-.5-1.7-.5-1.8-.7-1.9-.6-2-.8-2-.8-2.1-1-2.2-1-2.3-1.2-2.4-1.3-2.5-1.5-.9-.5-.6-.4-.7-.5-.2-.1.6.3.7.5.8.5.7.4-.6-.3-.5-.3-.6-.4.4.2.5.3.2.2.8.5.4.2.3.1-.4-.2.6.3.6.3.7.4-.1-.1-1.1-.6-.1-.1-.6-.4-.2-.1.6.3h.1l-.6-.4-.3-.1-.9-.5.3.1.3.2.5.2.8.5-.1-.1.5.4.4.2.4.2-.2-.2-.4-.2-.7-.4-.7-.5-.7-.4-.7-.4h.2l.8.5.3.1.7.4.3.2.8.4.7.4.8.4.7.3.6.2.8.4h.3l.4.2.8.3.8.3.6.3-.4-.3-.1-.2.8.3.8.4.5.2.2.3.6.1.5.2h.6l.5.2.3-.1-.2-.2-.3-.3-.5-.3-.3-.4-.6-.4-.5-.4-.3-.3.5.1.1-.1-.5-.3.1-.2-.3-.2-.5-.3-.2-.2h-.3l-.3-.1-.3-.3.1-.2h.2l.4.3h.2l.5.3-.2-.3h.3l-.4-.3.2-.2.4-.1-.2-.3.5.2v-.2h.4v-.2l.1-.1h.9l.4-.1.4.1.4.2h-.7l.5.1.2.4-.5-.1-.4-.3.1.3-.5-.2-.2.1-.3.1-.2.2.1.2.1.2v.3l-.5-.3-.2.1.4.3-.5-.1-.1.2.2.3.5.2-.1.2.5.3.5.1.7.4.5.4.4.4.5.3.2.2.4.2.4.3-.2.2.6.3.2.2.7.3.1.2-.5-.1.4.3.6.3-.2.2.3.2-.5-.1.4.3v.2h-.3l-.3.1 1.1.4.9.2 1 .2 1.1.3.9.4 1.3.3 1 .4 1.2.3.9.2 1.5.3 1.3.3.9.1.7-.1.3-.2h.6l.6-.1.6-.1h.6l.5-.2.3-.1.9-.2v-.2l.5-.2.8-.1.6-.1.7-.2.7-.1h1.4l.5-.1.5-.2.1-.2-.5-.1-.1-.3h.3l.3.2.3-.2.3-.1.5.1.2.2.1.2.6-.1-.2-.1.2-.2-.2-.1.4-.1h.6v.2l-.1.1.8.1.9-.1-.1-.3-.2-.1.5-.1.5.1.3.1-.3.2.5.1z"/></g><path class="cls-2" d="M33.4 19c-.1.1-.2.2-.2.3.1-.1.1-.2.2-.3zM58 5.3l.1-.1H58zm0-.1l.2-.2c-.3.2-.3.2-.2.2zM32 21.4c-.2.2-.3.4-.5.6zm2.5-1.3a.31.31 0 00.2-.1c-.1 0-.1 0-.2.1zM15.6 37.5zm-.9 1.8a.76.76 0 00-.2.4c.1 0 .2-.3.2-.4zm.6-.5l-.2.3c.1-.1.2-.2.2-.3zm-4.9 12l.1.1c0-.1 0-.1-.1-.1zm5.3-13.7c0 .1-.1.2-.1.3.1-.2.3-.4.1-.3zm17.7-18.2zm-2.8 3.7c.1-.2.1-.1 0 0zM68.2 2.1l.8-.2c-.7 0-.8.1-.8.2z"/><path class="cls-2" d="M20.2 32c.5.1-.6.8-.3 1 .3-.5.5-.8.8-.9-.1.5-.7.8-.6 1.2l.4-.7c.5-.3.2.4.5.1 0-.8 1.6-1.6 2-2.2v.2l.9-.7v-.1a5.18 5.18 0 001.8-1.4c0-.5 2-2.2 2.1-2.7a3.82 3.82 0 01-.9.9l-.2-.3c.6-.6.3.2.7-.6-.4-.2-.9.9-1.3 1.3a2.51 2.51 0 01.5-.8 7.1 7.1 0 00-2.1 2.6c-.3.2-.3-.1-.2-.3-.4.8-.6.3-1 1.1-.1-.5 1.1-1.5 1.5-2.3a15.53 15.53 0 002.8-2.9c.3.2-.2 1 .3.8 1-.7.8-1 1.2-1.6.7-.5.4.3 1.5-.6l-.5.7c.9-.2.5-.7 1-1a1.46 1.46 0 00-.8.5c-.2-.1.2-.5.4-.7l-.2.1c.1-.4 0-.6.8-1.1-.3.6.7-.3.9-.4l-.1.2a13.1 13.1 0 011.3-1.2v.1c.3-.4.3-.8.9-1.2 0 .1-.4 1 .2.4 0 .2-.6.8-1.2 1.2.6-.4 1.1-.4.4.2.3 0 .6-.6 1-.8-.1 0 0-.2-.1-.2.2.2 1.4-1 1.2-1.2l-.6.7c-.2-.2.5-1 .2-.9.6.1 1.7-1.6 2.3-1.5h-.4c1.5-.9 2.5-2.2 3.9-3.3-.5.5-.2.9-1.3 1.4 1.5-.9.7.1 1.2 0 1.2-.6.3-.7.6-1.1l-.7.6c.7-1.1 3-1.7 4.4-2.9.2.1-.3.3-.5.4.9-.2.7-.4 1-.8.8-.4 1.7-.8 1.4-.2.9-.4-.2-.1.2-.5h.2l.7-.8a4.9 4.9 0 012.2-.4c1.7-.9.3-1 1.5-1.7.8-.2 0 .3 0 .4l1.1-.5c-.2.5-1.2.8-1 1.1.7-.8 1.2-.7 2.3-1.5h-.1A7.85 7.85 0 0157 6c-.2.3-1.1.6-1.6.9a10.56 10.56 0 003.5-1.8c.5-.1 1.6-.3 1 .1 1.7-.5.5-.8 2.1-1.2v.3c1.8-.1 3.1-1.4 4.8-1.4v-.4c.4.1 1.1 0 1.3.1l-.8.3c.8.1.7-.5 1.6-.5 0-.1-.8-.2-.8-.3-3.4 1-6.9 1.6-10.1 3.1.1 0 .3 0 .2.1-.4.1-1 .4-1 .2l.1-.1a13.89 13.89 0 01-2.3.5c-.2.4-1.8.7-1.3.9h-.5c-.1.2.1.4-.3.6-.6.2-.7.1-.3-.2a38.14 38.14 0 00-7 3.5l.5-.5c-.6.2-1.7 1.4-1.5.7-1 .8-2.9 1.6-2.7 2.1-1 0-2.6 1.4-4 2.5.5.2-1.1.9-1.3 1.4-.4-.1.9-1.1.8-1.3-1.1 1.4-4.1 2.6-4.2 3.8-.2.1-.2.1-.2 0-.3.2-.7.4-1 .6-.1.2.6-.2 0 .4-.5.4-.4 0-.7 0-.8.9-2.2 2.3-2.1 2.7-.3.2-.8.3-.5 0-1.2 1.5-1.4 1.2-2.7 2.7.5-.5 0-.5.8-1.1-.9.2-2.1 2.2-3.3 3.2l-.2.7c-.6.7-.9.6-.5 0a26 26 0 00-2.4 2.8c-.1 0-.1-.1.1-.2l-1.1 1.4c0 .2-.3.8-.1.8a2.3 2.3 0 01.9-1.4z"/><path class="cls-2" d="M31.4 22.6c-.2.1-.3.1-.4.2.1 0 .2-.1.4-.2zM10.8 47.7c.5 0 .4-1 .9-1.6-.3.6.1.6.3.6-.1-1.1.6-.9 1.4-2.4.2.1-.2.8 0 1 .3-.9 1-2.1.8-2.5.8-1.3 1.5-2.2 2-3-.5 1 .2.4 0 1.2.3-1.2 1.3-3.6 1.9-5.2.4.1.5 0 .7.4 1.3-1.3 0-.7 1.2-2l-.8.5a1.43 1.43 0 00.1-1.4L18.1 35c-.2-.2.6-1.2.8-1.6.1-.7-.9.8-.9.4 0 .4-.6 1-.8 1.5H17c-.7.7-.7 1.4-1.3 2.1h-.1a3 3 0 01-.3 1.2l.2-.4c-.1.8-1 2.5 0 1.7l-1.2 1.7a1.84 1.84 0 01.2-2.1l-.1-.2c-.7.7-1.2 2.4-.6 2 .3 1.3-1.7 2.8-2.1 4.4-.3 0 .1-.8.1-1.3.2-.4.4-.7.6-.7.9-1.8-.9 0 .3-2 .7-.9-.4 1.4.5 0v-1.4c-.5.9-.9 1.7-1.3 2.5a72.2 72.2 0 01-3.6 7 86.93 86.93 0 00-6.2 19.3c-.3 2.1-.5 2.8 0 3.8.2-.4.4-1.7.5-1.2a3.53 3.53 0 010-2.1c.3-.1-.1 1 0 .7l.1-.2c.1.1.1.3.1.7a8.62 8.62 0 00.8-4.3c.5-.9.2.8.3 1.3 1-3.3 1.6-5.6 2.8-8.9-.4-.2-.1-.4-.3-1l.3-.2c-.1.1-.2-.5-.6.2 1-1.8.3-2.5.7-3.9l.2.2c.4-1.1.5-1.4.8-2.4 1.1-1.5-.6 1.5.1 1.3l.3-.4a3 3 0 01.2 1.4c.4-1.8 1.1-2.3 1.7-4.1a7.68 7.68 0 01-.6 2.4c.3-.6.6-1.7.8-1.7l-.1-.2c.5-1 .2.3.5 0 1.2-2.4-.8-.7.1-2.8zm16.4-22a3.39 3.39 0 00-.6.6zM23.9 30v.2c.1-.1.1-.2 0-.2zm0 .7c-.2 0 0-.3 0-.5-.1.3-.7.9 0 .5zm77.8-28.5c.2-.1.9-.1.7-.2h-1zm-2-.6l-1-.2-.8.3c1.1.1.7-.3 1.8-.1zM96.8 1l.2-.1a.31.31 0 01-.2.1zm0 .2l-.4.3 1.3-.1-.5-.2c0-.1-.3-.2-.4-.2l-.5.2c.1 0 .4-.1.5 0zm-1.1-.1zM93.1.4c.3.1-.3.3-.4.4 1 .2 1.1-.3 2-.1-1.4.2.5.2.9.4-.2-.3-.7-.6-1.8-.7l-.1.2c-.5 0-.2-.1-.6-.2zm-5.4.3l.8-.3c.1.1 1.4.1 1.4.4.5 0 .5-.2.9-.2a1.07 1.07 0 001.1.1 18.83 18.83 0 00-3.1-.4c0-.1.2-.1.5 0L88.2.1c-.1.4-1.5.4-.5.6zM86.1.5c.9 0 1.4-.3.9-.5l-1.9.3c.6 0 1.3 0 1 .2zm-1.3.1c-.4-.1-1-.4-1.5-.1 1-.1.5.4 1.5.1zm-6.4.2h1.8c.4.4-.8.2-1.3.4A5.39 5.39 0 0081 .7a12.44 12.44 0 001.6-.4c-2.3.6-2.6-.4-4.2.5zm3.5.1l.2-.2-.8.2zm-7.6.1c-1.2-.3-2 .6-3.2.7.1-.1 0-.1.3-.2l-1 .3-.1-.1c.1.2-.9.6-1.3.9 1.1.1.4-.5 1.4-.3-.2.1-.3.3-.5.4a2.48 2.48 0 00.9-.7c.7-.2.5 0 .6.1.7-.3.6-.7 1.8-.8.8.1-.4.4.9.1-.7-.3 1.3-.1 1.7-.5.9-.1 1.6.1 1.4.3-.1-.3.7-.7 1.4-.9l-1.5.5-.6-.3a9.48 9.48 0 01-2.3.5z"/><path class="cls-2" d="M69.9 2.7c-.1 0-.2.1-.3.1.2.1.2 0 .3-.1zm7.6-1.3l-.4.1.3.1zm-8.3 1.8c.2 0 .2-.2 0-.1l-.3.3zm-.9 0l-.6-.1-.3.2zm-20.1 7.3c.7-.2.5-.4.5-.6-1 .4.1.2-.5.6zM37 18a11 11 0 001.8-1.4A5.12 5.12 0 0037 18zm-3.9 4.2c.1-.2.3-.4-.1-.2l.3-.8c-1 .6-.4.9-.2 1zm-4.7 4.4l.6-.9-.4.4a4.71 4.71 0 01.3-.9c-.5.6-.8 1.3-.5 1.4zm1.2-2.1l-.3.3c.1-.1.2-.1.3-.3zm-.6.6l-.1.1c.1-.1.2-.3.4-.4q-.15 0-.3.3zM27.7 27l-1.2 1.3.5-.4c-.1-.3.7-.5.7-.9zm-6.5 6.9h-.3c-.8.9-1.1 2.4-1.9 2.7.4-.3-.3 1 .6-.1a5.6 5.6 0 011.6-2.6zM18.3 37c0-.2-.2 0-.3.1-.3.3-.4.8-.2.6-.2-.5.4-.2.5-.7zm-3 4.4c.2-.3.4-.7.1-.3-.5.9-.1.8-.2 1.4.6-.7.6-1.5.1-1.1zm-5.8 6c.3 0 .6-.7.6-.9-.1.2-.4.6-.6.9zm1.7 1.1l.2-.2-.2-.5zm-2.3 5.6l-.1.8.4-1.1zm-.5 1L8 56l.2-.3c.3-.4 0-.3.2-.6zm-1.1 2.8a.22.22 0 01.2-.2l.2-.9zM1.7 73.2c-.2-.3-.2.7-.3 1a1.41 1.41 0 00.3-1z"/></g></g></svg>